<?xml version="1.0" encoding="UTF-8" standalone="no"?>
<svg
   xmlns:dc="http://purl.org/dc/elements/1.1/"
   xmlns:cc="http://creativecommons.org/ns#"
   xmlns:rdf="http://www.w3.org/1999/02/22-rdf-syntax-ns#"
   xmlns:svg="http://www.w3.org/2000/svg"
   xmlns="http://www.w3.org/2000/svg"
   xmlns:sodipodi="http://sodipodi.sourceforge.net/DTD/sodipodi-0.dtd"
   xmlns:inkscape="http://www.inkscape.org/namespaces/inkscape"
   sodipodi:docname="coco_smile.svg"
   inkscape:export-ydpi="95.999977"
   inkscape:export-xdpi="95.999977"
   inkscape:export-filename="C:\Users\ashley\Pictures\Games\CoolSodaCan\export\graphics.unpacked\coco_smile.png"
   inkscape:version="1.0 (4035a4fb49, 2020-05-01)"
   version="1.1"
   id="svg6290"
   viewBox="0 0 181.13538 130.00003"
   height="130.00003"
   width="181.13538">
  <defs
     id="defs6292" />
  <sodipodi:namedview
     units="px"
     inkscape:document-rotation="0"
     inkscape:window-maximized="1"
     inkscape:window-y="302"
     inkscape:window-x="1072"
     inkscape:window-height="1017"
     inkscape:window-width="1920"
     fit-margin-bottom="0"
     fit-margin-right="0"
     fit-margin-left="0"
     fit-margin-top="0"
     showgrid="false"
     inkscape:current-layer="layer1"
     inkscape:document-units="px"
     inkscape:cy="68.125066"
     inkscape:cx="70.103453"
     inkscape:zoom="4.0000001"
     inkscape:pageshadow="2"
     inkscape:pageopacity="0.0"
     borderopacity="1.0"
     bordercolor="#666666"
     pagecolor="#ffffff"
     id="base" />
  <metadata
     id="metadata6295">
    <rdf:RDF>
      <cc:Work
         rdf:about="">
        <dc:format>image/svg+xml</dc:format>
        <dc:type
           rdf:resource="http://purl.org/dc/dcmitype/StillImage" />
        <dc:title />
      </cc:Work>
    </rdf:RDF>
  </metadata>
  <g
     transform="translate(-83.000629,-697.56432)"
     id="layer1"
     inkscape:groupmode="layer"
     inkscape:label="Coco">
    <path
       inkscape:connector-curvature="0"
       id="path2999"
       d="m 124.9075,806.18424 c -0.70118,0.56053 -1.56327,-0.18679 -2.31044,0 -0.37721,0.0943 -1.22216,0.73352 -1.44399,0.86667 -0.89981,0.54003 -0.37953,0.0133 -1.44401,0.86663 -0.31892,0.25524 -0.57759,0.57777 -0.86639,0.8667 -0.19254,0.19258 -0.38508,0.38513 -0.57761,0.57774 -0.0963,0.0962 -0.21328,0.17565 -0.2888,0.28886 -1.16889,1.75383 0.83135,-0.90452 -0.57761,1.44443 -0.14007,0.23353 -0.38507,0.38516 -0.57759,0.57778 -0.19253,0.19258 -0.38507,0.38514 -0.5776,0.57774 -0.0963,0.0962 -0.21329,0.17565 -0.2888,0.28889 -0.11939,0.17904 -0.1694,0.39861 -0.28881,0.57776 -0.17527,0.26298 -0.73842,0.61062 -0.8664,0.86665 -0.043,0.0863 0.0963,0.28888 0,0.28888 -0.0963,0 -0.0862,-0.33194 0,-0.28888 0.82148,0.41088 0.26323,0.97147 1.44401,0.57777 0.32927,-0.1098 0.55593,-0.42248 0.86639,-0.57777 0.76235,-0.38127 1.48657,-0.33053 2.3104,-0.57776 0.49655,-0.14896 0.94746,-0.42875 1.44402,-0.57777 0.94034,-0.28218 1.95665,-0.26721 2.888,-0.57777 0.40842,-0.13614 0.78141,-0.3641 1.15523,-0.57774 0.30134,-0.17223 0.62096,-0.82328 0.86638,-0.57778 0.24544,0.24549 -0.38508,0.57778 -0.57758,0.86665 -0.19264,0.28887 -0.37588,0.5841 -0.57761,0.86664 -0.27977,0.39181 -0.59943,0.75491 -0.86642,1.15553 -0.11938,0.17903 -0.1694,0.39864 -0.2888,0.57777 -0.0756,0.11337 -0.2888,0.1526 -0.2888,0.28889 0,0.13614 0.15966,0.33193 0.2888,0.2889 0.25833,-0.0863 0.38507,-0.38519 0.57761,-0.57779 0.0963,-0.0962 0.17566,-0.21344 0.2888,-0.28889 0.35819,-0.23887 0.81079,-0.31939 1.15519,-0.57776 0.21788,-0.16354 0.38507,-0.38519 0.57761,-0.57777 0.2888,-0.28888 0.57761,-0.57776 0.8664,-0.86665 0.19263,-0.1926 0.35104,-0.42667 0.57759,-0.57774 0.0801,-0.0534 0.20284,-0.043 0.2888,0 0.49302,0.24655 0.28881,0.67576 0.28881,1.15551 0,0.77037 0,1.54071 0,2.31109 0,0.0686 -0.0323,1.09074 0,1.15549 0.31928,0.63874 0.17931,0.0896 0.57762,0.28889 0.12176,0.0611 0.16698,0.22799 0.28878,0.2889 0.17218,0.086 0.40541,-0.0863 0.57761,0 0.24352,0.12185 0.31929,0.49162 0.57762,0.57775 0.39394,0.13123 1.13186,-0.0393 1.44398,-0.28889 1.06592,-0.85296 0.74899,-0.64975 1.15522,-1.73327 0.18195,-0.48555 0.47592,-0.93593 0.57758,-1.44443 0.0944,-0.47211 -0.13829,-0.98325 0,-1.44441 0.1614,-0.53781 0.63843,-0.93132 0.86641,-1.44441 0.1614,-0.36282 0.16331,-0.77889 0.28881,-1.15552 0.13442,-0.40328 0.66869,-1.18073 0.8664,-1.44444 0.0818,-0.10906 0.24574,-0.15971 0.28881,-0.28886 0.061,-0.18267 -0.0609,-0.39507 0,-0.57777 0.0862,-0.25838 0.45584,-0.33415 0.57759,-0.57777 0.0429,-0.0863 -0.0433,-0.2028 0,-0.28888 0.15533,-0.31054 0.42239,-0.55611 0.57762,-0.86666 0.0862,-0.17223 -0.0607,-0.39504 0,-0.57777 0.0679,-0.20424 0.22079,-0.37348 0.28878,-0.57777 0.0609,-0.18266 -0.0862,-0.40551 0,-0.57773 0.0609,-0.12185 0.24576,-0.15974 0.28881,-0.2889 0.0489,-0.1464 0,-1.78602 0,-2.02219 0,-0.0964 -0.0433,-0.20277 0,-0.28888 0.0607,-0.12185 0.19261,-0.1926 0.2888,-0.28887"
       style="fill:#8f7454;fill-opacity:1;stroke:none;stroke-width:1;stroke-linecap:butt;stroke-linejoin:miter;stroke-miterlimit:4;stroke-dasharray:none;stroke-opacity:1" />
    <path
       inkscape:connector-curvature="0"
       id="path2995"
       d="m 185.26689,704.20863 c -0.67388,-0.0964 -1.3429,-0.2367 -2.02161,-0.2889 -0.5759,-0.0444 -1.15521,0 -1.73281,0 -1.7328,0 -3.46562,0 -5.19842,0 -1.25145,0 -2.50637,-0.0925 -3.75442,0 -1.3577,0.1006 -2.6858,0.47334 -4.0432,0.57775 -1.15179,0.0887 -2.3141,-0.092 -3.46561,0 -1.81721,0.14536 -4.76714,0.78038 -6.64244,1.15555 -0.96268,0.19262 -1.94403,0.30801 -2.88802,0.57777 -1.08338,0.30966 -2.10231,0.81613 -3.17679,1.15554 -0.75702,0.23912 -1.57055,0.28996 -2.31042,0.57778 -1.0031,0.3902 -1.93557,0.94298 -2.88801,1.44439 -0.87707,0.46178 -1.67544,1.08511 -2.59919,1.44442 -0.82719,0.32178 -1.76822,0.26603 -2.59922,0.57777 -1.37508,0.51579 -2.35407,1.42159 -3.46559,2.31105 -1.97558,1.58091 -1.00815,0.71955 -2.88802,2.59994 -1.44402,1.44442 -2.88801,2.88886 -4.33204,4.33325 -0.38504,0.38518 -0.74817,0.79366 -1.15517,1.15555 -0.46074,0.40963 -1.00816,0.71955 -1.44401,1.15552 -1.06192,1.06219 -1.40675,1.97248 -2.31042,3.17771 -0.45113,0.60167 -0.94103,1.17428 -1.44398,1.73332 -0.36432,0.40485 -0.86662,0.69358 -1.15523,1.15551 -0.21035,0.33667 -0.13233,0.79057 -0.2888,1.15552 -0.1368,0.31913 -0.4054,0.56521 -0.5776,0.86666 -0.21359,0.37389 -0.38507,0.77037 -0.57759,1.15551 -0.19254,0.38521 -0.44145,0.74703 -0.57761,1.15556 -0.0609,0.18267 0.0467,0.39092 0,0.57777 -0.10434,0.41778 -0.44146,0.74698 -0.5776,1.15553 -0.0304,0.0913 0,0.19259 0,0.28886 -0.0964,0.48148 -0.13368,0.97861 -0.2888,1.44442 -0.1362,0.40857 -0.40801,0.7597 -0.57761,1.15553 -0.11982,0.2799 -0.1527,0.59431 -0.28881,0.86666 -0.0609,0.12185 -0.21875,0.17205 -0.28879,0.2889 -0.2215,0.36926 -0.35611,0.78624 -0.57759,1.15552 -0.07,0.11679 -0.21879,0.17204 -0.2888,0.28886 -0.22153,0.36928 -0.31931,0.81104 -0.57761,1.15556 -0.32674,0.43575 -0.85312,0.70227 -1.15521,1.15551 -2.71458,4.07299 0.77482,-0.42509 -0.86639,2.31106 -0.14007,0.23356 -0.43751,0.34422 -0.57761,0.57777 -0.15656,0.26112 -0.19253,0.57777 -0.28881,0.86664 -0.0963,0.28891 -0.21497,0.57125 -0.2888,0.86666 -0.26715,1.0689 1.12484,-1.38367 -0.28879,1.4444 -0.12177,0.24362 -0.43752,0.34421 -0.57761,0.57776 -0.15654,0.26112 -0.15271,0.59432 -0.28881,0.86666 -0.0607,0.12186 -0.23823,0.16233 -0.28877,0.28889 -0.40989,1.02499 -0.28881,2.10459 -0.28881,3.1777 0,0.2889 0,0.57777 0,0.86664 0,0.19261 0.0609,0.39507 0,0.57779 -0.1362,0.40854 -0.45933,0.74147 -0.57761,1.15551 -0.0794,0.27777 0,0.57777 0,0.86666 0,0.38517 0,0.77038 0,1.15552 0,1.15556 0,2.31107 0,3.46661 0,1.44441 0,2.88883 0,4.33322 0,0.2889 0,0.57778 0,0.86668 0,0.28887 -0.0408,0.58067 0,0.86662 -0.29864,0.74544 0.45819,1.13613 0.57761,1.73332 0.0565,0.28326 -0.0475,0.58169 0,0.86666 0.15567,0.93467 0.3968,0.91127 0.86639,1.73331 0.21361,0.37384 0.40801,0.75967 0.57761,1.15549 0.11983,0.2799 0.13784,0.60225 0.28879,0.86666 0.23882,0.41801 0.6276,0.7375 0.86642,1.15554 0.15096,0.26439 0.15271,0.59428 0.2888,0.86663 0.15515,0.31056 0.42237,0.55611 0.5776,0.86665 0.1362,0.27239 0.12757,0.60844 0.28879,0.86666 0.32671,0.52286 0.71934,1.00842 1.15521,1.44441 3.05297,3.05382 -0.83933,-1.57852 2.3104,2.02217 0.31697,0.36234 0.54945,0.79321 0.86641,1.15553 0.7172,0.81992 1.54026,1.54072 2.3104,2.31106 0.38508,0.38519 0.6934,0.86684 1.15523,1.15555 0.33656,0.21054 0.81056,0.0919 1.15518,0.28889 0.3546,0.20277 0.57761,0.57775 0.8664,0.86664 0.48133,0.48145 0.93806,0.9889 1.44401,1.44444 0.45818,0.41244 0.96692,0.76507 1.44401,1.15551 1.16382,0.95247 2.26261,1.98633 3.46559,2.88881 0.55536,0.41664 1.15522,0.77035 1.73284,1.15552 0.57759,0.38519 1.15518,0.77038 1.7328,1.15557 0.57759,0.38517 1.12335,0.82301 1.73281,1.1555 0.45512,0.24833 0.9568,0.40056 1.44399,0.57775 3.43391,1.24907 -0.0938,-0.11769 4.04319,1.15554 0.4955,0.15261 0.97206,0.3632 1.44402,0.57778 0.58789,0.2673 1.1063,0.71001 1.7328,0.86666 0.56035,0.14 1.15759,-0.0524 1.73283,0 3.29781,0.29985 -0.43276,0.20227 2.88799,0.86667 0.47199,0.0945 0.96563,-0.0532 1.44402,0 2.50623,0.27851 -0.21227,0.23572 2.31038,0.86663 0.37359,0.0936 0.77015,0 1.15523,0 0.48136,0.19261 0.94387,0.4413 1.44398,0.57775 3.60832,0.98437 0.36277,-0.0308 2.59924,0.28889 0.39292,0.0562 0.76024,0.24938 1.15518,0.28889 0.57475,0.0574 1.17555,-0.15192 1.73282,0 0.54155,0.14773 0.91842,0.6695 1.44401,0.86665 0.2704,0.10167 0.57761,0 0.8664,0 0.77014,0 1.54701,-0.10177 2.3104,0 0.6947,0.0926 1.33031,0.46254 2.02161,0.57776 0.47478,0.0792 0.96265,0 1.44402,0 0.48133,0 0.96265,0 1.44401,0 1.63653,0 3.27306,0 4.90959,0 3.2731,0 6.54616,0 9.81924,0 0.67387,0 1.34775,0 2.0216,0 0.67388,0 1.35294,0.0834 2.02163,0 0.74978,-0.0938 4.08542,-0.94945 4.9096,-1.1555 0.77015,-0.19261 1.57336,-0.28289 2.3104,-0.5778 0.7206,-0.28834 1.29489,-0.88293 2.02162,-1.15554 2.19309,-0.82262 2.73622,-0.40076 4.90963,-0.86666 2.29259,-0.4914 1.10961,-0.56473 3.17679,-1.15551 0.001,-4.2e-4 5.19009,-1.1536 5.19841,-1.15553 0.77274,-0.18195 1.58314,-0.25949 2.31042,-0.57777 0.83203,-0.36411 1.49809,-1.03814 2.3104,-1.4444 0.92738,-0.46383 1.93502,-0.74699 2.88802,-1.15553 1.06914,-0.45834 2.08533,-1.04218 3.1768,-1.44444 0.7449,-0.2745 1.56712,-0.29894 2.31042,-0.57776 3.02644,-1.13525 1.61091,-0.91557 4.04321,-2.59993 0.63812,-0.4419 1.42092,-0.66392 2.02161,-1.15551 0.47708,-0.39046 0.71934,-1.00846 1.15522,-1.44444 1.92534,-1.92589 1.05892,-0.28889 2.5992,-2.59994 0.23872,-0.35834 0.38505,-0.77035 0.5776,-1.15552 0.58878,-1.17793 1.11727,-2.15933 1.44398,-3.46664 0.14202,-0.56824 0.13472,-1.16819 0.28882,-1.73328 0.13635,-0.50029 0.48485,-0.9342 0.57762,-1.44441 0.18946,-1.04213 -0.2077,-2.13904 0,-3.17772 0.86361,-4.31933 0.57757,2.28249 0.57757,-3.75545 0,-1.63701 0,-3.274 0,-4.91103 0,-0.77035 0.10179,-1.54745 0,-2.31105 -0.0926,-0.69489 -0.40761,-1.34208 -0.57757,-2.02219 -0.21521,-0.86126 -0.3851,-1.73327 -0.57762,-2.59992 -0.28882,-0.86667 -0.63397,-1.71653 -0.86641,-2.59996 -0.62855,-2.38914 -0.38638,-3.25538 -1.44399,-5.48878 -0.48061,-1.0149 -1.15523,-1.92589 -1.73281,-2.88883 -0.57762,-0.96293 -1.14742,-1.93063 -1.7328,-2.8888 -0.47358,-0.77518 -0.99876,-1.51933 -1.44401,-2.31108 -0.42214,-0.75066 -0.6651,-1.60297 -1.15522,-2.31106 -0.38744,-0.55984 -0.98608,-0.9406 -1.444,-1.44444 -0.50577,-0.55648 -1.01602,-1.11495 -1.44399,-1.7333 -2.2985,-3.32097 0.0773,-0.77196 -2.59921,-4.04432 -0.34485,-0.42163 -0.77017,-0.77037 -1.15522,-1.15556 -0.38505,-0.38518 -0.74817,-0.79364 -1.1552,-1.15553 -0.46068,-0.40964 -1.00812,-0.71954 -1.444,-1.15552 -0.43588,-0.43601 -0.74569,-0.98354 -1.15521,-1.4444 -0.36179,-0.40713 -0.77013,-0.77036 -1.1552,-1.15555 -1.22308,-1.2234 -1.87123,-2.03006 -3.46558,-2.88884 -0.53609,-0.28875 -1.18828,-0.30541 -1.73285,-0.57775 -0.6209,-0.31053 -1.092,-0.88846 -1.7328,-1.15552 -0.54051,-0.22531 -1.17726,-0.10369 -1.7328,-0.28891 -0.61266,-0.20422 -1.1449,-0.5993 -1.73281,-0.86664 -0.47194,-0.21463 -0.97207,-0.36319 -1.444,-0.57775 -0.58789,-0.2673 -1.13322,-0.62676 -1.73279,-0.86664 -0.36856,-0.1476 -0.78358,-0.14949 -1.15522,-0.2889 -0.4031,-0.15122 -0.77014,-0.38519 -1.1552,-0.57776 -0.38506,-0.19259 -0.77015,-0.38521 -1.15523,-0.57778 -0.38504,-0.1926 -0.73753,-0.47333 -1.15518,-0.57777 -0.37358,-0.0936 -0.774,0.0544 -1.15522,0 -0.84069,-0.12007 -1.01786,-0.43756 -1.73279,-0.86665 -0.18464,-0.1107 -0.38509,-0.1926 -0.57761,-0.28885 -0.19265,-0.0964 -0.36652,-0.24667 -0.57761,-0.28887 -0.28319,-0.0565 -0.58621,0.0699 -0.86636,0 -0.13218,-0.0331 -0.16715,-0.22797 -0.2888,-0.28892 -0.0862,-0.043 -0.20284,0.043 -0.28882,0 -0.24355,-0.12185 -0.33408,-0.45594 -0.5776,-0.57775 -0.0862,-0.043 -0.20284,0.043 -0.28882,0 -0.12175,-0.0607 -0.16697,-0.22797 -0.28881,-0.28889 -0.0862,-0.043 -0.19747,0.0305 -0.28878,0 -0.20428,-0.068 -0.37339,-0.22071 -0.57761,-0.28888 -0.0912,-0.0305 -0.2028,0.043 -0.28878,0 -0.12176,-0.0607 -0.17567,-0.21345 -0.28881,-0.28888 -0.17904,-0.11948 -0.3985,-0.16928 -0.57761,-0.2889 -0.22661,-0.1512 -0.33404,-0.45596 -0.57761,-0.57775 -0.0862,-0.043 -0.19263,0 -0.28878,0 -0.19264,-0.0964 -0.39852,-0.16927 -0.57762,-0.2889 -0.11328,-0.0755 -0.19262,-0.19261 -0.28878,-0.28889 -0.19265,-0.19259 -0.38509,-0.38515 -0.57762,-0.57775 -0.19264,-0.19261 -0.42656,-0.35114 -0.57761,-0.57776 -0.23872,-0.35833 -0.33879,-0.79722 -0.57758,-1.15554 -0.0753,-0.11337 -0.19264,-0.19258 -0.28881,-0.28886 -0.38507,-0.38518 -0.77014,-0.77037 -1.15521,-1.15553 -0.0963,-0.0964 -0.19265,-0.19262 -0.28878,-0.28888 -0.0963,-0.0964 -0.22782,-0.16719 -0.28882,-0.28889 -0.42496,-0.85012 0.66902,0.38033 -0.2888,-0.57776 -0.42466,-0.42481 -1.65337,-1.46602 -1.7328,-2.02221 -0.0682,-0.47664 0,-0.96293 0,-1.4444 z"
       style="fill:#8f7454;fill-opacity:1;stroke:none;stroke-width:1;stroke-linecap:butt;stroke-linejoin:miter;stroke-miterlimit:4;stroke-dasharray:none;stroke-opacity:1" />
    <path
       inkscape:connector-curvature="0"
       id="path3001"
       d="m 237.25107,784.22918 c 3.09315,1.23758 0.1562,0.26993 2.3104,0.57776 0.39293,0.0562 0.7607,0.24506 1.15519,0.28886 0.47841,0.0532 0.97202,-0.0945 1.44402,0 0.50835,0.10178 0.93396,0.48499 1.444,0.57775 0.5683,0.10359 1.17557,-0.15191 1.73282,0 0.54154,0.14774 0.93106,0.63863 1.44399,0.86669 0.36271,0.16128 0.77866,0.16336 1.15522,0.28887 0.20426,0.068 0.37774,0.20883 0.5776,0.28888 0.28263,0.11323 0.56788,0.22918 0.86639,0.28889 0.18874,0.0378 0.39083,-0.0467 0.5776,0 0.46624,0.1165 0.57284,0.28411 0.86643,0.57774 0.0963,0.0964 0.22781,0.1672 0.28879,0.2889 0.0429,0.086 0,0.1926 0,0.2889 0.1924,0.19261 0.42656,0.35115 0.57758,0.57776 0.0532,0.0802 0,0.19262 0,0.28888 0,0.19261 -0.0378,0.38892 0,0.57777 0.0596,0.29859 0.16888,0.58675 0.28881,0.86665 0.16957,0.39578 0.45934,0.74143 0.57761,1.1555 0.0794,0.27779 -0.0914,0.59262 0,0.86666 0.10971,0.32937 0.36933,0.58889 0.5776,0.86665 0.0818,0.10906 0.24576,0.15972 0.28878,0.28887 0.0468,0.14031 0,1.72729 0,2.02222 0,0.24104 0.041,1.38281 0,1.44437 -0.57759,0.86667 -0.43317,0.28891 -0.86638,0.86667 -0.20816,0.27775 -0.33219,0.62114 -0.57761,0.86664 -0.0679,0.068 -0.19262,0 -0.28881,0 -0.0963,0.0964 -0.20718,0.18 -0.28879,0.2889 -0.0767,0.1022 -1.139,1.72248 -1.1552,1.7333 -0.33027,0.22021 -0.81862,0.0785 -1.15518,0.28887 -0.46183,0.28873 -0.77017,0.77036 -1.15522,1.15557 -0.48136,0.38512 -0.91903,0.83234 -1.44402,1.1555 -0.73331,0.4514 -1.55066,0.75021 -2.3104,1.15551 -0.68481,0.36535 -1.34776,0.77037 -2.02161,1.15553 -0.67387,0.38522 -1.39393,0.69891 -2.02159,1.15556 -0.44042,0.32039 -0.71209,0.83892 -1.15522,1.15551 -0.24773,0.17712 -0.5866,0.16893 -0.86641,0.28893 -0.39572,0.16961 -0.79699,0.33886 -1.15521,0.57774 -0.0801,0.0532 0.19434,0.0195 0.28882,0 0.38921,-0.0778 0.76708,-0.20568 1.1552,-0.28888 0.95994,-0.20568 1.96138,-0.25337 2.888,-0.57779 1.01587,-0.35563 1.92534,-0.96292 2.88802,-1.4444 0.96268,-0.48145 1.93558,-0.94301 2.888,-1.44444 0.87709,-0.46172 1.67548,-1.08506 2.59921,-1.44437 0.82719,-0.32181 1.72892,-0.40369 2.59921,-0.57776 0.5742,-0.11472 1.18912,-0.0712 1.73282,-0.2889 0.4469,-0.17879 0.71701,-0.66742 1.15518,-0.86665 0.63802,-0.2901 1.34172,-0.40773 2.02165,-0.57778 0.0935,-0.0242 0.28879,-0.0964 0.28879,0 0,0.0964 -0.19531,-0.0242 -0.28879,0 -0.3041,0.0761 -0.9604,0.188 -1.15523,0.57778 -0.13605,0.27236 -0.21494,0.57123 -0.2888,0.86665 -0.0242,0.0932 0,0.19261 0,0.2889 0,0.19258 0,0.38512 0,0.57776 0,0.77034 0,1.54068 0,2.31105 0,0.57776 0,1.15553 0,1.7333 0,0.28886 -0.0912,0.59258 0,0.86665 0.18365,0.55132 0.56802,0.13955 0.86641,0.28888 0.12176,0.0607 0.15966,0.2458 0.28881,0.28886 0.27397,0.0913 0.5776,0 0.86638,0 0.5663,0 1.28193,0.16216 1.73282,-0.28886 0.0681,-0.068 0,-0.19261 0,-0.28888 0,-0.48148 0,-0.96294 0,-1.44442 0,-1.34813 0,-2.69624 0,-4.04434 0,-0.48152 0.0943,-0.97231 0,-1.44444 -0.0422,-0.21101 -0.2466,-0.36663 -0.28882,-0.57777 -0.0564,-0.28325 0.0564,-0.58338 0,-0.86664 -0.0398,-0.19867 -0.5886,-0.85565 -0.28878,-1.15553 0.0963,-0.0962 0.19264,0.19258 0.28878,0.28887 0.28882,0.28887 0.57759,0.5778 0.8664,0.86666 0.19265,0.19261 0.38509,0.38516 0.57762,0.57777 0.0963,0.0962 0.21325,0.17565 0.28878,0.28887 0.1759,0.26391 0.24653,0.70106 0.5776,0.86666 0.0648,0.0324 1.08659,0 1.15523,0 0.45754,0 0.78029,0.0863 1.15519,-0.28889 0.0681,-0.0679 0,-0.19259 0,-0.28889 0,-0.96293 0,-1.92589 0,-2.88882 0,-0.67408 0,-1.34811 0,-2.02221 0,-0.48143 0,-0.96291 0,-1.44438 0,-0.19261 0.038,-0.38891 0,-0.57775 -0.0595,-0.29859 -0.15254,-0.59432 -0.28881,-0.86669 -0.061,-0.12185 -0.19261,-0.19261 -0.28878,-0.28887 -0.33043,-0.33052 -0.40278,-0.34196 -0.5776,-0.86665 -0.061,-0.18268 0.10672,-0.41752 0,-0.57777 -0.2152,-0.32301 -0.84086,-0.84107 -1.15523,-1.15551 -0.48131,-0.48149 -0.96265,-0.96296 -1.444,-1.44441 -0.28881,-0.28889 -0.61124,-0.54764 -0.8664,-0.86663 -0.21689,-0.27115 -0.38504,-0.5778 -0.57759,-0.8667 -0.19264,-0.28886 -0.42237,-0.55609 -0.57761,-0.86663 -0.043,-0.0863 0.0195,-0.19454 0,-0.28888 -0.0779,-0.38934 -0.11135,-0.80043 -0.2888,-1.15556 -0.12176,-0.24356 -0.43751,-0.34421 -0.57757,-0.57775 -0.31329,-0.52222 -0.30534,-1.18855 -0.57762,-1.73329 -0.15533,-0.31054 -0.43664,-0.54936 -0.57761,-0.86664 -0.24726,-0.55653 -0.35149,-1.16783 -0.57761,-1.7333 -0.15984,-0.39986 -0.408,-0.75974 -0.57761,-1.15553 -0.11983,-0.27989 -0.21494,-0.57126 -0.2888,-0.86664 -0.0242,-0.0936 0.0429,-0.20277 0,-0.2889 -0.15531,-0.31051 -0.36932,-0.58889 -0.57758,-0.86665 -0.16333,-0.21781 -0.45583,-0.33414 -0.57763,-0.57776 -0.0429,-0.0863 0.0681,-0.2207 0,-0.28887 -0.35174,-0.35186 -0.64522,-0.1354 -0.86638,-0.57776 -0.0433,-0.0863 0.0429,-0.20279 0,-0.28889 -0.061,-0.12185 -0.22805,-0.16718 -0.28881,-0.28888 -0.0433,-0.086 0.0433,-0.20279 0,-0.2889 -0.0609,-0.12185 -0.2278,-0.16719 -0.2888,-0.28889 -0.13606,-0.27235 -0.13219,-0.60553 -0.28881,-0.86665 -0.86637,-1.4444 -0.28879,0 -0.86637,-0.86665 -0.2806,-0.42098 -0.18029,-0.60169 -0.57762,-0.8666 -0.17905,-0.11948 -0.42539,-0.13659 -0.57761,-0.28888 -0.15219,-0.15243 -0.13649,-0.42553 -0.2888,-0.57779 -0.75711,-0.75734 -1.13612,-0.57777 -2.02161,-0.57777 -0.19264,0 -0.38505,0 -0.5776,0 -0.0963,0 -0.1975,0.0305 -0.2888,0 -0.20426,-0.068 -0.36876,-0.2367 -0.5776,-0.28887 -0.25784,-0.0644 -1.10969,0 -1.44399,0 -0.19264,0 -0.39498,0.0607 -0.57762,0 -0.12906,-0.043 -0.16696,-0.22801 -0.2888,-0.2889 -0.1754,-0.0876 -1.55744,0.0877 -1.73279,0 -0.12177,-0.0611 -0.15966,-0.24581 -0.28881,-0.28887 -0.13725,-0.0459 -1.35469,0.0595 -1.44399,0 -0.22662,-0.15122 -0.35106,-0.42669 -0.57762,-0.57777 -0.0801,-0.0532 -0.19263,0 -0.28882,0 -0.0963,-0.0964 -0.19262,-0.1926 -0.28878,-0.2889"
       style="fill:#8f7454;fill-opacity:1;stroke:none;stroke-width:1;stroke-linecap:butt;stroke-linejoin:miter;stroke-miterlimit:4;stroke-dasharray:none;stroke-opacity:1" />
    <path
       inkscape:connector-curvature="0"
       id="path2997"
       d="m 173.71485,799.82883 c -0.51424,1.13298 -0.94709,1.52512 -1.73283,2.31107 -0.19262,0.19259 -0.42655,0.35114 -0.57757,0.5778 -0.11937,0.17902 -0.16939,0.39859 -0.28881,0.57774 -0.0754,0.11339 -0.19263,0.19261 -0.28881,0.2889 -0.0963,0.0961 -0.17564,0.21345 -0.2888,0.28886 -0.17905,0.11948 -0.42539,0.13659 -0.57761,0.2889 -0.59753,0.59768 0.91311,-0.0242 -0.28881,0.57773 -0.27227,0.13613 -0.59411,0.15261 -0.8664,0.28888 -0.1167,0.0584 -1.14654,1.14689 -1.15519,1.15553 -0.48134,0.48148 -0.96266,0.96296 -1.44402,1.44444 -0.0963,0.0964 -0.19262,0.1926 -0.28878,0.28886 -0.0963,0.0964 -0.22783,0.1672 -0.28879,0.28891 -0.0433,0.0863 0.0429,0.20276 0,0.28886 -0.061,0.12185 -0.19263,0.19262 -0.28881,0.28893 -0.18486,0.18508 -0.97502,0.88515 -1.15521,1.15551 -0.11938,0.17903 -0.15966,0.40551 -0.28881,0.57774 -0.16331,0.21779 -0.38508,0.38517 -0.57758,0.57778 -0.48135,0.48146 -0.96268,0.96292 -1.44403,1.44441 -0.19263,0.19261 -0.42654,0.35115 -0.5776,0.57776 -0.11938,0.17905 -0.16939,0.39861 -0.2888,0.57777 -0.0942,0.1409 -1.01415,1.06149 -1.1552,1.15554 -0.17905,0.11947 -0.39848,0.16946 -0.57761,0.2889 -0.11328,0.0756 -0.19239,0.19259 -0.28877,0.28887 -0.19264,0.19261 -0.38508,0.38518 -0.57763,0.57777 -0.36435,0.36444 -0.85343,0.75303 -1.15518,1.1555 -1.04909,1.39915 0.30571,-0.0174 -0.57761,0.86666 -0.48134,0.48147 -0.96266,0.96296 -1.44403,1.44444 -0.19239,0.19261 -0.49148,0.31937 -0.57758,0.57776 -0.0433,0.12914 0.15532,0.26217 0.28881,0.28889 1.06193,0.21246 1.62117,-0.14283 2.59921,-0.57779 4.55683,-2.02583 -1.69522,0.70339 2.02159,-1.15554 0.27227,-0.13613 0.57107,-0.21512 0.86642,-0.28888 0.0935,-0.0241 0.19554,0.0242 0.2888,0 0.30407,-0.0761 0.96036,-0.188 1.15518,-0.57775 0.0433,-0.0863 0,-0.1926 0,-0.2889 0,-0.0964 0,-0.1926 0,-0.28889 0,-0.80108 -0.0433,0.46112 0.28881,-0.86665 0.0467,-0.18679 -0.061,-0.39502 0,-0.57774 0.35689,-1.07092 0.28881,0.35214 0.28881,-0.57775 0,-0.19262 0.1868,-0.62448 0,-0.57779 -0.45767,0.11456 -1.33264,1.04415 -1.7328,1.44443 -0.19264,0.19258 -0.40753,0.36507 -0.57761,0.57774 -0.2169,0.2711 -0.33216,0.62115 -0.57761,0.86665 -0.1522,0.15209 -0.39849,0.16928 -0.57758,0.2889 -0.11328,0.0755 -0.19264,0.19258 -0.28882,0.28887 -0.0963,0.0961 -0.24577,0.15972 -0.28881,0.28888 -0.061,0.18268 0.0467,0.39094 0,0.57777 -0.0521,0.20884 -0.22076,0.37349 -0.28881,0.57779 -0.0865,0.25996 0.0866,0.60664 0,0.86665 -0.0679,0.20422 -0.22076,0.37348 -0.28878,0.57774 -0.28658,0.85997 0.68384,-0.59272 -0.28879,0.86665 -0.0754,0.11337 -0.25579,0.15677 -0.2888,0.28889 0,2.04896 0.20427,0.16911 -0.28881,1.15553 -0.0433,0.086 0,0.1926 0,0.28888 0,0.1926 0.061,0.39503 0,0.57776 -0.95783,0.95809 0,-0.13614 0,0.28887 0,0.0964 -0.38507,0 -0.2888,0 0.2888,0 0.57761,0 0.86641,0 0.0963,0 0.20258,0.043 0.28879,0 0.92352,-0.46188 1.59394,-1.3055 2.31041,-2.02216 0.48134,-0.48148 0.86028,-1.09408 1.44399,-1.44442 0.42093,-0.25262 0.99284,-0.0955 1.44403,-0.28888 0.69625,-0.29849 0.48234,-0.67531 0.86638,-1.15551 0.25516,-0.31905 0.61126,-0.54764 0.86641,-0.86668 0.13442,-0.16806 0.15966,-0.40551 0.28881,-0.57776 0.16331,-0.2178 0.38506,-0.38518 0.57761,-0.57777 0.38505,-0.38517 0.77012,-0.77035 1.1552,-1.15554 0.19262,-0.1926 0.38505,-0.77034 0.57758,-0.57774 0.19262,0.1926 -0.40749,0.36505 -0.57758,0.57774 -0.2169,0.27109 -0.33216,0.62114 -0.57763,0.86665 -0.43586,0.436 -1.07414,0.66225 -1.44399,1.15554 -0.23826,0.31761 -0.14942,0.78379 -0.28881,1.15556 -0.15114,0.40321 -0.35608,0.78626 -0.5776,1.15551 -0.0701,0.1168 -0.19263,0.19261 -0.28879,0.28888 -0.19263,0.19262 -0.38506,0.3852 -0.57759,0.57777 -0.0963,0.0965 -0.22781,0.16719 -0.28881,0.28888 -0.0433,0.0863 0.0533,0.20885 0,0.28889 -0.15116,0.22652 -0.45585,0.33416 -0.57761,0.57774 -0.0219,0.0452 0,1.36365 0,1.44443 0,0.29494 -0.0468,1.88184 0,2.02218 0.043,0.12915 0.21325,0.17565 0.28881,0.2889 0.17588,0.26388 0.24651,0.70105 0.57761,0.86664 0.0134,0.007 0.85127,0.007 0.86638,0 0.12176,-0.0607 0.19264,-0.19261 0.28881,-0.28888 0.28879,-0.28889 0.5776,-0.57776 0.86641,-0.86666 0.0963,-0.0964 0.25579,-0.15677 0.2888,-0.28887 0.0703,-0.28028 -0.0564,-0.58338 0,-0.86667 0.0422,-0.21101 0.23655,-0.36887 0.28881,-0.57777 0.0467,-0.18678 -0.0467,-0.39091 0,-0.57777 0.0521,-0.20882 0.24657,-0.36661 0.28879,-0.57774 0.0564,-0.28327 -0.11372,-0.60113 0,-0.86665 0.18971,-0.44255 0.63264,-0.73466 0.86641,-1.15553 0.19262,-0.48146 0.38505,-0.96294 0.57758,-1.44442 0,-0.0961 -0.0305,-0.19744 0,-0.28886 0.13605,-0.40857 0.44148,-0.74701 0.57761,-1.15556 0.0607,-0.18267 -0.10674,-0.41752 0,-0.57775 0.43777,-0.65686 0.86639,-0.51839 0.86639,-1.44444 0,-0.17274 -0.0679,-0.57774 0.28882,-0.57774 0.0963,0 0.0963,0.28889 0,0.28889 -0.0963,0 0,-0.3852 0,-0.28889 0,1.54068 0,3.0814 0,4.62214 0,0.2994 0.0666,1.60028 0,1.73328 -0.65191,1.30415 -0.5776,0.42125 -0.5776,1.44441 0,0.0961 -0.0429,0.20278 0,0.28886 0.17321,0.34668 0.69311,0.52 0.86638,0.86665 0.0433,0.0863 -0.0433,0.20278 0,0.28889 0.12177,0.24361 0.42658,0.35118 0.57761,0.57779 0.11939,0.17903 0.22077,0.37348 0.28881,0.57775 0.0681,0.20425 -0.18728,0.86666 0.2888,0.86666 0.13605,0 0.19263,-0.19262 0.2888,-0.28889 0.19264,-0.19261 0.38505,-0.38517 0.57762,-0.57777 0.0963,-0.0964 0.22781,-0.16718 0.2888,-0.28887 0.13605,-0.27236 0.17565,-0.58394 0.28877,-0.86667 0.0798,-0.19987 0.23656,-0.36887 0.2888,-0.57777 0.0703,-0.28024 -0.0912,-0.59259 0,-0.86663 0.13606,-0.40857 0.44146,-0.747 0.57762,-1.15553 0.0305,-0.0913 0,-0.19259 0,-0.28888 0,-0.1926 0,-0.38515 0,-0.57777 0,-0.57777 0,-1.15551 0,-1.7333 0,-0.28886 -0.0703,-0.5864 0,-0.86665 0.0331,-0.13212 0.24575,-0.15973 0.28882,-0.28889 0.061,-0.18266 -0.0862,-0.40551 0,-0.57776 0.12175,-0.24363 0.49147,-0.31937 0.57759,-0.57777 0.12177,-0.36539 0,-0.77035 0,-1.15554 0,-0.38518 0,-0.77034 0,-1.15549 0,-0.0964 -0.0533,-0.20886 0,-0.2889 0.71451,-1.07209 0.5791,-0.007 0.86639,-1.44442 0.038,-0.18874 0,-0.3852 0,-0.57777 0,-0.28888 0,-0.57777 0,-0.86664 0,-0.96296 0,-1.92589 0,-2.88882 0,-0.48148 -0.0944,-0.9723 0,-1.44442 0.0422,-0.21102 0.23656,-0.36888 0.28881,-0.57777 0.0467,-0.1868 0,-0.38519 0,-0.57776 0.0963,-0.1926 0.22079,-0.37351 0.28879,-0.57778 0.0305,-0.0913 0,-0.19262 0,-0.2889 0.0963,-0.38519 0.14142,-0.78689 0.2888,-1.15553 0.0505,-0.12631 0.19261,-0.19259 0.28879,-0.28884 0.0964,-0.19262 0.22079,-0.37354 0.28881,-0.57776 0.0865,-0.26004 -0.0865,-0.60668 0,-0.86664 0.0433,-0.12915 0.22805,-0.1672 0.28881,-0.28891 0.0862,-0.17224 -0.061,-0.39509 0,-0.57778 0.0681,-0.20421 0.19262,-0.38514 0.28881,-0.57775 0,-0.2889 -0.0564,-0.5834 0,-0.86663 0.10093,-0.50422 0.52967,-0.81876 0.8664,-1.15557 0.0963,-0.0964 0.22781,-0.1672 0.28881,-0.28887 0.0432,-0.0863 -0.0305,-0.19746 0,-0.28889 0.0682,-0.20423 0.22078,-0.37351 0.28878,-0.57778 0.0305,-0.0913 -0.0532,-0.20885 0,-0.28886 0.15116,-0.22678 0.38507,-0.38516 0.5776,-0.57777"
       style="fill:#8f7454;fill-opacity:1;stroke:none;stroke-width:1;stroke-linecap:butt;stroke-linejoin:miter;stroke-miterlimit:4;stroke-dasharray:none;stroke-opacity:1" />
    <path
       inkscape:connector-curvature="0"
       id="path3029"
       d="m 94.872181,753.3187 c -1.349132,0 -1.382583,-0.1168 -2.59921,0.28889 -0.491811,0.16407 -0.952195,0.41377 -1.444005,0.57777 -0.385068,0.0962 -0.770139,0.19262 -1.155205,0.28887 -0.192536,0.0961 -0.373389,0.22069 -0.577603,0.28887 -0.09133,0.0305 -0.202701,-0.043 -0.288797,0 -0.121764,0.0607 -0.167035,0.22797 -0.288802,0.28889 -0.172213,0.0863 -0.405395,-0.0863 -0.577602,0 -0.121765,0.0607 -0.192538,0.19259 -0.288804,0.2889 -0.192536,0.1926 -0.351045,0.42668 -0.5776,0.57777 -0.08011,0.0534 -0.202703,-0.043 -0.2888,0 -0.880718,0.4405 0.528199,0.22893 -0.866403,0.57774 -0.186788,0.0467 -0.39495,-0.0607 -0.577602,0 -0.129161,0.043 -0.192537,0.19262 -0.288802,0.2889 -0.192537,0.19259 -0.426566,0.35114 -0.577602,0.57776 -0.504693,0.75727 -0.107951,0.50485 -0.577602,1.44442 -0.121778,0.24361 -0.491498,0.31939 -0.577604,0.57778 -0.0609,0.18266 0,0.38517 0,0.57772 0,0.19262 -0.0609,0.3951 0,0.57778 0.06807,0.20421 0.220727,0.37351 0.288803,0.57775 0.03046,0.0913 -0.04306,0.20278 0,0.28891 0.0609,0.12186 0.22791,0.16719 0.288801,0.28888 0.04308,0.0863 -0.04306,0.20277 0,0.28889 0.0609,0.12186 0.245749,0.15973 0.288799,0.28888 0.0609,0.18267 -0.06088,0.39507 0,0.57777 0.04306,0.12914 0.192538,0.19258 0.288803,0.28888 0.288801,0.28888 0.577602,0.57775 0.866404,0.86666 0.169849,0.1698 1.021465,1.08864 1.155204,1.15551 0.582438,0.2913 0.939309,0.19917 1.444005,0.57776 0.217815,0.16354 0.334063,0.45596 0.577602,0.57776 0.172211,0.0863 0.394947,-0.0607 0.577599,0 0.129177,0.043 0.167035,0.22797 0.288802,0.2889 0.08611,0.043 0.202703,-0.043 0.288801,0 0.713746,0.357 0.172595,0.28888 0,0.28888"
       style="fill:#6f573c;fill-opacity:1;stroke:none;stroke-width:1;stroke-linecap:butt;stroke-linejoin:miter;stroke-miterlimit:4;stroke-dasharray:none;stroke-opacity:1" />
    <path
       inkscape:connector-curvature="0"
       id="path2993"
       d="m 122.88587,740.60785 c -1.67033,0.86997 -2.97909,2.27812 -4.90961,2.59996 -0.56974,0.0949 -1.17246,-0.14016 -1.7328,0 -4.3877,1.09722 -1.43377,0.95244 -5.19841,2.59994 -0.7273,0.31828 -1.54029,0.38519 -2.31043,0.57777 -0.96266,0.57778 -1.86211,1.27719 -2.888,1.7333 -0.72542,0.3225 -1.56183,0.31349 -2.31041,0.57774 -0.20835,0.0736 -3.01545,1.30212 -3.754407,1.73331 -0.784473,0.45775 -1.53166,0.97704 -2.310416,1.44442 -0.665527,0.39944 -1.400701,0.68974 -2.021608,1.15557 -0.17221,0.12913 -0.13659,0.42548 -0.288794,0.57773 -0.340359,0.34045 -0.792966,0.54958 -1.155208,0.86664 -0.744414,0.65155 -1.773367,1.79415 -2.310409,2.59994 -0.89188,1.33823 -1.353303,2.23703 -1.732805,3.75548 -0.142008,0.56826 -0.127926,1.17009 -0.288802,1.7333 -0.225968,0.79108 -0.714823,1.50242 -0.8664,2.31107 -0.283857,1.51433 0.253218,3.10237 0,4.62213 -0.07077,0.42478 -0.484212,0.73514 -0.577606,1.15554 -0.104427,0.46998 0,0.96292 0,1.44443 0,0.57773 0.04798,1.15747 0,1.73325 -0.04862,0.58372 -0.235793,1.14998 -0.288798,1.73332 -0.0436,0.47949 0,0.96294 0,1.4444 0,0.38519 0.0934,0.78188 0,1.15554 -0.104428,0.41776 -0.417712,0.75569 -0.577602,1.15551 -0.03575,0.0894 0,0.19261 0,0.2889 0,0.48144 0,0.96292 0,1.44442 0,0.57775 0,1.15553 0,1.73328 0,0.90519 -0.0829,1.73236 0.288798,2.59997 0.136738,0.31911 0.422377,0.5561 0.577602,0.86664 0.272285,0.54472 0.275533,1.20451 0.577606,1.73327 0.523266,0.91602 0.997022,1.12799 1.444001,2.02221 0.136158,0.27237 0.132184,0.60554 0.288802,0.86665 0.140088,0.23355 0.433291,0.34677 0.577603,0.57776 0.34226,0.54777 0.50819,1.19581 0.866403,1.73328 0.41706,0.62576 0.967892,1.15121 1.444005,1.73333 1.478919,1.80806 1.019401,1.51767 3.176813,3.17767 0.628063,0.48326 3.087216,2.04412 3.754412,2.31111 0.73706,0.29491 1.57336,0.28284 2.31041,0.57773 0.72061,0.28834 1.30098,0.8672 2.0216,1.15554 0.73707,0.29491 1.54337,0.37317 2.31041,0.5778 0.67716,0.18071 1.36072,0.34443 2.0216,0.57774 0.97773,0.34517 1.87342,0.94187 2.88802,1.1555 0.84781,0.17858 1.73756,-0.0908 2.5992,0 0.97635,0.10284 1.91071,0.48467 2.88801,0.57777 1.05419,0.1006 2.11789,0 3.17681,0 0.96268,0 1.92534,0 2.88801,0 0.96268,0 1.93011,0.0957 2.88801,0 1.01662,-0.10177 5.62164,-1.20033 6.35363,-1.44437 1.18723,-0.39589 2.28811,-1.02042 3.4656,-1.44444 1.23199,-0.44366 2.53506,-0.67825 3.75442,-1.15554 1.00229,-0.39231 1.91626,-0.98154 2.88801,-1.4444 1.0502,-0.50026 2.12662,-0.94418 3.17681,-1.44444 0.30757,-0.14655 4.31487,-2.09652 4.9096,-2.59992 0.67753,-0.57347 1.12889,-1.37161 1.73283,-2.02218 0.64846,-0.69857 1.30931,-1.38886 2.0216,-2.02218 1.55944,-1.38658 -0.47525,2.68403 2.02161,-2.31106 0.31342,-0.62703 0.32602,-1.3679 0.57761,-2.02219 0.23192,-0.60292 0.66218,-1.12049 0.86637,-1.73328 0.18514,-0.55567 0.15724,-1.16255 0.28881,-1.73329 0.60555,-2.62475 0.699,-1.65584 1.15521,-4.62215 0.0585,-0.38071 0,-0.77034 0,-1.15553 0,-1.15552 0,-2.31105 0,-3.46659 0,-1.54072 0,-3.08141 0,-4.62212 0,-0.38517 0.0425,-0.77272 0,-1.15555 -0.0543,-0.488 -0.24435,-0.95543 -0.28881,-1.44439 -0.0521,-0.57544 0.16992,-1.18106 0,-1.7333 -0.2283,-0.74203 -0.88995,-1.29259 -1.15521,-2.02219 -0.13144,-0.36198 0.0754,-0.77783 0,-1.15553 -0.11937,-0.59721 -0.36949,-1.16096 -0.57757,-1.73331 -0.17709,-0.48733 -0.38505,-0.96293 -0.57761,-1.44438 -0.38507,-0.5778 -0.8882,-1.09232 -1.15522,-1.73332 -1.16354,-2.79332 0.56419,-0.74236 -0.86638,-2.88883 -0.34195,-0.51304 -0.77677,-0.95769 -1.15522,-1.44437 -0.2955,-0.38008 -0.54944,-0.79321 -0.86641,-1.15557 -0.71719,-0.8199 -1.54027,-1.54071 -2.3104,-2.31108 -0.38507,-0.38515 -0.74537,-0.79681 -1.15522,-1.15553 -0.36221,-0.31705 -0.79295,-0.54959 -1.15519,-0.86663 -0.40981,-0.35871 -0.71955,-0.82869 -1.15521,-1.15553 -0.85139,-0.63873 -1.15413,-0.49476 -2.0216,-0.86664 -0.39569,-0.16962 -0.77886,-0.36862 -1.15522,-0.57779 -0.49066,-0.27269 -0.91839,-0.66947 -1.44398,-0.86665 -0.27041,-0.10167 -0.58322,0.0565 -0.86642,0 -0.21107,-0.0422 -0.36651,-0.24666 -0.57761,-0.28886 -0.28316,-0.0569 -0.59824,0.10726 -0.86637,0 -0.25284,-0.10103 -0.31929,-0.49163 -0.57762,-0.57777 -0.36531,-0.12187 -0.774,0.0544 -1.15518,0 -0.30139,-0.043 -0.56791,-0.22919 -0.86642,-0.28889 -0.18877,-0.0378 -0.38507,0 -0.57761,0 -0.19265,-0.0962 -0.37339,-0.22071 -0.5776,-0.28888 -0.0912,-0.0305 -0.19262,0 -0.2888,0 -0.19262,0 -0.38508,0 -0.57759,0 -0.48134,0 -0.96271,0 -1.44402,0 -0.19261,0 -0.38506,0 -0.5776,0 -0.0963,0 -0.19749,0.0305 -0.28881,0 -0.20428,-0.068 -0.37336,-0.22072 -0.57758,-0.28889 -0.26941,-0.09 -1.1771,0.0889 -1.44403,0 -0.25829,-0.086 -0.33404,-0.45595 -0.57759,-0.57774 -0.0862,-0.043 -0.19747,0.0305 -0.28878,0 -0.20429,-0.0679 -0.3734,-0.2207 -0.57761,-0.2889 -0.17062,-0.057 -1.28264,0 -1.44401,0 -0.96268,0 -1.92534,0 -2.88802,0 -0.15289,0 -0.74992,0.05 -0.86638,0 -0.59358,-0.25444 -1.08704,-0.86666 -1.73282,-0.86666 -0.48132,0 -0.71278,0.67699 -1.1552,0.86666 -0.26545,0.11382 -0.5776,0 -0.8664,0 -0.57761,0 -1.15521,0 -1.7328,0"
       style="fill:#a68d70;fill-opacity:1;stroke:none;stroke-width:1;stroke-linecap:butt;stroke-linejoin:miter;stroke-miterlimit:4;stroke-dasharray:none;stroke-opacity:1" />
    <path
       inkscape:connector-curvature="0"
       id="path3003"
       d="m 129.8171,776.42932 c -0.48134,-0.28886 -0.94195,-0.61554 -1.44401,-0.86663 -0.0648,-0.0324 -1.08658,0 -1.15522,0 -0.27199,0 -1.2797,-0.0547 -1.44399,0 -0.12905,0.043 -0.19265,0.19259 -0.28881,0.28888 -0.0963,0.0961 -0.24573,0.15973 -0.28877,0.28889 -0.0441,0.13226 0,1.28316 0,1.44439 0,0.28889 -0.0477,0.58173 0,0.86665 0.0415,0.24969 0.37555,1.17499 0.57758,1.4444 0.46872,0.62518 1.59917,1.49616 2.3104,1.73331 0.18706,0.0625 1.20757,0 1.44401,0 0.23654,0 1.25691,0.0625 1.444,0 0.72778,-0.24265 1.21036,-0.92183 1.73282,-1.44443 0.1301,-0.13004 0.82244,-0.73477 0.86639,-0.86664 0.0609,-0.18266 0.0467,-0.39089 0,-0.57774 -0.0521,-0.20883 -0.1365,-0.42552 -0.28881,-0.57777 -0.0679,-0.0679 -0.19748,0.0305 -0.28881,0 -0.20426,-0.0679 -0.3777,-0.20882 -0.57757,-0.28889 -0.28267,-0.11322 -0.60029,-0.1409 -0.86642,-0.28889 -0.60683,-0.33721 -1.10082,-0.8682 -1.73279,-1.15553 -3.62494,-1.64815 0.18899,0.67237 -2.31043,-0.57775 -0.12176,-0.0611 -0.17564,-0.21343 -0.2888,-0.28888 -0.49776,-0.33195 -0.43652,-0.2889 -0.86639,-0.2889"
       style="fill:#000000;fill-opacity:1;stroke:#000000;stroke-width:1;stroke-linecap:butt;stroke-linejoin:miter;stroke-miterlimit:4;stroke-dasharray:none;stroke-opacity:1" />
    <path
       inkscape:connector-curvature="0"
       id="path3005"
       d="m 94.005777,773.2516 c -0.635032,0.0219 -1.719989,-0.15417 -2.310409,0.28889 -0.172213,0.12915 -0.169398,0.39861 -0.2888,0.57776 -0.07552,0.11337 -0.227909,0.16719 -0.288801,0.2889 -0.05262,0.10529 0,1.27794 0,1.44442 0,0.86665 0,1.73328 0,2.59993 0,0.25821 -0.04603,1.35233 0,1.4444 0.0609,0.12185 0.159633,0.33195 0.288801,0.28888 0.557252,-0.18581 0.754915,-0.99833 0.866403,-1.44438 0.07004,-0.28027 -0.05665,-0.58341 0,-0.86666 0.05972,-0.29857 0.152648,-0.5943 0.2888,-0.86665 0.155219,-0.31054 0.399022,-0.5689 0.577604,-0.86663 0.110764,-0.18461 0.169398,-0.39861 0.2888,-0.57777 0.07553,-0.11337 0.255779,-0.15678 0.2888,-0.2889 0.165104,-0.66058 0.192537,-1.34811 0.288802,-2.02219 z"
       style="fill:#000000;fill-opacity:1;stroke:#000000;stroke-width:1;stroke-linecap:butt;stroke-linejoin:miter;stroke-miterlimit:4;stroke-dasharray:none;stroke-opacity:1" />
    <path
       inkscape:connector-curvature="0"
       id="path3007"
       d="m 102.09221,787.98462 c 0.38507,-0.0964 1.05893,-0.67404 1.1552,-0.28886 0.0962,0.38517 -0.77013,0.1926 -1.1552,0.28886 z"
       style="fill:none;stroke:#000000;stroke-width:1;stroke-linecap:butt;stroke-linejoin:miter;stroke-miterlimit:4;stroke-dasharray:none;stroke-opacity:1" />
    <path
       inkscape:connector-curvature="0"
       id="path3009"
       d="m 110.46744,786.82911 c 0.48133,0.28888 0.92806,0.64545 1.444,0.86665 0.17696,0.0759 0.38507,0 0.57759,0 0.0963,0 -0.20032,0.0381 -0.28879,0 -0.59356,-0.25445 -1.09582,-0.97286 -1.7328,-0.86665 -0.37984,0.0635 0,0.77034 0,1.15551"
       style="fill:none;stroke:#000000;stroke-width:1;stroke-linecap:butt;stroke-linejoin:miter;stroke-miterlimit:4;stroke-dasharray:none;stroke-opacity:1" />
    <path
       inkscape:connector-curvature="0"
       id="path3011"
       d="m 108.73462,792.02898 c 0.16593,0.66392 0.42917,1.32014 0.2888,2.02218 -0.0422,0.21103 -0.22072,0.37352 -0.2888,0.5778 -0.0305,0.0913 0,0.1926 0,0.28889 0,0.28888 0.041,0.58063 0,0.86664 -0.0561,0.39303 -0.21095,0.76621 -0.28878,1.15549 -0.0189,0.0945 0.0305,0.19745 0,0.28891 -0.0681,0.20425 -0.24661,0.36661 -0.28881,0.57777 -0.001,0.007 0.0279,1.98032 0,2.02217 -0.15103,0.22651 -0.42658,0.35114 -0.57761,0.5778 -0.0414,0.062 0,0.96927 0,1.1555"
       style="fill:none;stroke:#000000;stroke-width:1;stroke-linecap:butt;stroke-linejoin:miter;stroke-miterlimit:4;stroke-dasharray:none;stroke-opacity:1" />
    <path
       inkscape:connector-curvature="0"
       id="path3013"
       d="m 117.10985,792.60676 c 0.5776,-0.0964 1.15083,-0.2241 1.73282,-0.28889 0.28703,-0.032 0.57758,0 0.86639,0 0.48134,0 0.96267,0 1.44401,0 1.05894,0 2.11786,0 3.17681,0"
       style="fill:none;stroke:#000000;stroke-width:1;stroke-linecap:butt;stroke-linejoin:miter;stroke-miterlimit:4;stroke-dasharray:none;stroke-opacity:1" />
    <path
       inkscape:connector-curvature="0"
       id="path3015"
       d="m 115.37704,796.93998 c 2.40668,0 4.81336,0 7.22002,0 0.77015,0 1.54029,0 2.31044,0 0.38504,0 0.79765,-0.14283 1.15518,0 0.19992,0.0799 0.19265,0.3852 0.2888,0.57777"
       style="fill:none;stroke:#000000;stroke-width:1;stroke-linecap:butt;stroke-linejoin:miter;stroke-miterlimit:4;stroke-dasharray:none;stroke-opacity:1" />
    <path
       inkscape:connector-curvature="0"
       id="path3019"
       d="m 115.37704,801.85101 c 1.65928,0 1.0135,-0.21536 2.02161,0.28889 0.19254,0.0964 0.3734,0.22071 0.57761,0.28889 0.0914,0.0305 0.2027,-0.043 0.2888,0 0.12176,0.0611 0.19253,0.19259 0.28881,0.28891 0.0963,0.0962 0.19253,0.19258 0.2888,0.28887"
       style="fill:none;stroke:#000000;stroke-width:1;stroke-linecap:butt;stroke-linejoin:miter;stroke-miterlimit:4;stroke-dasharray:none;stroke-opacity:1" />
    <path
       inkscape:connector-curvature="0"
       id="path3021"
       d="m 102.95861,793.47342 c -1.05895,0 -2.11787,0 -3.176807,0 -0.288812,0 -0.592427,-0.0913 -0.866407,0 -0.129176,0.043 -0.192535,0.19258 -0.288801,0.28887 -0.09627,0.0964 -0.192536,0.19261 -0.28881,0.28887"
       style="fill:none;stroke:#000000;stroke-width:1;stroke-linecap:butt;stroke-linejoin:miter;stroke-miterlimit:4;stroke-dasharray:none;stroke-opacity:1" />
    <path
       inkscape:connector-curvature="0"
       id="path3023"
       d="m 102.95861,795.4956 c -1.10949,1.05482 -1.58819,1.29989 -2.88801,1.73329 -0.288797,0.0964 -0.571072,0.21513 -0.86641,0.28886 -0.558632,0.13971 -0.303938,-0.27371 -0.866405,0.28891"
       style="fill:none;stroke:#000000;stroke-width:1;stroke-linecap:butt;stroke-linejoin:miter;stroke-miterlimit:4;stroke-dasharray:none;stroke-opacity:1" />
    <path
       inkscape:connector-curvature="0"
       id="path3025"
       d="m 104.11382,798.09552 c -0.0124,1.814 -0.99948,0.31099 -1.44401,0.57778 -0.41274,0.24772 -0.74246,0.61893 -1.1552,0.86666 -0.0826,0.0497 -0.2027,-0.043 -0.28881,0 -0.12177,0.0611 -0.15963,0.24582 -0.2888,0.28887 -0.18267,0.0611 -0.38506,0 -0.5776,0 -0.19254,0.0964 -0.385064,0.19261 -0.577597,0.28887"
       style="fill:none;stroke:#000000;stroke-width:1;stroke-linecap:butt;stroke-linejoin:miter;stroke-miterlimit:4;stroke-dasharray:none;stroke-opacity:1" />
    <path
       inkscape:connector-curvature="0"
       id="path3027"
       d="m 136.17071,759.09638 c 0.0134,-0.85534 -0.17373,-1.32829 0.2888,-2.02221 0.0754,-0.11337 0.22782,-0.16718 0.28882,-0.28887 0.0862,-0.17222 -0.0862,-0.40551 0,-0.57776 0.31926,-0.63874 0.17928,-0.0896 0.57759,-0.28888 0.25597,-0.12795 0.60351,-0.69135 0.86641,-0.86667 1.45897,-0.97289 0.007,-0.001 0.8664,-0.28889 0.20429,-0.0679 0.36878,-0.23668 0.57759,-0.28887 0.28019,-0.07 0.57762,0 0.86641,0 0.67389,0 1.34775,0 2.02161,0 0.48136,0 0.96267,0 1.44398,0 0.19265,0 0.3851,0 0.57763,0 0.0963,0 0.20283,-0.043 0.28879,0 0.3311,0.16562 0.40174,0.60275 0.5776,0.86666 0.17375,0.26049 1.09905,0.98698 1.15522,1.15551 0.0609,0.18268 -0.0609,0.39508 0,0.57777 0.0862,0.25839 0.4915,0.31939 0.57758,0.57777 0.0607,0.18266 0,0.38519 0,0.57779 0,0.0962 -0.0433,0.20276 0,0.28885 0.12176,0.24364 0.42658,0.35116 0.57761,0.5778 0.97265,1.45935 0.001,0.007 0.2888,0.8666 0.0681,0.20425 0.20889,0.37784 0.2888,0.57778 0.11313,0.28274 0.17565,0.58393 0.28881,0.86666 0.15984,0.39984 0.38507,0.77034 0.57762,1.15553 0.0963,0.1926 0.1694,0.39859 0.28876,0.57777 0.0754,0.11337 0.24576,0.15972 0.28881,0.28888 0.0609,0.18267 -0.0466,0.39094 0,0.57778 0.0521,0.20883 0.22078,0.37348 0.2888,0.57777 0.0624,0.18679 0,1.12899 0,1.4444 0,0.25033 0.0558,0.98818 0,1.15554 -0.0679,0.20422 -0.23653,0.36887 -0.2888,0.57776 -0.0466,0.18677 0.0862,0.40551 0,0.57774 -0.18267,0.36542 -0.57757,0.57776 -0.86638,0.86666 -0.4868,0.48694 -1.0679,1.27813 -1.73283,1.44444 -0.18681,0.0467 -0.39494,-0.0607 -0.57758,0 -0.22757,0.0758 -0.87752,1.01665 -1.15522,1.15553 -0.0862,0.043 -0.20282,-0.043 -0.2888,0 -0.12177,0.0607 -0.16697,0.22795 -0.2888,0.2889 -0.0862,0.043 -0.2028,-0.043 -0.28879,0 -0.12176,0.0607 -0.16696,0.22796 -0.28882,0.28888 -0.27228,0.13613 -0.59409,0.15261 -0.86639,0.28885 -0.34655,0.17327 -0.51985,0.69333 -0.8664,0.86664 -0.17218,0.086 -0.39495,-0.0607 -0.57761,0 -0.20427,0.068 -0.38507,0.19262 -0.57762,0.28888 -0.2888,0.0962 -0.57757,0.1926 -0.86638,0.28888"
       style="fill:#8f7454;fill-opacity:1;stroke:none;stroke-width:1;stroke-linecap:butt;stroke-linejoin:miter;stroke-miterlimit:4;stroke-dasharray:none;stroke-opacity:1" />
    <path
       inkscape:connector-curvature="0"
       id="path3031"
       d="m 176.02524,716.05284 c 0.19264,-0.38518 0.35611,-0.78628 0.57762,-1.15554 0.0701,-0.11679 0.18412,-0.20157 0.2888,-0.28889 0.47352,-0.39473 0.93112,-0.81351 1.44399,-1.15553 0.64578,-0.43064 1.39576,-0.69641 2.0216,-1.15553 0.82524,-0.60534 1.46715,-1.44229 2.31042,-2.02219 0.70955,-0.48794 1.6216,-0.63875 2.31041,-1.15553 0.49314,-0.36993 0.66206,-1.07445 1.15519,-1.44439 0.31756,-0.23816 0.77868,-0.16336 1.15522,-0.2889 0.4918,-0.16405 0.95218,-0.41379 1.444,-0.57778 0.1987,-0.0663 0.696,0.0852 0.8664,0 0.77563,-0.38792 -0.2072,-0.2052 0.2888,-0.86664 0.20817,-0.27776 0.58875,-0.36943 0.86642,-0.57776 0.10896,-0.0815 0.17565,-0.21343 0.28881,-0.2889 0.17903,-0.11947 0.39847,-0.16927 0.57759,-0.28887 0.11327,-0.0756 0.19263,-0.19261 0.28881,-0.28891 0.19263,-0.19259 0.38504,-0.38514 0.57758,-0.57775"
       style="fill:none;stroke:#000000;stroke-width:1;stroke-linecap:butt;stroke-linejoin:miter;stroke-miterlimit:4;stroke-dasharray:none;stroke-opacity:1" />
    <path
       inkscape:connector-curvature="0"
       id="path3033"
       d="m 188.44367,727.89704 c 0.48137,-0.28889 1.0128,-0.5072 1.44402,-0.86665 0.73212,-0.61027 1.34775,-1.34813 2.02163,-2.02221 1.73281,-1.7333 3.51059,-3.42272 5.19841,-5.19987 0.98569,-1.03786 1.90536,-2.13699 2.88802,-3.17771 1.76005,-1.8641 2.45191,-2.25176 4.04321,-4.33325 5.84979,-7.65193 -1.31505,0.73764 3.1768,-3.75546 0.64197,-0.64216 0.83007,-1.50757 1.73279,-1.73333 0.18684,-0.0467 0.38508,0 0.57763,0"
       style="fill:none;stroke:#000000;stroke-width:1;stroke-linecap:butt;stroke-linejoin:miter;stroke-miterlimit:4;stroke-dasharray:none;stroke-opacity:1" />
    <path
       inkscape:connector-curvature="0"
       id="path3035"
       d="m 209.81499,718.36389 c 0.53313,-0.31746 1.1774,0.1587 1.73279,0 1.20252,-0.34369 1.82526,-0.79025 2.88799,-1.44442 5.2648,-3.24078 -1.09538,0.74437 5.48724,-4.04437 1.01508,-0.73845 2.1784,-1.26128 3.17679,-2.02217 1.03022,-0.78515 1.8104,-1.88131 2.88802,-2.59993 0.0134,-0.0107 5.39551,-2.46155 5.77604,-2.59997 0.96904,-0.3525 0.2945,0.56635 0.86638,-0.57777"
       style="fill:none;stroke:#000000;stroke-width:1;stroke-linecap:butt;stroke-linejoin:miter;stroke-miterlimit:4;stroke-dasharray:none;stroke-opacity:1" />
    <path
       inkscape:connector-curvature="0"
       id="path3037"
       d="m 218.47899,732.51916 c 0.38507,0.0961 0.766,0.36674 1.15521,0.28887 2.81236,-0.56263 5.12047,-2.32207 7.50882,-3.75548 1.444,-0.86663 2.86991,-1.76421 4.33202,-2.59995 1.23408,-0.7054 2.55525,-1.25885 3.75441,-2.02216 3.96707,-2.52524 1.28858,-1.31722 4.62083,-4.04436 1.27696,-0.63869 0.85079,-0.27326 1.44399,-0.86666"
       style="fill:none;stroke:#000000;stroke-width:1;stroke-linecap:butt;stroke-linejoin:miter;stroke-miterlimit:4;stroke-dasharray:none;stroke-opacity:1" />
    <path
       inkscape:connector-curvature="0"
       id="path3039"
       d="m 220.50062,741.76341 c 0.77012,0.0962 1.53427,0.28887 2.31038,0.28887 0.49087,0 0.95461,-0.25124 1.44401,-0.28887 0.76788,-0.0591 1.54029,0 2.31039,0 1.73284,0 3.46564,0 5.19846,0"
       style="fill:none;stroke:#000000;stroke-width:1;stroke-linecap:butt;stroke-linejoin:miter;stroke-miterlimit:4;stroke-dasharray:none;stroke-opacity:1" />
    <path
       inkscape:connector-curvature="0"
       id="path3041"
       d="m 225.69903,754.47423 c 0.96268,0.0961 1.92162,0.24284 2.88799,0.28887 1.05777,0.0503 2.1179,0 3.17684,0 2.79172,0 5.58347,0 8.37523,0 0.86637,0 1.7328,0 2.59921,0 0.57761,0 1.15518,0 1.7328,0 0.0963,0 0.19263,0 0.28877,0 0.0963,0 0.20282,-0.043 0.28882,0 0.12175,0.0607 0.19262,0.19261 0.28881,0.28889"
       style="fill:none;stroke:#000000;stroke-width:1;stroke-linecap:butt;stroke-linejoin:miter;stroke-miterlimit:4;stroke-dasharray:none;stroke-opacity:1" />
    <path
       inkscape:connector-curvature="0"
       id="path3043"
       d="m 229.74223,766.60731 c 0.62299,1.24629 0.5577,1.69343 2.31043,2.02217 0.94617,0.17758 1.93597,-0.14284 2.88798,0 0.99395,0.14931 1.92537,0.57777 2.88803,0.86667 5.72817,1.71895 0.27025,0.12988 5.19843,1.44441 0.67713,0.18073 1.34169,0.40773 2.02159,0.57777 2.8333,0.7085 1.95609,-0.0656 2.88802,0.86667"
       style="fill:none;stroke:#000000;stroke-width:1;stroke-linecap:butt;stroke-linejoin:miter;stroke-miterlimit:4;stroke-dasharray:none;stroke-opacity:1" />
    <path
       inkscape:connector-curvature="0"
       id="path3045"
       d="m 154.94279,739.74122 c -2.53525,-3.80392 0.0134,-0.2241 -2.02163,-2.59996 -0.31325,-0.36557 -0.59939,-0.75494 -0.86639,-1.15552 -0.50377,-0.75587 -0.85902,-1.61617 -1.44401,-2.31107 -0.96464,-1.14582 -2.11787,-2.11848 -3.17682,-3.1777 -3.27306,-3.27401 -6.54613,-6.54802 -9.81922,-9.82203"
       style="fill:none;stroke:#000000;stroke-width:1;stroke-linecap:butt;stroke-linejoin:miter;stroke-miterlimit:4;stroke-dasharray:none;stroke-opacity:1" />
    <path
       inkscape:connector-curvature="0"
       id="path3047"
       d="m 134.72672,737.14126 c -0.71303,-0.63675 -1.67182,-1.89876 -2.59921,-2.31105 -0.44856,-0.1994 -1.01181,-0.0562 -1.44402,-0.2889 -0.8476,-0.45653 -1.51713,-1.18775 -2.3104,-1.73328 -0.74839,-0.51466 -1.56846,-0.92053 -2.31041,-1.44443 -0.89671,-0.63312 -1.68595,-1.41314 -2.59921,-2.02218 -1.47862,-0.98601 -3.3401,-1.7626 -4.9096,-2.59994 -5.87829,-3.13597 2.64854,1.09108 -4.90961,-2.31104 -1.76672,-0.79526 -3.46563,-1.73333 -5.19842,-2.59995"
       style="fill:none;stroke:#000000;stroke-width:1;stroke-linecap:butt;stroke-linejoin:miter;stroke-miterlimit:4;stroke-dasharray:none;stroke-opacity:1" />
    <path
       inkscape:connector-curvature="0"
       id="path3049"
       d="m 120.86427,738.29678 c -6.56605,-0.72975 1.62413,0.25655 -5.48723,-0.86664 -0.86106,-0.13599 -1.74439,-0.1177 -2.5992,-0.28888 -3.04022,-0.60822 -0.93167,-0.57778 -2.0216,-0.57778"
       style="fill:none;stroke:#000000;stroke-width:1;stroke-linecap:butt;stroke-linejoin:miter;stroke-miterlimit:4;stroke-dasharray:none;stroke-opacity:1" />
    <path
       inkscape:connector-curvature="0"
       id="path3051"
       d="m 145.70114,718.65278 c -0.18147,-0.75746 0.10896,-1.54847 0,-2.31109 0.0274,-0.73145 -0.46236,-1.33066 -0.5776,-2.02216 -0.1109,-0.66488 0.0746,-1.35225 0,-2.02218 -0.0543,-0.48802 -0.2346,-0.95642 -0.2888,-1.44442 -0.0427,-0.38284 0,-0.77034 0,-1.15553 0,-0.48147 0,-0.96294 0,-1.4444"
       style="fill:none;stroke:#000000;stroke-width:1;stroke-linecap:butt;stroke-linejoin:miter;stroke-miterlimit:4;stroke-dasharray:none;stroke-opacity:1" />
    <path
       inkscape:connector-curvature="0"
       id="path3053"
       d="m 160.1412,714.8973 c 0,-3.53797 -0.12177,0.85263 0.28881,-2.0222 0.0543,-0.38128 0,-0.77035 0,-1.15552 0,-1.15553 0,-2.31107 0,-3.46658 0,-3.5629 0,-7.12578 0,-10.68869"
       style="fill:none;stroke:#000000;stroke-width:1;stroke-linecap:butt;stroke-linejoin:miter;stroke-miterlimit:4;stroke-dasharray:none;stroke-opacity:1" />
    <path
       inkscape:connector-curvature="0"
       id="path3055"
       d="m 160.71881,732.80803 c 0.48133,-0.48148 1.03557,-0.8997 1.44399,-1.44443 0.1827,-0.2436 0.16888,-0.58674 0.28881,-0.86663 0.16958,-0.39582 0.33878,-0.79721 0.57761,-1.15555 2.9443,-4.41772 -0.97159,2.41401 2.59921,-3.75547 0.60435,-1.04419 1.07387,-2.16709 1.73278,-3.17769 0.78882,-1.20987 1.75547,-2.29441 2.59921,-3.46661 0.8894,-1.23562 1.73283,-2.50365 2.59921,-3.75547 0.89903,-1.29895 4.36702,-6.44381 5.48722,-7.51094 0.90893,-0.8659 2.14855,-1.30221 3.17683,-2.02221 2.47478,-1.73285 4.66496,-3.86236 7.21999,-5.48875 0.36323,-0.23114 0.77017,-0.38519 1.15522,-0.57777"
       style="fill:none;stroke:#000000;stroke-width:1;stroke-linecap:butt;stroke-linejoin:miter;stroke-miterlimit:4;stroke-dasharray:none;stroke-opacity:1" />
    <path
       inkscape:connector-curvature="0"
       id="path3057"
       d="m 198.84053,751.58542 c 1.22368,-1.1982 2.83245,-1.96659 4.0432,-3.17774 0.53168,-0.53176 0.87318,-1.24383 1.44399,-1.73329 0.79063,-0.67783 1.76094,-1.11542 2.59924,-1.7333 11.2685,-8.30545 -5.00246,3.14331 5.77601,-4.04435 1.34243,-0.89518 3.12658,-2.37041 4.33201,-3.4666 0.90666,-0.82445 1.73281,-1.73331 2.59922,-2.59993"
       style="fill:none;stroke:#000000;stroke-width:1;stroke-linecap:butt;stroke-linejoin:miter;stroke-miterlimit:4;stroke-dasharray:none;stroke-opacity:1" />
    <path
       inkscape:connector-curvature="0"
       id="path3059"
       d="m 198.55173,753.89646 c 0.38507,0.48148 0.67053,1.06348 1.15521,1.44443 3.41711,2.68564 8.06895,3.55323 12.12964,4.62209 1.82907,0.4815 3.65814,0.96296 5.48722,1.44444 1.82907,0.48146 3.63065,1.08331 5.4872,1.44442 1.61753,0.31461 3.27627,0.35994 4.90963,0.57776 1.25508,0.16735 2.52266,0.28443 3.75441,0.57778 4.08982,0.97404 0.5625,0.75883 4.33201,1.44441 1.57831,0.28706 0.78145,-0.37384 1.44402,0.28886"
       style="fill:none;stroke:#000000;stroke-width:1;stroke-linecap:butt;stroke-linejoin:miter;stroke-miterlimit:4;stroke-dasharray:none;stroke-opacity:1" />
    <path
       inkscape:connector-curvature="0"
       id="path3061"
       d="m 193.06451,774.9849 c 1.86197,0.62085 1.30229,0.147 2.0216,0.86667 0.0963,0.0961 0.22782,0.1672 0.28882,0.28889 0.0432,0.086 -0.0433,0.20277 0,0.28886 0.0609,0.12186 0.22781,0.16721 0.28879,0.2889 0.13606,0.27234 0.13219,0.60552 0.28881,0.86663 0.14007,0.23356 0.45583,0.33416 0.57762,0.57778 0.0862,0.17223 -0.076,0.40072 0,0.57777 1.69225,3.94974 0.0336,-0.79907 1.73277,2.59994 0.17759,0.35511 0.11134,0.80041 0.28881,1.15553 0.10359,0.20713 0.9107,0.91096 1.15521,1.15555"
       style="fill:none;stroke:#000000;stroke-width:1;stroke-linecap:butt;stroke-linejoin:miter;stroke-miterlimit:4;stroke-dasharray:none;stroke-opacity:1" />
  </g>
  <g
     style="display:inline"
     inkscape:label="Smile"
     id="layer2"
     inkscape:groupmode="layer">
    <g
       id="g856"
       transform="matrix(-0.94184801,0.13075978,0.13159888,0.93051732,74.238801,-28.18151)"
       style="stroke-width:1.05785;stroke-miterlimit:4;stroke-dasharray:none">
      <path
         style="fill:#ffffff;fill-opacity:1;stroke:#000000;stroke-width:1.05785;stroke-linecap:butt;stroke-linejoin:miter;stroke-miterlimit:4;stroke-dasharray:none;stroke-opacity:1"
         d="m 38.742559,117.92857 c 0,0 10.583333,5.29167 27.592263,4.91369 17.008927,-0.37798 20.032736,-10.58333 20.032736,-10.58333 0,0 -0.377976,30.23809 -18.898809,28.72619 -18.520833,-1.51191 -28.72619,-23.05655 -28.72619,-23.05655 z"
         id="path835" />
      <path
         style="fill:none;stroke:#000000;stroke-width:1.05785;stroke-linecap:butt;stroke-linejoin:miter;stroke-miterlimit:4;stroke-dasharray:none;stroke-opacity:1"
         d="m 67.468749,122.84226 1.511906,18.14286"
         id="path837" />
      <path
         style="fill:none;stroke:#000000;stroke-width:1.05785;stroke-linecap:butt;stroke-linejoin:miter;stroke-miterlimit:4;stroke-dasharray:none;stroke-opacity:1"
         d="m 74.405957,121.92974 1.756244,16.78752"
         id="path839"
         sodipodi:nodetypes="cc" />
      <path
         style="fill:none;stroke:#000000;stroke-width:1.05785;stroke-linecap:butt;stroke-linejoin:miter;stroke-miterlimit:4;stroke-dasharray:none;stroke-opacity:1"
         d="m 79.808329,119.68482 2.157149,12.00746"
         id="path841"
         sodipodi:nodetypes="cc" />
      <path
         style="fill:none;stroke:#000000;stroke-width:1.05785;stroke-linecap:butt;stroke-linejoin:miter;stroke-miterlimit:4;stroke-dasharray:none;stroke-opacity:1"
         d="m 60.798812,122.86518 1.000295,16.98601"
         id="path843"
         sodipodi:nodetypes="cc" />
      <path
         style="fill:none;stroke:#000000;stroke-width:1.05785;stroke-linecap:butt;stroke-linejoin:miter;stroke-miterlimit:4;stroke-dasharray:none;stroke-opacity:1"
         d="m 53.105655,121.97804 0.488682,13.71541"
         id="path845"
         sodipodi:nodetypes="cc" />
      <path
         style="fill:none;stroke:#000000;stroke-width:1.05785;stroke-linecap:butt;stroke-linejoin:miter;stroke-miterlimit:4;stroke-dasharray:none;stroke-opacity:1"
         d="m 47.813989,120.95238 0.133635,9.8503"
         id="path847"
         sodipodi:nodetypes="cc" />
    </g>
  </g>
</svg>
