<?xml version="1.0" encoding="UTF-8" standalone="no"?>
<svg
   xmlns:dc="http://purl.org/dc/elements/1.1/"
   xmlns:cc="http://creativecommons.org/ns#"
   xmlns:rdf="http://www.w3.org/1999/02/22-rdf-syntax-ns#"
   xmlns:svg="http://www.w3.org/2000/svg"
   xmlns="http://www.w3.org/2000/svg"
   xmlns:sodipodi="http://sodipodi.sourceforge.net/DTD/sodipodi-0.dtd"
   xmlns:inkscape="http://www.inkscape.org/namespaces/inkscape"
   inkscape:export-ydpi="96"
   inkscape:export-xdpi="96"
   inkscape:export-filename="C:\Users\ashley\Pictures\Games\CoolSodaCan\export\graphics.unpacked\horse02_smile.png"
   sodipodi:docname="horse02_smile.svg"
   inkscape:version="1.0 (4035a4fb49, 2020-05-01)"
   id="svg9866"
   version="1.1"
   viewBox="0 0 48.643069 34.395835"
   height="130"
   width="183.84782">
  <defs
     id="defs9860" />
  <sodipodi:namedview
     inkscape:document-rotation="0"
     fit-margin-bottom="0"
     fit-margin-right="0"
     fit-margin-left="0"
     fit-margin-top="0"
     inkscape:snap-page="true"
     inkscape:snap-to-guides="false"
     inkscape:snap-grids="false"
     inkscape:window-maximized="1"
     inkscape:window-y="302"
     inkscape:window-x="1072"
     inkscape:window-height="1017"
     inkscape:window-width="1920"
     units="px"
     showgrid="false"
     inkscape:current-layer="layer4"
     inkscape:document-units="px"
     inkscape:cy="79.352941"
     inkscape:cx="71.705455"
     inkscape:zoom="4"
     inkscape:pageshadow="2"
     inkscape:pageopacity="0.0"
     borderopacity="1.0"
     bordercolor="#666666"
     pagecolor="#ffffff"
     id="base" />
  <metadata
     id="metadata9863">
    <rdf:RDF>
      <cc:Work
         rdf:about="">
        <dc:format>image/svg+xml</dc:format>
        <dc:type
           rdf:resource="http://purl.org/dc/dcmitype/StillImage" />
        <dc:title />
      </cc:Work>
    </rdf:RDF>
  </metadata>
  <g
     transform="translate(-99.442994,-22.925368)"
     style="display:inline"
     inkscape:label="horse"
     id="layer8"
     inkscape:groupmode="layer">
    <path
       inkscape:connector-curvature="0"
       id="path11153"
       d="m 127.63931,54.990166 -0.0786,0.733359 -0.13097,0.759549 -0.0524,0.183341 0.0786,0.02619 0.0262,0.05238 0.55002,-0.340488 0.75955,-0.419062 0.52383,-0.314296 0.23572,-0.209531 V 55.06874 54.754443 l -0.83812,-0.05238 -0.41907,0.104766 z"
       style="display:inline;fill:#867152;fill-opacity:1;fill-rule:evenodd;stroke:none;stroke-width:0.264583;stroke-linecap:round;stroke-miterlimit:4;stroke-dasharray:none;stroke-opacity:1" />
    <path
       inkscape:connector-curvature="0"
       id="path11155"
       d="m 138.79684,55.697333 0.39287,0.02619 0.36668,0.104764 0.31429,0.104766 0.39287,0.157148 0.52383,0.261914 0.18334,0.209532 0.0524,0.366678 -0.62859,-0.05238 -0.28811,0.07857 -0.47144,-0.02619 -0.9167,0.07858 -0.89051,-0.05239 c 0,0 -0.39287,-0.157148 -0.26191,-0.235723 0.13096,-0.07857 0.15715,-0.235722 0.2881,-0.288105 0.13096,-0.05238 0.57621,-0.419061 0.57621,-0.419061 z"
       style="display:inline;fill:#867152;fill-opacity:1;fill-rule:evenodd;stroke:none;stroke-width:0.264583;stroke-linecap:round;stroke-miterlimit:4;stroke-dasharray:none;stroke-opacity:1" />
    <path
       inkscape:connector-curvature="0"
       id="path11157"
       d="m 117.29371,56.116395 -0.36668,0.471445 -0.23572,0.419064 -0.18334,0.209528 0.62859,0.104769 0.78574,-0.05238 c 0,0 0.36668,-0.07858 0.49764,-0.05239 0.13096,0.02619 0.70717,-0.05238 0.70717,-0.05238 l 0.26191,-0.07858 -0.13095,-0.130957 -0.26192,-0.340487 -0.89051,-0.419063 -0.2881,-0.104766 h -0.68098 z"
       style="display:inline;fill:#867152;fill-opacity:1;fill-rule:evenodd;stroke:none;stroke-width:0.264583;stroke-linecap:round;stroke-miterlimit:4;stroke-dasharray:none;stroke-opacity:1" />
    <path
       inkscape:connector-curvature="0"
       id="path11159"
       d="m 107.44575,53.54964 -0.55002,0.340488 -0.13095,0.288105 -0.34049,0.314296 -0.26191,0.523828 v 0.209531 l 0.20953,0.261913 0.23572,0.235724 0.20953,0.419061 0.23572,0.183341 0.20953,-0.209532 0.13096,-0.602402 0.13096,-0.419062 0.0786,-0.707167 0.20953,-0.39287 -0.0786,-0.36668 z"
       style="display:inline;fill:#867152;fill-opacity:1;fill-rule:evenodd;stroke:none;stroke-width:0.264583;stroke-linecap:round;stroke-miterlimit:4;stroke-dasharray:none;stroke-opacity:1" />
    <path
       inkscape:connector-curvature="0"
       id="path11162"
       d="m 117.35919,56.142586 0.37978,-0.0131 0.22262,0.06548 0.26192,0.09167 0.31429,0.104766 0.24882,0.144052 0.26192,0.222627 0.18333,0.0131 0.14406,-0.117863 0.0131,-0.275009 -0.37977,-0.353583 0.10476,-0.366679 0.27501,-0.471445 0.22263,-0.27501 c 0,0 0.14405,-0.248817 0.19644,-0.3012 0.0524,-0.05238 0.0917,-0.392871 0.0917,-0.392871 l 0.0131,-0.484541 -0.23572,-0.576211 -0.24882,-0.589305 -0.15714,-0.458349 -0.28811,-0.550019 -0.22263,-0.615498 -0.18334,-0.838124 -0.11786,-0.445253 0.10477,-0.471446 -0.0917,-0.183339 -0.14405,-0.615497 -0.20953,-0.680977 -0.11787,-0.510732 -0.10476,-0.641688 -0.18334,-0.445253 c 0,0 -0.13096,-0.497637 -0.13096,-0.55002 0,-0.05238 -0.15715,-0.550019 -0.15715,-0.550019 l -0.13095,-0.484541 -0.10477,-0.510731 -0.0917,-0.825029 -0.79884,-0.746454 -1.12623,0.235722 -1.11313,0.484541 -0.41906,0.497636 0.2881,0.405966 0.23573,0.209532 0.22262,0.353583 0.26192,0.419063 0.22262,0.458349 0.19644,0.353583 0.20953,0.510731 0.23572,0.497637 0.20953,0.432158 0.27501,0.628592 0.19644,0.510733 0.14405,0.48454 0.3143,0.654785 0.18334,0.523828 0.11786,0.248818 0.17024,0.353583 0.24882,0.405967 0.20953,0.366679 0.11786,0.39287 0.22263,0.563116 0.17024,0.510732 0.11786,0.275009 0.0524,0.248818 0.0786,0.419063 v 0.405966 l -0.0524,0.353583 -0.13096,0.353584 -0.10476,0.261913 -0.22263,0.288106 -0.19644,0.301201 -0.15714,0.130956 z"
       style="display:inline;fill:#af987b;fill-opacity:1;fill-rule:evenodd;stroke:none;stroke-width:0.264583;stroke-linecap:round;stroke-miterlimit:4;stroke-dasharray:none;stroke-opacity:1" />
    <path
       inkscape:connector-curvature="0"
       id="path11164"
       d="m 127.74173,54.606819 -0.14816,0.240762 0.0185,0.12038 c 0,0 0.12038,0.02778 0.1852,0.01852 0.0648,-0.0093 0.34262,-0.0926 0.34262,-0.0926 l 0.62043,-0.11112 0.4167,-0.06482 0.3241,0.03704 0.0741,-0.03704 -0.0741,-0.259282 -0.24076,-0.203722 -0.037,-0.212981 0.25002,-0.231501 c 0,0 0.1389,-0.1852 0.19446,-0.222241 0.0556,-0.03704 0.24076,-0.425962 0.24076,-0.425962 l 0.12038,-0.231501 0.20373,-0.342623 0.25927,-0.425962 0.31485,-0.509303 0.57412,-0.750064 0.37966,-0.555602 0.37967,-0.537084 0.30558,-0.398182 0.3704,-0.398182 0.1389,-0.250022 0.25002,-0.388922 0.19446,-0.259282 c 0,0 0.2315,-0.305581 0.26855,-0.314841 0.037,-0.0093 0.35187,-0.425963 0.35187,-0.425963 0,0 0.10186,-0.101859 0.10186,-0.15742 0,-0.05556 0,-0.277802 0,-0.277802 l -0.12963,-0.370402 -0.31485,-0.444483 -0.37966,-0.703763 -0.33336,-0.583384 -0.16668,-0.481522 c 0,0 -0.14816,-0.379663 -0.14816,-0.416702 0,-0.03704 -0.0833,-0.527823 -0.0833,-0.527823 l -0.0556,-0.259282 -0.0278,-0.370402 0.037,-0.185201 0.0648,-0.351882 0.14816,-1.148246 -1.49087,-1.342708 c 0,0 -1.69459,-0.537082 -1.73163,-0.601903 -0.037,-0.06482 -2.31501,0.490783 -2.31501,0.490783 l -0.40744,0.963045 0.36114,0.833405 0.6945,0.240761 0.2778,0.231502 0.0741,0.129639 0.1389,0.333363 0.1852,0.333362 0.30559,0.574123 0.2315,0.481522 0.24076,0.444483 0.0463,0.157421 0.16668,0.518562 0.21298,0.444483 0.1852,0.305582 0.2778,0.305582 0.22224,0.268541 0.20373,0.398182 0.14816,0.277802 0.0648,0.212981 0.10186,0.342622 0.0648,0.361142 0.0463,0.351882 -0.009,0.342622 -0.14815,0.416703 -0.20373,0.333361 -0.2315,0.416702 -0.3704,0.435222 -0.17594,0.268542 -0.3241,0.416703 -0.41671,0.509302 -0.26854,0.379662 -0.25002,0.296322 -0.26854,0.296322 -0.12964,0.259281 -0.0741,0.296321 0.009,0.231501 -0.0648,0.351882 -0.037,0.296323 -0.0833,0.324101 -0.10186,0.287062 -0.009,0.05556 z"
       style="display:inline;fill:#af987b;fill-opacity:1;fill-rule:evenodd;stroke:none;stroke-width:0.264583;stroke-linecap:round;stroke-miterlimit:4;stroke-dasharray:none;stroke-opacity:1" />
    <path
       inkscape:connector-curvature="0"
       id="path11169"
       d="m 101.90619,22.965224 0.11112,0.259281 0.0926,0.120381 0.2315,0.231501 0.1852,0.148161 0.1852,0.138901 0.35188,0.250021 0.2315,0.148161 0.37041,0.379662 0.34262,0.685244 -0.52782,0.277802 h -0.54635 l -0.33336,-0.500043 -0.0926,-0.268542 -0.0556,-0.12964 -0.24076,-0.351882 -0.12038,-0.342622 -0.10186,-0.388922 -0.0278,-0.194461 -0.0741,-0.259282 -0.0278,-0.0926 z"
       style="display:inline;fill:#7f898b;fill-opacity:1;fill-rule:evenodd;stroke:none;stroke-width:0.264583;stroke-linecap:round;stroke-miterlimit:4;stroke-dasharray:none;stroke-opacity:1" />
    <path
       inkscape:connector-curvature="0"
       id="path11172"
       d="m 101.97101,23.205985 0.11112,0.194461 0.10186,0.185201 0.12038,0.268542 0.0833,0.250021 0.10186,0.166681 0.0278,0.231501 0.0741,0.268542 -0.10186,-0.05556 -0.15742,-0.194462 -0.12038,-0.296321 -0.12038,-0.212981 -0.0463,-0.250022 -0.037,-0.175941 -0.037,-0.212981 v -0.120381 z"
       style="display:inline;fill:#0c0301;fill-opacity:1;fill-rule:evenodd;stroke:none;stroke-width:0.264583;stroke-linecap:round;stroke-miterlimit:4;stroke-dasharray:none;stroke-opacity:1" />
    <path
       inkscape:connector-curvature="0"
       id="path4508"
       d="m 106.15655,55.106862 0.15742,-0.277802 0.14816,-0.25928 0.1389,-0.296322 0.12038,-0.120381 0.18521,-0.138901 0.29632,-0.16668 0.2315,-0.203721 0.0741,-0.08334 -0.11112,-0.203721 -0.0926,-0.157422 -0.21298,-0.0463 -0.42597,0.06482 -0.0278,0.01852 -0.2315,-0.324103 0.0556,-0.111119 0.10186,-0.07408 0.0463,-0.222241 -0.0833,-0.166682 -0.22224,-0.15742 -0.0185,-0.287062 -0.11112,-0.324101 -0.0278,-0.416702 0.009,-0.370402 c 0,0 0.0278,-0.277802 0.0278,-0.314843 0,-0.03704 -0.0185,-0.351882 -0.0185,-0.351882 l 0.0185,-0.324101 0.0741,-0.388923 0.0926,-0.388921 0.0926,-0.268542 0.11112,-0.231501 0.17594,-0.203721 0.17594,-0.203722 0.1852,-0.138901 0.24076,-0.129641 0.25928,-0.1389 0.36115,-0.185201 0.33336,-0.194461 0.34262,-0.06482 0.45374,-0.203721 0.25002,-0.0926 0.50005,-0.222241 0.42596,-0.240761 0.6482,-0.314843 0.33337,-0.194461 0.35188,-0.19446 0.34262,-0.222241 0.35188,-0.212981 0.52782,-0.185202 0.21299,-0.05556 0.40744,-0.0926 0.35188,-0.14816 0.14816,-0.333363 0.0926,-0.25928 0.12964,-0.388923 0.0926,-0.129641 0.17594,-0.03704 0.36114,-0.01852 0.36115,-0.0463 h 0.42596 l 0.54634,0.07408 c 0,0 0.44448,0 0.49079,0 0.0463,0 0.6019,-0.01852 0.6019,-0.01852 l 0.25002,0.01852 h 0.6019 l 0.63895,-0.01852 0.77784,0.01852 0.68525,-0.0463 h 0.3241 l 0.56486,-0.0463 0.47226,-0.06482 0.87045,-0.129641 0.5556,-0.08334 0.75932,-0.175941 0.83341,-0.222241 0.11112,-0.03704 0.57412,-0.175942 0.42596,-0.120379 1.06491,-0.463004 0.2778,-0.1389 0.50005,-0.194462 0.58338,-0.19446 0.43522,-0.0926 0.70376,-0.06482 0.51857,-0.0093 h 0.61116 l 0.43522,0.212982 0.64821,0.1389 0.1852,0.129641 0.2315,0.07408 0.22224,0.120381 0.21298,0.15742 0.2315,0.240761 0.58339,0.527824 0.26854,0.259281 0.40744,0.379663 0.30558,0.333361 0.2778,0.240762 0.14816,0.1852 0.36115,0.388923 0.28706,0.361142 0.2778,0.296321 0.19446,0.277802 0.34262,0.481523 0.24076,0.259281 0.23151,0.203721 0.2315,0.120381 0.26854,0.17594 0.22224,0.212982 0.28706,0.287061 0.10186,0.203721 0.14816,0.240761 0.0648,0.203722 0.10186,0.175941 0.17594,0.19446 0.24076,0.175942 0.12039,0.203722 0.12964,0.268541 0.10186,0.259281 0.037,0.240761 0.0556,0.175941 0.0556,0.240761 0.0648,0.203722 0.14816,0.583384 0.0833,0.370402 0.0648,0.425962 0.037,0.240761 0.0463,0.314841 0.0556,0.379663 0.037,0.324101 0.0278,0.203722 -0.0185,0.194461 0.0278,0.222241 0.0278,0.1852 0.0185,0.166682 0.0278,0.231501 -0.037,0.361142 -0.037,0.138901 -0.0926,0.268542 -0.0926,0.25002 -0.24076,0.324103 -0.0648,0.129641 -0.0185,0.129641 0.12964,0.0463 0.35188,0.120381 c 0,0 0.29632,0.06482 0.33336,0.0926 0.037,0.02778 0.40745,0.185202 0.40745,0.185202 l 0.15742,-0.0093 0.0926,0.08334 0.20372,0.10186 0.20372,0.1389 c 0,0 0.0833,0.05556 0.12038,0.03704 0.037,-0.01852 -0.0278,-0.314842 -0.0278,-0.314842 l -0.1852,-0.268541 -0.24076,-0.333362 0.009,-0.305581 0.0278,-0.148161 0.037,-0.111121 0.14816,-0.250021 0.25003,-0.296323 c 0,0 0.10185,-0.129641 0.16668,-0.19446 0.0648,-0.06482 0.0741,-0.212981 0.0741,-0.212981 V 53.90298 l -0.0278,-0.287062 c 0,0 -0.0185,-0.305581 -0.0926,-0.444482 -0.0741,-0.138901 -0.12964,-0.240761 -0.12964,-0.240761 l -0.0926,-0.361142 -0.15742,-0.518564 -0.0926,-0.629682 -0.0463,-0.546344 -0.0648,-0.324102 -0.10186,-0.481522 -0.12038,-0.574123 -0.0278,-0.370402 -0.0463,-0.388923 -0.0463,-0.203721 -0.0648,-0.370402 -0.0463,-0.463003 -0.0185,-0.259281 -0.0185,-0.324102 0.037,-0.287062 0.0463,-0.222241 -0.0556,-0.25928 -0.1389,-0.250022 -0.1852,-0.120381 -0.33336,-0.342621 -0.19447,-0.175942 -0.29632,-0.277802 -0.25928,-0.324101 -0.39818,-0.509304 -0.25002,-0.25928 -0.16669,-0.287062 -0.16668,-0.231501 -0.18519,-0.388923 -0.0926,-0.222241 -0.0648,-0.259282 -0.0185,-0.361142 0.0556,-0.305581 0.11112,-0.324101 0.0926,-0.361143 0.11112,-0.157421 0.11112,-0.314841 0.037,-0.314843 0.0833,-0.398181 0.0833,-0.407443 0.11112,-0.583383 0.009,-0.314841 0.009,-0.425962 0.0278,-0.527824 0.009,-0.463002 0.0185,-0.398183 -0.0185,-0.435222 0.0278,-0.527823 c 0,0 -0.0926,-0.463003 -0.0926,-0.500042 0,-0.03704 -0.17594,-0.564864 -0.17594,-0.564864 l -0.1852,-0.518562 -0.17594,-0.296323 -0.20372,-0.370402 -0.21298,-0.231501 -0.14816,-0.277801 -0.0741,-0.277802 -0.22224,-0.259281 -0.14817,-0.240762 -0.24075,-0.185201 -0.39819,-0.12964 -0.63894,-0.212982 -0.66673,-0.259281 -0.6482,-0.222241 -0.57412,-0.166681 h -0.4167 l -0.43523,-0.07408 -0.31484,-0.06482 -0.57412,-0.03704 -0.55561,-0.02778 -0.6019,-0.0093 -0.49078,0.01852 -0.74081,0.138901 -0.5556,0.138901 -0.54634,0.157421 -0.60191,0.166681 -0.76858,0.10186 -0.70376,0.120381 -0.83341,0.138901 -0.6019,0.0926 -0.86119,0.129641 -0.6482,0.03704 -0.54634,0.0463 -0.63895,-0.0093 h -0.48152 l -0.76858,-0.08334 -0.53709,-0.06482 -0.67598,-0.203722 -0.40744,-0.212981 -0.34262,-0.203721 -0.48153,-0.296321 -0.6019,-0.296322 -0.6482,-0.351882 -0.44449,-0.138901 -0.3241,-0.212981 -0.53708,-0.351882 -0.31484,-0.296322 -0.42596,-0.324101 -0.22225,-0.250022 -0.5093,-0.583383 -0.33336,-0.379662 -0.57412,-0.518563 -0.65747,-0.555603 -0.53708,-0.481523 -0.54634,-0.333361 -0.52783,-0.416703 -0.6482,-0.333362 -0.59264,-0.259281 -0.42597,-0.212981 -0.3704,-0.194462 -0.463,-0.12964 -0.56486,-0.175941 -0.62043,-0.0926 -0.3704,-0.12038 h -0.15742 l -0.51856,-0.0463 -0.38892,-0.111121 -0.64821,-0.0093 -0.51856,0.0093 -0.28706,-0.03704 h -0.21298 l -0.65747,0.194462 -0.29632,0.1389 -0.25928,0.250022 -0.26854,0.268541 -0.22224,0.342622 -0.17594,0.509303 -0.14817,0.259282 -0.0741,0.268541 -0.11112,0.314842 -0.10186,0.231501 -0.12038,0.231501 -0.20372,0.166681 -0.19446,0.212981 -0.037,0.111121 -0.0648,0.120381 -0.009,0.203721 v 0.120381 l 0.0556,0.240761 v 0.12964 l -0.0463,0.212982 -0.0185,0.185201 -0.0648,0.268541 -0.1389,0.277802 -0.10186,0.305582 -0.10186,0.250021 -0.0648,0.157421 -0.0833,0.259281 -0.0278,0.138901 -0.0648,0.231501 -0.12038,0.175941 -0.12038,0.212981 -0.037,0.166681 -0.11112,0.305582 -0.1389,0.351882 -0.120383,0.287062 -0.120381,0.231501 -0.120381,0.250021 -0.12038,0.277802 -0.08334,0.268541 -0.0093,0.08334 0.0463,0.10186 -0.01852,0.111121 -0.01852,0.314842 0.08334,0.277802 0.05556,0.129641 0.148161,0.25928 0.166682,0.148162 0.157422,0.20372 0.1389,0.111122 0.22224,0.15742 h 0.1852 l 0.14816,0.01852 0.16668,0.01852 0.17594,0.03704 0.17594,0.02778 c 0,0 0.19447,0.03704 0.24076,0.05556 0.0463,0.01852 0.22225,-0.08334 0.22225,-0.08334 l 0.0648,-0.07408 0.12964,-0.1852 0.14816,-0.03704 0.2315,-0.08334 0.14816,-0.148161 0.0463,-0.203721 -0.0278,-0.194462 0.0741,-0.268542 0.0741,-0.24076 0.1389,-0.120381 0.36114,-0.287062 0.25929,-0.240761 0.25928,-0.240762 0.25928,-0.231501 0.33336,-0.277802 0.34262,-0.333361 0.25002,-0.138901 0.19447,-0.120381 0.2778,-0.157421 0.21298,-0.175941 0.10186,-0.07408 0.11112,-0.0926 h 0.0278 l 0.0741,0.0093 0.1389,0.07408 0.0833,0.0926 0.10186,0.12964 0.0926,0.157421 0.12964,0.240762 0.12038,0.370402 0.0648,0.250021 0.0648,0.351882 0.12038,0.379662 0.12038,0.268541 0.11113,0.287063 0.12038,0.379661 0.15742,0.277802 0.16668,0.351882 0.16668,0.342622 0.24076,0.555604 0.1852,0.342621 0.1389,0.259282 0.17594,0.277801 0.1389,0.287062 0.0278,0.231501 -0.009,0.444482 0.0278,0.277802 -0.0185,0.203721 0.009,0.175942 -0.0648,0.731543 0.009,0.277802 -0.009,0.361142 0.0556,0.314841 0.0185,0.342622 0.0648,0.351882 0.0926,0.463002 0.12038,0.416703 0.11112,0.277802 0.15742,0.259281 0.14816,0.240761 0.21298,0.268542 0.21298,0.222241 0.22224,0.212981 -0.29632,0.351882 -0.25002,0.287062 -0.35188,0.370402 -0.51857,0.463003 -0.24076,0.20372 -0.31484,0.287062 -0.31484,0.240762 -0.36114,0.250021 -0.31484,0.212981 -0.28707,0.203721 -0.22224,0.148161 -0.25002,0.166682 -0.21298,0.16668 -0.2778,0.185202 -0.1852,0.212981 -0.10186,0.240761 -0.0648,0.129641 -0.0463,0.1852 -0.17595,0.231501 -0.0463,0.07408 -0.0926,0.120379 -0.0648,0.101862 v 0.222241 l 0.0185,0.212981 0.0185,0.17594 0.0185,0.212982 0.037,0.166681 0.037,0.175941 V 49.3749 l -0.009,0.342623 -0.037,0.222241 -0.0278,0.435222 -0.0185,0.222241 -0.0278,0.370402 -0.0185,0.222241 -0.037,0.240762 -0.037,0.324101 -0.0741,0.361142 -0.037,0.148161 -0.0278,0.166682 -0.0185,0.19446 0.0463,0.157422 0.0926,0.19446 0.15742,0.185201 0.14816,0.175942 0.17594,0.20372 0.17594,0.212981 0.11112,0.222241 0.16668,0.361142 0.12964,0.194462 0.12038,0.231501 0.0556,0.175941 0.0278,0.194462 0.0556,0.05556 z"
       style="display:inline;fill:#c0c0c0;fill-opacity:1;fill-rule:evenodd;stroke:none;stroke-width:0.264583;stroke-linecap:round;stroke-miterlimit:4;stroke-dasharray:none;stroke-opacity:1" />
    <path
       inkscape:connector-curvature="0"
       id="path4541"
       d="m 102.88775,27.933241 0.10649,-0.0093 0.0926,0.0046 0.20373,0.02778 0.0648,0.04167 0.14816,0.129641 0.0278,0.07871 0.0602,0.152791 0.0185,0.14816 0.009,0.148161 -0.0232,0.189831 -0.0833,0.106491 -0.0556,0.07871 -0.14353,0.06945 -0.12501,0.04167 -0.1389,0.0046 -0.22687,-0.04167 -0.17131,-0.07408 -0.15742,-0.13427 -0.0695,-0.199091 v -0.222241 l -0.005,-0.185202 0.0417,-0.129641 0.0833,-0.1389 0.12038,-0.02778 0.10186,-0.01852 z"
       style="display:inline;fill:#000000;fill-opacity:1;fill-rule:evenodd;stroke:#000000;stroke-width:0.264583;stroke-linecap:round;stroke-miterlimit:4;stroke-dasharray:none;stroke-opacity:1" />
    <path
       inkscape:connector-curvature="0"
       id="path4543"
       d="m 100.05418,33.401302 0.18983,0.0463 0.16205,0.0463 0.11112,0.101861 0.0602,0.231501 0.0278,0.134271 0.005,0.12964 v 0.185202 l -0.0648,0.14816 -0.0972,0.111122 -0.14816,0.0463 -0.0417,0.0463 -0.0509,0.03241 c 0,0 -0.0833,-0.05556 -0.10649,-0.07871 -0.0232,-0.02315 -0.138906,-0.189831 -0.138906,-0.189831 l -0.02778,-0.20835 -0.02778,-0.129641 0.0093,-0.208352 c 0,0 -0.0046,-0.09723 0,-0.12501 0.0046,-0.02778 0.04167,-0.143531 0.04167,-0.143531 l 0.03704,-0.07871 0.01852,-0.02315 z"
       style="display:inline;fill:#000000;fill-opacity:1;fill-rule:evenodd;stroke:#000000;stroke-width:0.264583;stroke-linecap:round;stroke-miterlimit:4;stroke-dasharray:none;stroke-opacity:1" />
    <path
       inkscape:connector-curvature="0"
       id="path4545"
       d="m 101.20242,35.244052 0.15279,-0.111121 0.1065,-0.12964 0.0833,-0.111121 0.0741,-0.19446 0.0648,-0.175942 0.0833,-0.16668 0.0602,-0.162052 0.0833,-0.180571 0.0417,-0.166681 0.0556,-0.05093 0.0972,-0.04167 0.0787,0.0093 0.005,-0.0046"
       style="display:inline;fill:none;fill-opacity:1;fill-rule:evenodd;stroke:#000000;stroke-width:0.264583;stroke-linecap:round;stroke-miterlimit:4;stroke-dasharray:none;stroke-opacity:1" />
    <path
       inkscape:connector-curvature="0"
       id="path4526"
       d="m 145.80809,47.976622 0.037,-0.185201 0.30558,0.296322 -0.0648,-0.2315 -0.0648,-0.398183 0.33337,0.379661 0.0833,0.277802 0.16668,-0.06482 0.10185,-0.175941 0.29633,0.148161 -0.037,-0.185202 -0.17595,-0.398181 -0.19446,-0.305581 0.32411,0.11112 0.4167,0.324102 0.11112,-0.07408 -0.12038,-0.222241 -0.0185,-0.185202 0.72228,0.212981 0.0556,0.01852 c 0,0 0,-0.1852 -0.0185,-0.222241 -0.0185,-0.03704 -0.43522,-0.490783 -0.43522,-0.527823 0,-0.03704 -0.25928,-0.305582 -0.25928,-0.305582 l -0.40744,-0.388922 -0.22224,-0.222241 0.38892,0.11112 v -0.12964 l -0.25002,-0.08334 -0.26854,-0.166681 -0.19447,-0.425962 c 0,0 -0.16668,-0.370402 -0.19446,-0.407443 -0.0278,-0.03704 -0.22224,-0.212981 -0.22224,-0.212981 l 0.29632,0.02778 0.16668,-0.08334 -0.48152,-0.101862 -0.20372,-0.129641 0.20372,-0.0463 0.3241,-0.0463 -0.0185,-0.11112 -0.3241,0.07408 -0.36114,-0.250022 -0.25928,-0.407443 -0.2778,-0.546342 -0.29632,-0.444484 -0.19447,-0.490781 -0.0741,-0.398183 -0.0833,-0.342622 -0.12038,-0.287062 -0.35188,-0.981564 -0.12964,-0.370403 -0.21298,-0.416703 -0.20372,-0.555602 -0.30558,-0.425962 c 0,0 -0.46301,-0.453744 -0.51857,-0.500043 -0.0556,-0.0463 -0.28706,-0.259282 -0.28706,-0.259282 l -0.33336,-0.148161 -0.42596,-0.333362 -0.25002,-0.259281 c 0,0 0.36114,0.194461 0.44448,0.240761 0.0833,0.0463 0.12038,-0.0463 0.12038,-0.0463 l -0.38892,-0.342621 -0.24077,-0.333363 -0.52782,-0.388923 -0.43522,-0.435222 -0.34262,-0.398181 -0.52782,-0.444482 -0.56487,-0.407443 -0.42596,-0.305582 -0.40744,-0.324102 -0.31485,-0.222241 -0.37039,-0.222241 -0.24077,-0.157421 -0.22224,-0.0926 -0.25928,-0.111121 -0.44448,-0.148161 0.15742,0.231501 0.2315,0.379662 0.12964,0.240762 0.1852,0.370402 0.2315,0.518563 0.2778,0.370401 0.21298,0.444482 0.0556,0.425963 0.12039,0.370402 0.12038,0.620424 0.0463,0.731543 0.0278,0.731545 -0.12038,0.592643 -0.0278,0.555604 0.25929,0.555602 0.17594,0.05556 -0.0185,-0.509302 0.037,-0.425963 0.29632,1.268628 0.22224,0.490783 0.16668,0.351882 0.28706,0.657463 0.31485,0.453742 0.19446,0.388923 0.59264,0.12038 0.1389,0.0093 -0.20372,-0.259282 -0.25928,-0.203721 -0.25928,-0.185202 0.16668,-0.01852 0.25928,0.15742 0.45374,0.472263 0.47226,0.490783 0.33337,0.250021 0.4167,0.796366 0.30558,0.379661 0.36114,0.481523 0.2315,0.527823 0.037,-0.06482 0.009,-0.129641 -0.12038,-0.425962 0.26854,0.15742 0.10186,0.666725 0.12038,0.361142 0.0556,0.379662 0.0926,0.324102 0.0185,-0.222241 0.0648,-0.287062 0.1852,0.342621 0.0463,0.490783 0.0926,0.240762 0.16669,0.425963 0.0833,0.138899 -0.0556,-0.398181 -0.16669,-0.463004 0.0926,0.148163 0.24077,0.453742 0.1389,0.527822 0.0556,0.592644 0.20372,0.444482 0.0185,-0.08334 0.10186,-0.138901 0.12038,0.416701 0.25002,0.212982 0.10186,-0.1389 0.16668,-0.03704 0.26854,0.157421 -0.10186,-0.194462 -0.12038,-0.305581 -0.0833,-0.25928 0.15742,-0.268542 0.25002,0.17594 0.0185,-0.250021 0.26855,0.11112 -0.009,-0.0926 z"
       style="display:inline;fill:#5f5e5d;fill-opacity:1;fill-rule:evenodd;stroke:none;stroke-width:0.264583;stroke-linecap:round;stroke-miterlimit:4;stroke-dasharray:none;stroke-opacity:1" />
    <path
       inkscape:connector-curvature="0"
       id="path4530"
       d="m 103.08489,24.398633 -0.3143,0.209531 -0.24882,0.157148 -0.17024,0.288106 -0.15715,0.275009 -0.0393,0.314297 -0.13095,0.327392 -0.0786,0.405966 -0.18334,0.458349 -0.0393,0.18334 -0.0131,0.130957 0.32739,-0.07857 0.35358,-0.275009 0.22263,-0.327393 0.0393,-0.06548 0.13095,0.379775 0.22263,0.419062 0.18334,0.458349 0.3012,0.471445 0.37978,0.510732 0.10476,0.02619 -0.27501,-0.471445 -0.0917,-0.419062 0.15715,0.209531 0.11786,0.196436 -0.0786,-0.36668 -0.19644,-0.497636 0.11786,0.05238 0.13096,0.117861 -0.15715,-0.458349 -0.11786,-0.432158 -0.43216,-0.471445 -0.23572,-0.405966 -0.0393,-0.235723 0.0786,-0.09167 0.17024,-0.27501 0.14406,-0.09167 0.19643,-0.235722 0.26191,-0.18334 0.0917,-0.353583 -0.11786,-0.18334 -0.19643,0.117861 -0.20953,0.104766 z"
       style="display:inline;fill:#5f5e5d;fill-opacity:1;fill-rule:evenodd;stroke:none;stroke-width:0.264583;stroke-linecap:round;stroke-miterlimit:4;stroke-dasharray:none;stroke-opacity:1" />
    <path
       inkscape:connector-curvature="0"
       id="path4532"
       d="m 104.13254,24.097432 0.74646,-0.03929 0.49763,-0.02619 0.69408,0.104765 0.77264,0.117862 0.45835,0.06548 0.40597,0.07857 0.47144,0.07857 h 0.23572 l 0.6286,0.235723 0.52382,0.104765 0.40597,0.248818 0.45835,0.235723 0.43216,0.288105 0.26191,0.144052 0.27501,0.170245 0.34049,0.20953 0.26191,0.209531 0.24882,0.27501 0.36668,0.314297 0.44525,0.3012 0.39288,0.445254 0.41906,0.288105 0.31429,0.432158 0.19644,0.248818 0.2881,0.327392 0.45835,0.484541 0.37978,0.18334 0.3012,0.235722 0.41906,0.235722 0.28811,0.170244 0.32739,0.235723 0.26191,0.18334 0.27501,0.183339 -0.0524,0.170244 -0.0786,0.497636 0.0393,0.969081 -0.0131,0.825029 -0.20953,0.707168 -0.41906,-1.139326 -0.0393,0.379775 -0.22262,0.366679 -0.24882,0.209531 0.11786,-0.66788 -0.24882,-0.680976 -0.22262,0.680976 -0.39288,0.248818 -0.0524,-0.733358 0.0786,-1.086943 -0.0786,-0.327392 -0.15715,0.432158 -0.23572,0.589306 -0.48454,0.379775 -0.48454,-0.0131 0.34049,-0.353584 -0.0262,-0.471444 0.20953,-0.563115 -0.0917,-0.366679 -0.36668,0.510731 -0.10477,0.628594 -0.36668,-0.85122 -0.0917,0.432157 -0.41906,-0.942889 c 0,0 -0.22263,0.48454 -0.23572,0.536923 -0.0131,0.05238 -0.75955,0.36668 -0.75955,0.36668 l -0.15715,-0.288106 -0.0524,-0.707167 -0.15715,-1.073847 -0.24882,0.301201 -0.13096,-0.680975 -0.56311,0.327392 -0.0786,-0.445254 -0.0393,-0.458349 0.39287,-0.340488 0.15715,-0.392871 -0.45835,1.047655 -0.24882,0.471446 -0.18334,0.419061 -0.0131,-0.379774 -0.11786,-0.746455 0.0917,-0.497636 -0.0655,-0.379775 -0.18334,0.288105 -0.24882,0.497636 -0.13095,0.144053 -0.41906,-0.903603 -0.20954,0.117862 -0.23572,-0.392871 -0.10476,-0.707167 -0.3143,-0.484541 -0.14405,0.419062 -0.3012,0.405966 -0.13096,-0.471444 -0.20953,-0.392871 -0.18334,0.680976 -0.32739,-0.550019 -0.13096,0.288105 -0.15715,0.248818 -0.19643,-0.75955 -0.27501,-0.327392 -0.0262,0.366679 -0.35359,-0.510732 -0.0524,0.432158 -0.0786,0.130957 -0.23572,-0.235723 -0.20953,-0.09167 -0.34049,-0.379775 -0.26191,-0.340488 -0.32739,-0.327392 z"
       style="display:inline;fill:#5f5e5d;fill-opacity:1;fill-rule:evenodd;stroke:none;stroke-width:0.264583;stroke-linecap:round;stroke-miterlimit:4;stroke-dasharray:none;stroke-opacity:1" />
    <path
       inkscape:connector-curvature="0"
       id="path4535"
       d="m 103.46466,23.003942 -0.0196,0.09822 0.0524,0.170244 0.0131,0.130957 -0.0131,0.235722 -0.0196,0.235722 -0.007,0.288106 0.072,0.261913 0.10476,0.222627 0.14406,0.222627 0.0655,0.157148 0.10477,0.144053 0.1375,0.209531 0.22918,0.163696 0.072,0.01964 c 0,0 0.0393,-0.170243 0.0524,-0.20953 0.0131,-0.03929 0.0786,-0.353584 0.0786,-0.399419 0,-0.04584 -0.0196,-0.353584 -0.0196,-0.353584 l -0.0917,-0.347035 -0.12441,-0.379776 c 0,0 -0.0851,-0.170243 -0.0851,-0.202983 0,-0.03274 -0.1637,-0.301201 -0.1637,-0.301201 l -0.25536,-0.288105 -0.26847,-0.157148 -0.0458,0.02619 z"
       style="display:inline;fill:#c0c0c0;fill-opacity:1;fill-rule:evenodd;stroke:none;stroke-width:0.264583;stroke-linecap:round;stroke-miterlimit:4;stroke-dasharray:none;stroke-opacity:1" />
    <path
       inkscape:connector-curvature="0"
       id="path4538"
       d="m 103.45157,23.056325 0.0524,0.196435 0.0262,0.209531 0.007,0.163696 -0.0589,0.248818 0.0393,0.281558 0.0262,0.183339 0.0655,0.18334 0.16369,0.261914 0.0851,0.09822 0.10477,0.170245 0.0786,0.124409 0.11786,0.216079 0.17024,0.157148 0.0655,-0.117862 0.0196,-0.261913 0.0458,-0.255366 -0.0196,-0.255366 -0.072,-0.268462 -0.0982,-0.399418 -0.10477,-0.27501 -0.14405,-0.235722 -0.1506,-0.170244 -0.1506,-0.124409 -0.19644,-0.137505 -0.0655,-0.01309 z"
       style="display:inline;fill:#0c0301;fill-opacity:1;fill-rule:evenodd;stroke:none;stroke-width:0.264583;stroke-linecap:round;stroke-miterlimit:4;stroke-dasharray:none;stroke-opacity:1" />
  </g>
  <g
     style="display:inline"
     inkscape:label="Smile"
     id="layer4"
     inkscape:groupmode="layer">
    <g
       style="display:inline;stroke-width:1.90559812;stroke-miterlimit:4;stroke-dasharray:none"
       transform="matrix(-0.04733881,0.13221953,0.12923666,0.04627083,-10.419432,-3.537575)"
       id="g856">
      <path
         id="path835"
         d="m 38.742559,117.92857 c 0,0 10.583333,5.29167 27.592263,4.91369 17.008927,-0.37798 20.032736,-10.58333 20.032736,-10.58333 0,0 -0.377976,30.23809 -18.898809,28.72619 -18.520833,-1.51191 -28.72619,-23.05655 -28.72619,-23.05655 z"
         style="fill:#ffffff;fill-opacity:1;stroke:#000000;stroke-width:1.90559812;stroke-linecap:butt;stroke-linejoin:miter;stroke-miterlimit:4;stroke-dasharray:none;stroke-opacity:1" />
      <path
         id="path837"
         d="m 67.468749,122.84226 1.511906,18.14286"
         style="fill:none;stroke:#000000;stroke-width:1.90559812;stroke-linecap:butt;stroke-linejoin:miter;stroke-opacity:1;stroke-miterlimit:4;stroke-dasharray:none" />
      <path
         sodipodi:nodetypes="cc"
         id="path839"
         d="m 74.405957,121.92974 1.756244,16.78752"
         style="fill:none;stroke:#000000;stroke-width:1.90559812;stroke-linecap:butt;stroke-linejoin:miter;stroke-opacity:1;stroke-miterlimit:4;stroke-dasharray:none" />
      <path
         sodipodi:nodetypes="cc"
         id="path841"
         d="m 79.808329,119.68482 2.157149,12.00746"
         style="fill:none;stroke:#000000;stroke-width:1.90559812;stroke-linecap:butt;stroke-linejoin:miter;stroke-opacity:1;stroke-miterlimit:4;stroke-dasharray:none" />
      <path
         sodipodi:nodetypes="cc"
         id="path843"
         d="m 60.798812,122.86518 1.000295,16.98601"
         style="fill:none;stroke:#000000;stroke-width:1.90559812;stroke-linecap:butt;stroke-linejoin:miter;stroke-opacity:1;stroke-miterlimit:4;stroke-dasharray:none" />
      <path
         sodipodi:nodetypes="cc"
         id="path845"
         d="m 53.105655,121.97804 0.488682,13.71541"
         style="fill:none;stroke:#000000;stroke-width:1.90559812;stroke-linecap:butt;stroke-linejoin:miter;stroke-opacity:1;stroke-miterlimit:4;stroke-dasharray:none" />
      <path
         sodipodi:nodetypes="cc"
         id="path847"
         d="m 47.813989,120.95238 0.133635,9.8503"
         style="fill:none;stroke:#000000;stroke-width:1.90559812;stroke-linecap:butt;stroke-linejoin:miter;stroke-opacity:1;stroke-miterlimit:4;stroke-dasharray:none" />
    </g>
  </g>
</svg>
