<?xml version="1.0" encoding="UTF-8" standalone="no"?>
<svg
   xmlns:dc="http://purl.org/dc/elements/1.1/"
   xmlns:cc="http://creativecommons.org/ns#"
   xmlns:rdf="http://www.w3.org/1999/02/22-rdf-syntax-ns#"
   xmlns:svg="http://www.w3.org/2000/svg"
   xmlns="http://www.w3.org/2000/svg"
   xmlns:sodipodi="http://sodipodi.sourceforge.net/DTD/sodipodi-0.dtd"
   xmlns:inkscape="http://www.inkscape.org/namespaces/inkscape"
   id="svg8"
   version="1.1"
   viewBox="0 0 52.14768 34.395835"
   height="130"
   width="197.0936"
   inkscape:version="1.0 (4035a4fb49, 2020-05-01)"
   sodipodi:docname="horse01_smile.svg"
   inkscape:export-filename="C:\Users\ashley\Pictures\Games\CoolSodaCan\export\graphics.unpacked\horse01_smile.png"
   inkscape:export-xdpi="96"
   inkscape:export-ydpi="96">
  <defs
     id="defs2">
    <inkscape:path-effect
       effect="simplify"
       id="path-effect4531"
       is_visible="false"
       steps="1"
       threshold="0.002"
       smooth_angles="0"
       helper_size="5"
       simplify_individual_paths="false"
       simplify_just_coalesce="false"
       lpeversion="0" />
    <inkscape:path-effect
       effect="simplify"
       id="path-effect5591"
       is_visible="true"
       steps="4"
       threshold="0.0004"
       smooth_angles="60"
       helper_size="5"
       simplify_individual_paths="false"
       simplify_just_coalesce="false"
       lpeversion="0" />
    <inkscape:path-effect
       effect="roughen"
       id="path-effect5589"
       is_visible="true"
       method="segments"
       max_segment_size="10"
       segments="2"
       displace_x="10;1"
       displace_y="10;1"
       global_randomize="1;1"
       handles="along"
       shift_nodes="true"
       fixed_displacement="false"
       spray_tool_friendly="false"
       lpeversion="0" />
    <inkscape:path-effect
       effect="sketch"
       id="path-effect5587"
       is_visible="true"
       nbiter_approxstrokes="5"
       strokelength="100"
       strokelength_rdm="0.3;1"
       strokeoverlap="0.3"
       strokeoverlap_rdm="0.3;1"
       ends_tolerance="0.1;1"
       parallel_offset="5;1"
       tremble_size="5;1"
       tremble_frequency="1"
       nbtangents="5"
       tgt_places_rdmness="1;1"
       tgtscale="10"
       tgtlength="100"
       tgtlength_rdm="0.3;1"
       lpeversion="0" />
    <inkscape:path-effect
       effect="fill_between_strokes"
       id="path-effect5585"
       is_visible="true"
       linkedpath=""
       secondpath=""
       reversesecond="false"
       lpeversion="0"
       fuse="false"
       join="true"
       close="true" />
  </defs>
  <sodipodi:namedview
     inkscape:window-maximized="1"
     inkscape:window-y="302"
     inkscape:window-x="1072"
     inkscape:window-height="1017"
     inkscape:window-width="1920"
     units="px"
     showgrid="false"
     inkscape:current-layer="layer9"
     inkscape:document-units="px"
     inkscape:cy="34.375006"
     inkscape:cx="46.492249"
     inkscape:zoom="4"
     inkscape:pageshadow="2"
     inkscape:pageopacity="0.0"
     borderopacity="1.0"
     bordercolor="#666666"
     pagecolor="#ffffff"
     id="base"
     showguides="true"
     inkscape:guide-bbox="true"
     inkscape:snap-to-guides="false"
     fit-margin-top="0"
     fit-margin-left="0"
     fit-margin-right="0"
     fit-margin-bottom="0"
     inkscape:document-rotation="0" />
  <metadata
     id="metadata5">
    <rdf:RDF>
      <cc:Work
         rdf:about="">
        <dc:format>image/svg+xml</dc:format>
        <dc:type
           rdf:resource="http://purl.org/dc/dcmitype/StillImage" />
        <dc:title />
      </cc:Work>
    </rdf:RDF>
  </metadata>
  <g
     inkscape:groupmode="layer"
     id="layer9"
     inkscape:label="horse"
     style="display:inline"
     transform="translate(-92.519756,-40.185767)">
    <path
       style="display:inline;fill:#635e53;fill-opacity:1;fill-rule:evenodd;stroke:none;stroke-width:0.264584;stroke-miterlimit:4;stroke-dasharray:none;stroke-opacity:1"
       d="m 142.55836,74.118242 0.20771,0.303579 0.87879,0.15978 0.67107,-0.06391 0.20771,-0.1438 0.1438,-0.798894 -0.39945,-0.862804 -0.67107,-0.03196 -0.92671,0.431402 -0.27162,0.30358 -0.0959,0.239667 z"
       id="path5624"
       inkscape:connector-curvature="0" />
    <path
       style="display:inline;fill:#635e53;fill-opacity:1;fill-rule:evenodd;stroke:none;stroke-width:0.264584;stroke-miterlimit:4;stroke-dasharray:none;stroke-opacity:1"
       d="m 128.3221,73.287394 c 0,0 -0.41543,0.351513 -0.4314,0.431403 -0.016,0.07989 0,0.463357 0,0.463357 l 0.17575,0.1438 0.5752,0.127823 0.30359,0.09587 c 0,0 0.67106,-0.06391 0.75095,-0.06391 0.0799,0 0.62314,-0.207712 0.62314,-0.207712 l 0.67107,-0.143802 0.36749,-0.271622 0.016,-0.44738 0.0799,-0.511292 -1.00661,0.03196 -1.02258,-0.06391 -0.46336,0.06391 z"
       id="path5626"
       inkscape:connector-curvature="0" />
    <path
       style="display:inline;fill:#635e53;fill-opacity:1;fill-rule:evenodd;stroke:none;stroke-width:0.26458334;stroke-miterlimit:4;stroke-dasharray:none;stroke-opacity:1"
       d="m 116.19491,73.527062 0.59118,0.1438 0.68705,0.15978 0.63911,0.255645 0.1438,0.383467 -0.76693,-0.01597 -1.13443,0.04793 -0.89476,-0.06391 h -0.62314 c 0,0 0.30358,-0.399445 0.36749,-0.431402 0.0639,-0.03195 0.99063,-0.479335 0.99063,-0.479335 z"
       id="path5628"
       inkscape:connector-curvature="0" />
    <path
       style="display:inline;fill:#635e53;fill-opacity:1;fill-rule:evenodd;stroke:none;stroke-width:0.264584;stroke-miterlimit:4;stroke-dasharray:none;stroke-opacity:1"
       d="m 102.39005,71.977211 0.20771,-0.60716 0.44738,0.01599 0.54325,-0.223691 0.54324,0.06391 0.36749,0.175757 -0.0479,0.623135 -0.4314,0.271624 -0.4314,0.495313 -0.60716,0.399447 -0.46336,0.287602 -0.23967,-0.351514 0.0799,-0.59118 -0.016,-0.319557 z"
       id="path5630"
       inkscape:connector-curvature="0" />
    <path
       style="display:inline;fill:#835642;fill-opacity:1;fill-rule:evenodd;stroke:none;stroke-width:0.264584;stroke-miterlimit:4;stroke-dasharray:none;stroke-opacity:1"
       d="m 114.68925,63.449804 0.22597,0.655285 0.20336,0.632692 0.11298,0.836055 0.27115,0.677882 0.15818,0.519711 0.11298,0.63269 0.20336,0.271153 0.20337,0.225962 0.18077,0.655287 0.20336,0.768266 0.29375,1.084612 v 0.745671 l 0.0226,1.039421 -0.18077,0.677882 -0.13558,0.361537 -0.38413,0.361539 0.81346,0.451921 0.40672,0.158173 0.36154,-0.04519 -0.0904,-0.587499 0.29375,-0.519709 0.31634,-0.542307 0.29375,-0.271153 0.11298,-0.768268 -0.0452,-0.63269 -0.27115,-0.903843 -0.5649,-1.626919 -0.29375,-1.174997 -0.0452,-0.881248 0.11298,-0.632691 -0.38413,-0.903843 -0.0678,-1.039419 -0.24855,-1.333171 -0.0904,-1.039419 -0.31634,-1.44615 -0.18077,-0.881248 -0.47452,-1.197594 -1.49134,0.384134 -1.24279,0.51971 -0.42932,0.451922 0.18076,0.723076 0.24856,0.112979 0.29375,0.180769 0.29375,0.51971 0.38413,0.813459 0.31635,0.881249 0.24856,0.949035 z"
       id="path5599"
       inkscape:connector-curvature="0" />
    <path
       style="display:inline;fill:#835642;fill-opacity:1;fill-rule:evenodd;stroke:none;stroke-width:0.26458334;stroke-miterlimit:4;stroke-dasharray:none;stroke-opacity:1"
       d="m 136.29505,61.927143 0.73497,0.766937 0.6551,0.543247 0.46335,0.399445 0.25565,0.30358 0.41543,0.559224 0.22368,0.44738 0.17576,0.36749 0.36749,0.367492 0.39945,0.447379 c 0,0 0.11184,0.36749 0.15978,0.479335 0.0479,0.111845 0.23967,0.687049 0.23967,0.687049 l 0.25564,0.95867 0.0799,0.351512 0.20771,0.543248 0.11185,0.319557 0.11184,0.703024 0.0639,0.591182 0.016,0.51129 0.1438,0.30358 0.38347,0.543247 0.22369,0.655092 0.23967,0.719004 0.11184,0.271622 0.23967,0.351513 c 0,0 0.31956,-0.399445 0.38347,-0.463358 0.0639,-0.06391 0.60715,-0.734981 0.60715,-0.734981 0,0 -0.15977,-0.687047 -0.17575,-0.766935 -0.016,-0.07989 -0.11185,-0.75096 -0.11185,-0.75096 l 0.0479,-0.399447 -0.39945,-0.782914 -0.0959,-0.543247 -0.54324,-0.958672 -0.11185,-0.910737 -0.27162,-1.102471 -0.15978,-0.958672 -0.20771,-1.198337 -0.12782,-1.006606 -0.19174,-0.846825 -0.67107,-0.559225 -0.79889,-1.038561 -0.49532,-0.67107 -0.59117,-0.830847 -0.31956,-0.830849 c 0,0 -0.016,-0.44738 0.016,-0.543247 0.0319,-0.09587 0.11184,-0.862804 0.11184,-0.862804 l 0.19173,-0.431402 0.15978,-0.81487 0.0799,-0.51129 0.15978,-0.575204 -0.016,-0.623135 0.11184,-0.639114 0.0639,-0.639115 0.016,-0.974649 0.0959,-0.44738 -0.0959,-0.431402 -0.0598,-0.43259 -0.75512,-0.589992 -2.39668,-0.734981 -1.93332,2.061143 -2.68427,5.352579 0.31955,1.501918 1.85343,0.60716 0.30358,0.223688 0.20771,0.191734 0.57521,0.687049 0.52727,0.51129 0.47933,0.511292 0.4314,0.543247 z"
       id="path5622"
       inkscape:connector-curvature="0" />
    <path
       style="display:inline;fill:#835642;fill-opacity:1;fill-rule:evenodd;stroke:none;stroke-width:0.26458334;stroke-miterlimit:4;stroke-dasharray:none;stroke-opacity:1"
       d="m 97.788427,41.683207 -0.671071,-0.479336 -0.255645,-0.271623 -0.335535,-0.335535 -0.207712,-0.319557 -0.111845,0.07989 0.239667,0.527269 0.271625,0.623136 0.159777,0.383469 0.335535,0.655092 0.399447,0.559224 0.207712,0.207712 0.527268,-0.351513 0.463359,-0.287601 -0.399447,-0.431402 -0.399447,-0.351512 z"
       id="path5656"
       inkscape:connector-curvature="0" />
    <path
       style="display:inline;fill:#a26a51;fill-opacity:1;fill-rule:evenodd;stroke:none;stroke-width:0.26458334;stroke-miterlimit:4;stroke-dasharray:none;stroke-opacity:1"
       d="m 94.24928,47.649168 -0.43759,0.645967 -0.395916,0.833505 -0.333402,0.770993 -0.43759,0.791829 -0.125026,0.625129 0.208377,0.479266 0.166701,0.229214 0.125025,0.333403 0.291727,0.291726 0.437591,0.208377 0.270888,0.06251 0.27089,-0.06251 0.166701,0.145863 0.541778,0.04168 h 0.500103 l 0.250053,-0.291728 0.145863,-0.479266 0.06251,-0.125025 0.291726,-0.145864 0.333402,-0.291726 0.666805,-0.562617 0.645966,-0.43759 0.500104,-0.395916 0.416752,-0.291726 0.437589,-0.312564 0.666805,-0.395915 0.375078,-0.291727 0.27089,-0.291727 0.77099,0.145863 0.52095,0.187539 0.58345,0.312565 0.68764,0.520941 0.54178,0.437589 0.5001,0.604293 0.54178,0.541777 0.37508,0.291727 0.27089,0.333402 0.47926,0.479266 0.35424,0.416753 0.37508,0.333402 0.22922,0.333403 0.0834,0.333402 0.14586,0.812668 0.10419,0.625128 0.20837,0.750155 0.33341,0.70848 0.22921,0.625128 0.3334,0.604291 0.39592,0.520942 v 0.375078 l -0.35424,0.666804 -0.50011,0.687641 -0.81266,0.896019 -0.771,0.79183 -0.77099,0.729316 -0.39591,0.437591 -0.12503,0.250051 -0.20838,0.395916 -0.1667,0.291727 -0.12502,0.520941 v 0.35424 l -0.0417,0.312564 -0.20837,0.625129 -0.18754,0.479266 -0.39592,1.062718 -0.25005,0.562617 -0.29173,0.79183 -0.0833,0.35424 0.0833,0.416752 -0.0417,0.333402 -0.0833,0.333402 -0.20838,0.604291 -0.1667,0.854344 0.70848,-0.04168 1.04188,-0.291727 -0.12502,-0.208375 -0.12503,-0.62513 0.35424,-0.375076 0.29173,-0.458428 0.0625,-0.583455 0.3334,-1.458634 0.27089,-0.645967 0.37508,-1.250257 0.29173,-0.625129 0.39591,-0.208377 0.10419,-0.270889 0.18754,-0.250052 0.8335,-0.625129 0.77099,-0.541779 1.16691,-0.750154 0.83351,-0.520941 0.56261,-0.500104 1.20859,-0.708478 0.70848,-0.291728 0.56261,-0.43759 0.25005,-0.395914 0.66681,-0.04168 0.79183,-0.104189 h 0.62513 l 0.85434,0.04168 1.29193,0.04168 1.1044,0.145864 1.54198,-0.104188 h 0.58346 l 1.27109,-0.02084 0.89602,-0.145863 1.33361,-0.250053 1.35445,-0.479265 1.14607,-0.520941 0.91685,-0.43759 0.45843,-0.312565 0.20838,0.604291 0.22921,0.479266 0.37507,0.770994 0.2709,0.729316 0.25005,1.125232 0.14586,0.79183 0.0833,0.625129 0.10419,0.35424 0.31256,0.437591 0.14587,0.52094 0.22921,0.875181 0.22921,0.687642 0.1042,0.562616 0.0208,0.562616 c 0,0 0.0625,0.395915 0.0833,0.520942 0.0208,0.125025 -0.0417,0.583453 -0.0417,0.583453 0,0 -0.0208,0.291726 -0.0625,0.375078 -0.0417,0.08335 -0.27089,0.645966 -0.27089,0.645966 l -0.10419,0.604291 -0.33341,1.041881 -0.18753,0.70848 -0.18754,0.562617 -0.33341,0.458428 -0.14586,0.333402 -0.47926,0.375078 -0.45843,0.312564 -0.29173,0.208375 0.47926,0.06251 0.54179,-0.02084 0.5001,0.04168 0.45843,0.187539 0.52094,-0.02084 0.37508,0.02084 0.25004,-0.375078 0.25006,-0.604291 0.39591,-1.166908 0.1667,-0.833506 0.22922,-0.958531 0.39591,-1.14607 0.29173,-1.208583 0.0833,-0.166701 0.27089,-0.833504 0.29172,-0.458429 0.1042,-0.541778 -0.0625,-0.437591 -0.29172,-1.021043 -0.20838,-0.937695 -0.22921,-1.521146 0.18753,-1.041883 0.35424,-0.770992 0.39592,-0.500103 0.6668,-0.79183 1.20858,-1.333609 0.56262,-0.916855 0.37508,-0.729318 0.47926,-0.916855 0.29173,-0.854344 0.25005,-1.062718 0.25005,-0.562617 0.64597,-0.479266 0.37508,-0.645966 -0.12503,-0.79183 -0.29173,-1.083557 -0.45842,-0.70848 -0.56262,-0.666804 -0.72931,-0.541778 -0.91686,-0.562617 -0.70848,-0.187538 -1.33361,-0.500104 -0.95853,-0.229214 -1.35445,-0.354239 -0.87518,-0.125026 -1.10439,0.125026 -1.50031,0.291727 -1.56282,0.375077 -1.37529,0.250052 -1.52115,0.291727 -0.85434,0.04168 -1.04188,0.125026 -0.95853,-0.04168 -0.9377,-0.04167 -0.85434,-0.270889 -1.08356,-0.395915 -0.75015,-0.35424 -0.81267,-0.187539 -1.54198,-0.229214 h -1.29193 l -1.25026,-0.08335 -1.08356,-0.125026 -1.06272,-0.208376 -1.14607,-0.395915 -1.52115,-0.375078 -2.02125,-0.687642 -1.16691,-0.43759 -0.97936,-0.229214 -1.33361,-0.229214 -1.04188,-0.291727 -0.9377,-0.125026 -1.021046,-0.145863 -1.166908,0.06251 c 0,0 -0.708478,0.208376 -0.791829,0.291727 -0.08335,0.08335 -0.416752,0.604291 -0.416752,0.604291 l -0.145864,0.666805 -0.333402,0.791829 -0.583455,0.958532 -0.625128,1.166907 -0.479266,0.979369 z"
       id="path5601"
       inkscape:connector-curvature="0" />
    <path
       style="display:inline;fill:#5a5161;fill-opacity:1;fill-rule:evenodd;stroke:none;stroke-width:0.26458334;stroke-miterlimit:4;stroke-dasharray:none;stroke-opacity:1"
       d="m 136.48988,47.147631 c 0.0309,-0.01598 0.0585,-0.03811 0.0927,-0.04793 0.0234,-0.0067 0.0496,0.0024 0.0741,0 0.28116,-0.02693 0.56842,-0.01598 0.85249,-0.01598 0.16095,0 0.89389,-0.03009 1.00075,0.01598 0.0311,0.01339 0.0566,0.01642 0.0927,0.03196 0.0789,0.03401 0.19899,0.172614 0.27798,0.223691 0.0648,0.04187 0.008,-0.0029 0.0741,0.01598 0.0295,0.0085 0.0461,0.05184 0.0741,0.06391 0.0384,0.01654 0.0532,0.0049 0.0741,0.03196 0.006,0.0075 0.0127,0.04043 0.0185,0.04793 0.0143,0.01844 0.0413,0.0295 0.0556,0.04793 0.0229,0.02958 0.0123,0.05143 0.0371,0.07989 0.0432,0.04961 0.041,0.03871 0.0741,0.09587 0.0264,0.04545 0.13913,0.144049 0.16679,0.191734 0.0215,0.03712 0.0183,0.07952 0.0371,0.111845 0.0117,0.02021 0.0473,0.0265 0.0556,0.04793 0.0267,0.06918 -0.0354,-0.0059 0.0185,0.06391 0.0748,0.09672 0.15561,0.179675 0.24092,0.271623 0.0353,0.038 0.0341,0.09072 0.0556,0.127823 0.0434,0.0749 0.16305,0.139493 0.22239,0.207712 0.0185,0.0213 0.0418,0.04009 0.0556,0.06391 0.006,0.0095 -0.006,0.02282 0,0.03196 0.0385,0.05539 0.0772,0.06653 0.12973,0.111845 0.0195,0.01684 0.0205,0.04486 0.0371,0.06391 0.0505,0.05804 0.0977,0.117621 0.14825,0.175756 0.0519,0.05965 0.13344,0.100128 0.18533,0.159778 0.0301,0.03459 0.0243,0.07811 0.0556,0.111845 0.0511,0.05509 0.12153,0.101228 0.1668,0.159779 0.0455,0.0057 0.008,0.03392 0.0185,0.04793 0.019,0.02458 0.0551,0.03933 0.0741,0.06391 0.0229,0.02958 0.0123,0.05143 0.0371,0.07989 0.0662,0.07607 0.13705,0.146897 0.20386,0.22369 0.0459,0.05271 0.13331,0.09896 0.18533,0.143802 0.0225,0.01936 0.0374,0.08832 0.0556,0.111843 0.0211,0.02725 0.14826,0.113252 0.14826,0.143802 0,0.0053 -0.0123,0 -0.0185,0 -0.0247,0 -0.0499,0.0042 -0.0741,0 -0.0501,-0.0086 -0.19527,-0.141445 -0.22239,-0.04794 -0.0162,0.05574 0.18112,0.269208 0.24092,0.30358 0.046,0.02647 0.0498,4.96e-4 0.0741,0.03195 0.043,0.05559 0.0986,0.164868 0.14826,0.207712 0.0279,0.02403 0.0539,0.04504 0.0741,0.07989 0.008,0.01428 -0.006,0.03278 0,0.04793 0.006,0.01428 0.0292,0.01848 0.0371,0.03196 0.0654,0.112848 -0.20386,0.104781 -0.20386,0.09587 0,-0.0053 0.0185,-0.0053 0.0185,0 0,0.0119 -0.0185,0.02005 -0.0185,0.03195 0,0.03185 0.40951,0.340167 0.44478,0.431402 0.008,0.02124 -0.0118,0.0596 0,0.07989 0.0152,0.02627 0.10891,0.112827 0.0371,0.1438 -0.0434,0.0187 -0.28129,0.0074 -0.29651,-0.03196 -0.0173,-0.04472 -0.0297,-0.05752 -0.0741,-0.09587 -0.006,-0.0053 -0.0185,-0.02351 -0.0185,-0.01597 0,0.06978 0.0262,0.02926 0.0556,0.07989 0.0683,0.01662 0.007,0.05467 0.0185,0.07989 0.0202,0.04362 0.051,0.08787 0.0741,0.127823 0.0123,0.0213 -0.0123,0.05859 0,0.07989 0.0126,0.02172 0.043,0.04219 0.0556,0.06391 0.0197,0.03404 -0.0141,0.09139 0,0.127824 0.0339,0.08766 0.0125,0.186767 0.0371,0.271623 0.0187,0.06469 0.0616,0.122145 0.0927,0.175757 0.0322,0.05543 -0.007,0.185251 0.0185,0.239667 0.006,0.01399 0.0292,0.01848 0.0371,0.03195 0.0333,0.05739 0.0631,0.211052 0.0927,0.287602 0.0186,0.04807 -0.0143,0.11046 0,0.159778 0.0137,0.04729 0.0216,0.106634 0.0371,0.159779 0.008,0.02902 0,0.06638 0,0.09587 0,0.02663 0,0.05326 0,0.07989 0,0.0053 0.006,0.01597 0,0.01597 -0.0852,0 -0.20243,-0.22369 -0.24092,-0.22369 -0.0185,0 0,0.03196 0,0.04793 0,0.04793 0,0.09587 0,0.1438 0,0.03147 -0.0177,0.54187 -0.0185,0.543247 -0.008,0.01347 -0.0293,0.01848 -0.0371,0.03196 -0.0179,0.03086 0.01,0.09436 0,0.127824 -0.005,0.01823 -0.0307,0.04203 -0.0371,0.06391 -0.007,0.02506 0.007,0.05483 0,0.07989 -0.009,0.03263 -0.0163,0.101037 -0.0371,0.127823 -0.003,0.0044 -0.0158,-0.0048 -0.0185,0 -0.001,0.0022 9.9e-4,0.09587 0,0.09587 -0.0185,0 0.005,-0.03243 0,-0.04793 -0.0166,-0.05731 -0.043,-0.122023 -0.0741,-0.175756 -0.0247,-0.04253 -0.0524,-0.06948 -0.0556,-0.06391 -0.0329,0.05666 0.002,0.03607 0.0185,0.06391 0.003,0.0048 0,0.0213 0,0.01597 0,-0.037 0.0429,-0.318567 0.0556,-0.351513 0.006,-0.01428 0.0306,-0.01797 0.0371,-0.03196 0.006,-0.01371 0.015,-0.207713 0.0371,-0.207713 0.0124,0 0,0.0213 0,0.03196 0,0.02239 0.0124,0.10653 0,0.127823 -0.0218,0.03762 -0.0608,0.06585 -0.0741,0.111845 -0.006,0.02067 0.008,0.0437 0,0.06391 -0.01,0.02538 -0.0412,0.05513 -0.0556,0.07989 -0.0259,0.04469 -0.0306,0.116629 -0.0556,0.159779 -0.0156,0.02692 -0.0428,0.03092 -0.0556,0.06391 -0.0198,0.05119 -0.0214,0.105809 -0.0371,0.159779 -0.0125,0.04311 0.0164,0.101391 0,0.1438 -0.007,0.01822 -0.0288,0.0301 -0.0371,0.04794 -0.0309,0.0667 0,0.201033 0,0.271622 0,0.06865 0.0251,0.174734 0,0.239668 -0.008,0.02029 -0.0382,0.191734 -0.0556,0.191734 -0.0671,0 -0.0784,-0.138796 -0.0927,-0.175757 -0.0138,-0.03562 -0.0607,-0.07714 -0.0741,-0.111844 -0.0159,-0.04115 -0.003,-0.08627 -0.0185,-0.127823 -0.004,-0.01129 -0.0185,-0.02005 -0.0185,-0.03195 0,-0.01887 0.0185,0.06065 0.0185,0.111845 0,0.07989 0,0.159777 0,0.239667 0,0.282276 0,0.564551 0,0.846827 0,0.05782 -0.0345,0.08926 -0.0556,0.1438 -0.0134,0.03469 0,0.09153 0,0.127822 0,0.03993 -0.0185,0.0587 -0.0185,0.09587 0,0.01831 -0.0215,0.207712 -0.0371,0.207712 -0.0253,0 -0.0687,-0.184291 -0.0741,-0.207712 -0.0335,-0.144524 -0.002,0.0434 -0.0371,-0.04793 -0.004,-0.0101 0,-0.04261 0,-0.03196 0,0.02668 0.011,0.331969 0.0185,0.351514 0.003,0.0071 0.0157,0.0088 0.0185,0.01599 0.0123,0.03195 0.0211,0.228319 0,0.255645 -0.0289,0.03738 -0.0332,0.05723 -0.0556,0.09587 -0.0209,0.03605 -0.0726,0.06129 -0.0927,0.09587 -0.008,0.01413 -0.0139,0.05725 -0.0371,0.06391 -0.10715,0.03079 -0.078,-0.0994 -0.0927,-0.1438 -0.008,-0.0229 -0.0268,-0.0418 -0.0371,-0.06391 -0.006,-0.01273 -0.0185,-0.32535 -0.0185,-0.36749 0,-0.276949 0,-0.553898 0,-0.830849 0,-0.08719 -0.0309,-0.287678 0,-0.36749 0.0594,-0.153572 0.0178,-0.64088 -0.0371,-0.782915 -0.0128,-0.03322 0.0151,-0.07939 0,-0.111845 -0.006,-0.01398 -0.0293,-0.01848 -0.0371,-0.03195 -0.0222,-0.03835 0.0222,-0.105454 0,-0.143802 -0.004,-0.0067 -0.0164,-0.0087 -0.0185,-0.01599 -0.01,-0.0341 -0.0269,-0.335535 -0.0556,-0.335535 -0.0591,0 -0.0273,0.02262 -0.0371,0.04793 -0.0199,0.05158 -0.0658,0.113528 -0.0927,0.159778 -0.0148,0.02556 0.0148,0.0703 0,0.09587 -0.0203,0.035 -0.0246,0.0849 -0.0371,0.127823 -0.005,0.01599 0.009,0.03196 0,0.04793 -0.0339,0.05839 -0.10077,0.113358 -0.12972,0.175756 -0.0384,0.08273 -0.0268,0.23624 -0.0556,0.335535 -0.009,0.02959 0.0111,0.06704 0,0.09587 -0.0447,0.115735 0.005,-0.02519 -0.0371,0.04793 -0.0351,0.06056 -0.0506,0.121415 -0.0927,0.175757 -0.0289,0.0374 -0.002,0.116518 -0.0185,0.159779 -0.0303,0.07844 -0.12102,0.144762 -0.16679,0.22369 -0.0182,0.03138 -0.0235,0.07686 -0.0371,0.111845 -0.0169,0.04371 -0.0694,0.07175 -0.0927,0.111845 -0.0301,0.05197 -0.005,0.03801 -0.0371,0.07989 -0.0183,0.02364 -0.0595,0.03862 -0.0741,0.06391 -0.01,0.01711 -0.15631,0.22369 -0.16679,0.22369 -0.0125,0 -0.0556,-0.236738 -0.0556,-0.287602 0,-0.0053 0.001,0.01081 0,0.01599 -0.064,0.165509 0.019,-0.06607 -0.0185,0.09587 -0.008,0.03389 -0.10443,0.185899 -0.12973,0.207713 -0.0894,0.07712 -0.0318,-0.0091 -0.0741,0.06391 -0.007,0.01273 -0.0805,0.132802 -0.0927,0.111845 -0.0174,-0.02998 0,-0.09616 -0.0185,-0.127823 -0.008,-0.01347 -0.0306,-0.01797 -0.0371,-0.03196 -0.0153,-0.03296 -0.0437,-0.274494 -0.0741,-0.2876 -0.0519,-0.02237 -0.0857,0.04193 -0.11119,0.06391 -0.0502,0.04324 -0.10982,0.04714 -0.1668,0.07989 -0.11646,0.06694 -0.31228,0.227089 -0.44477,0.255645 -0.18072,0.03895 -0.26616,-0.214839 -0.29652,-0.319555 -0.009,-0.03265 -0.0185,-0.05746 -0.0185,-0.09587 0,-0.0053 0,-0.0213 0,-0.01599 0,0.04386 0.006,0.02243 -0.0185,0.06391 -0.0201,0.0346 -0.0242,0.0625 -0.0371,0.09587 -0.0313,0.08083 -0.10849,0.156662 -0.1668,0.22369 -0.0276,0.03176 -0.039,0.07608 -0.0556,0.111845 -0.0199,0.04296 -0.0749,0.07354 -0.0927,0.111845 -0.0452,0.09746 -0.0747,0.116204 -0.16679,0.175757 -0.0383,0.02476 -0.12018,0.106034 -0.18532,0.06391 -0.2054,-0.132815 -0.1668,-0.407426 -0.1668,-0.607157 0,-0.04726 0.0219,-0.134369 -0.0371,-0.159779 -0.0415,-0.01788 -0.087,0.06739 -0.1112,0.07989 -0.0723,0.03741 -0.0643,0.03761 -0.12972,0.07989 -0.0325,0.02099 -0.0797,0.01836 -0.1112,0.03195 -0.0598,0.02578 -0.29564,0.207712 -0.33358,0.207712 -0.0247,0 0,-0.04261 0,-0.06391 0,-0.07559 -0.0214,-0.1819 0,-0.255645 0.0303,-0.10449 0.0302,-0.247328 0,-0.351512 -0.01,-0.03278 0.0333,-0.143802 -0.0371,-0.143802 -0.0628,0 -0.14661,0.09445 -0.18532,0.127824 -0.16492,0.142187 -0.25478,0.312844 -0.37065,0.479335 -0.0565,0.01131 -0.007,0.04427 -0.0185,0.06391 -0.0237,0.04077 -0.0608,0.09116 -0.0927,0.127823 -0.0923,0.106092 -0.22969,0.153319 -0.35212,0.22369 -0.0887,0.051 -0.15351,0.104986 -0.25945,0.127822 -0.0134,0.0029 -0.0247,0.0213 -0.0371,0.01599 -0.0282,-0.01215 0.007,-0.05467 0.0185,-0.07989 0.0486,-0.104736 0.12944,-0.205978 0.14826,-0.319557 0.0112,-0.06752 0.0464,-0.08017 0.0556,-0.127822 0.004,-0.02101 -0.004,-0.0429 0,-0.06391 0.008,-0.04118 0.1021,-0.209899 0.12973,-0.239667 0.0164,-0.01765 0.0421,-0.02856 0.0556,-0.04793 0.0193,-0.02771 0.0217,-0.08266 0.0556,-0.111845 0.0157,-0.01357 0.0399,-0.01838 0.0556,-0.03196 0.008,-0.0069 0.15447,-0.218426 0.16679,-0.239667 0.0161,-0.02774 0.0656,-0.102203 0.0741,-0.127825 0.005,-0.01536 -0.005,-0.03243 0,-0.04793 0.0189,-0.06531 0.0949,-0.137385 0.11119,-0.207713 0.0191,-0.0825 0.051,-0.159758 0.0741,-0.239667 0.0201,-0.06943 0.026,-0.159857 0.0556,-0.22369 0.0437,-0.09426 0.0337,-0.0013 0.0556,-0.09587 0.004,-0.01567 -0.008,-0.03364 0,-0.04793 0.006,-0.01065 0.03,-0.02535 0.0185,-0.03196 -0.07,-0.04023 -0.37345,-0.01599 -0.48184,-0.01599 -0.0205,0 -0.15917,0.0028 -0.14826,-0.01597 0.0443,-0.07642 0.0586,-0.02986 0.12973,-0.06391 0.31411,-0.150455 -0.0271,-0.0057 0.12972,-0.09587 0.0492,-0.02827 0.14485,-0.06972 0.20386,-0.07989 0.0182,-0.0031 0.0384,0.0059 0.0556,0 0.0162,-0.0056 0.0221,-0.02421 0.0371,-0.03196 0.0168,-0.0087 0.0381,-0.0084 0.0556,-0.01599 0.0526,-0.02266 0.0955,-0.07311 0.14826,-0.09586 0.0345,-0.0149 0.12948,-0.03154 0.14826,-0.06391 0.008,-0.01456 -0.008,-0.02487 -0.0186,-0.03196 -0.13697,-0.08857 -0.6002,0.04175 -0.64863,0 -0.0186,-0.01602 -0.0234,-0.04282 -0.0185,-0.06391 0.0175,-0.07563 0.18044,-0.13707 0.25945,-0.159778 0.0571,-0.01642 0.0429,-0.03447 0.1112,-0.06391 0.0518,-0.02231 0.13581,-0.02232 0.18533,-0.04793 0.0118,-0.0061 0.007,-0.02481 0.0185,-0.03196 0.0515,-0.03334 0.11177,-0.0041 0.16679,-0.01597 0.0546,-0.01175 0.10097,-0.04353 0.14826,-0.06391 0.034,-0.01466 0.0931,-0.01618 0.12973,-0.03196 0.0406,-0.01752 0.15313,-0.08409 0.18532,-0.111845 0.0227,-0.01957 0.026,-0.04691 0.0556,-0.06391 0.0169,-0.0097 0.045,-0.01364 0.0556,-0.03196 0.0139,-0.02393 0.026,-0.07885 0.0556,-0.09587 0.0115,-0.0066 0.0294,-0.0061 0.0371,-0.01599 0.007,-0.0089 -0.004,-0.02185 0,-0.03195 0.0235,-0.06067 0.18086,-0.136108 0.22239,-0.207712 0.0632,-0.108965 0.15168,-0.223384 0.24092,-0.319557 0.03,-0.03233 0.0103,-0.04143 0.0371,-0.07989 0.0189,-0.02713 0.0573,-0.05083 0.0741,-0.07989 0.009,-0.01506 0.008,-0.03392 0.0185,-0.04794 0.0145,-0.0188 0.0421,-0.02856 0.0556,-0.04793 0.0162,-0.02329 0.007,-0.05467 0.0185,-0.07989 0.032,-0.06908 0.0958,-0.157267 0.1112,-0.22369 0.005,-0.02089 -0.007,-0.04343 0,-0.06391 0.008,-0.02508 0.10729,-0.204771 0.0927,-0.223689 -0.0129,-0.01666 -0.27444,0.0232 -0.31506,0.03195 -0.049,0.01058 -0.1133,0.06573 -0.14826,0.09587 -0.0274,0.02363 -0.0756,0.06457 -0.11119,0.07989 -0.006,0.0024 -0.0241,0.0024 -0.0185,0 0.15604,-0.06727 0.58054,-0.386625 0.6857,-0.511292 0.0522,-0.06192 0.0676,-0.119398 0.1112,-0.175757 0.0262,-0.0339 -0.0408,-0.316534 -0.0556,-0.36749 -0.004,-0.01326 -0.0812,-0.156028 -0.0927,-0.175755 -0.011,-0.01906 0.009,-0.04413 0,-0.06391 -0.006,-0.01399 -0.0274,-0.01942 -0.0371,-0.03196 -0.0307,-0.03964 -0.0552,-0.335035 -0.0556,-0.335536 -0.01,-0.01253 -0.0274,-0.01942 -0.0371,-0.03196 -0.0233,-0.03017 0.019,-0.09497 0,-0.127823 -0.027,-0.04657 -0.0214,-0.105826 -0.0371,-0.159778 -0.0283,-0.09767 -0.10001,-0.188415 -0.14827,-0.271624 -0.0138,-0.02383 -0.0415,-0.03954 -0.0556,-0.06391 -0.006,-0.0095 0.007,-0.02309 0,-0.03196 -0.0145,-0.0188 -0.0439,-0.02772 -0.0556,-0.04793 -0.0143,-0.02466 -0.009,-0.06998 -0.0185,-0.09587 -0.008,-0.02144 -0.0439,-0.02772 -0.0556,-0.04793 -0.0178,-0.03078 -0.0176,-0.07829 -0.0371,-0.111845 -0.0361,-0.06232 -0.0918,-0.126304 -0.12972,-0.191734 -0.0302,-0.05203 -0.0217,-0.07487 -0.0371,-0.127823 -0.009,-0.03109 -0.0577,-0.06761 -0.0741,-0.09587 -0.003,-0.0047 -0.009,-0.103893 -0.0371,-0.09587 -0.0178,0.0051 -0.0522,0.04636 -0.0556,0.06391 -0.0186,0.09641 -0.048,0.518178 -0.0185,0.607159 0.006,0.01846 0.0288,0.0301 0.0371,0.04793 0.0206,0.04447 0.008,0.110024 0.0371,0.15978 0.0148,0.02553 0.0185,0.06517 0.0185,0.09587 0,0.0053 0,0.0213 0,0.01597 0,-0.191617 -0.0664,-0.405473 -0.18532,-0.559224 -0.0415,-0.05371 -0.14874,-0.08071 -0.18533,-0.143801 -0.041,-0.07073 -0.0988,-0.127818 -0.14825,-0.191734 -0.0373,-0.04819 -0.0365,-0.09434 -0.0556,-0.143801 -0.0176,-0.04558 -0.0557,-0.08005 -0.0741,-0.127823 -0.0181,-0.04676 -0.006,-0.08519 -0.0556,-0.127823 -0.0435,-0.03747 0.004,0.0113 -0.0185,-0.04793 -0.0159,-0.04108 -0.0891,-0.07368 -0.1112,-0.111845 -0.003,-0.0048 0,-0.01065 0,-0.01598 -0.006,-0.01065 -0.0109,-0.02205 -0.0185,-0.03196 -0.0409,-0.05284 -0.11557,-0.08742 -0.14826,-0.143801 -0.0368,-0.06339 -0.0767,-0.132218 -0.11119,-0.191734 -0.0111,-0.01906 0.006,-0.04324 0,-0.06391 -0.006,-0.02192 -0.0399,-0.02986 -0.0556,-0.04793 -0.0298,-0.03426 -0.0222,-0.08924 -0.0371,-0.127823 -0.0169,-0.04381 -0.0586,-0.0716 -0.0741,-0.111845 -0.0315,-0.08135 0.006,-0.187664 -0.0185,-0.271623 -0.0211,-0.07287 -0.0713,-0.13398 -0.0927,-0.207712 -0.0124,-0.04283 0.004,-0.105023 -0.0185,-0.143801 -0.0139,-0.02391 -0.0445,-0.05437 -0.0556,-0.06391 -0.0463,-0.03994 0.0573,-0.194614 0.0741,-0.22369 0.0205,-0.03533 0.0115,-0.005 0.0371,-0.01598 0.0341,-0.01471 0.003,-0.03323 0.0371,-0.04793 0.12601,-0.05432 0.37135,-0.04793 0.51891,-0.04793 z"
       id="path5638"
       inkscape:connector-curvature="0" />
    <path
       style="display:inline;fill:#5a5161;fill-opacity:1;fill-rule:evenodd;stroke:none;stroke-width:0.26458334;stroke-miterlimit:4;stroke-dasharray:none;stroke-opacity:1"
       d="m 99.332408,41.251386 c -0.08146,0.04051 -0.219932,0.02891 -0.289638,0.124213 -0.02057,0.02811 -0.02935,0.07635 -0.04945,0.103839 -0.01207,0.01648 -0.03365,-0.0026 -0.04714,0.0101 -0.04091,0.03856 -0.08824,0.08578 -0.123554,0.150796 -0.02721,0.05011 -0.05068,0.06929 -0.08088,0.110574 -0.01448,0.01981 -0.02105,0.09309 -0.0382,0.07035 -0.0067,-0.0089 0.0091,-0.04769 0.01126,-0.03349 0.0033,0.02245 -0.0072,0.04123 -0.0068,0.06362 0.0013,0.06751 0.03216,0.297345 0.05364,0.361495 0.0059,0.0177 0.03891,0.06594 0.04484,0.08364 0.01638,0.04893 0.03477,0.185064 0.03576,0.240997 0.002,0.114171 0.01258,0.242265 0.002,0.34147 -0.007,0.0654 0.0471,0.179883 0.03576,0.240996 -0.0065,0.03496 -0.03591,0.07565 -0.01356,0.127231 0.0032,0.0074 0.02814,0.04649 0.0359,0.02339 0.02587,-0.07705 0.107201,-0.06134 0.163922,-0.09728 0.03983,-0.02524 0.08308,-0.05542 0.116781,-0.08718 0.04433,-0.04179 0.166151,-0.0414 0.208762,-0.01364 0.09095,0.05926 0.207635,-0.123221 0.298581,-0.06396 0.01514,0.0099 0.0257,0.0404 0.04037,0.05352 0.02758,0.02467 0.129727,-0.02779 0.157147,-0.03366 0.03934,-0.0084 0.152941,-0.063 0.181801,0.02322 0.0212,0.06329 -0.0365,0.399621 -0.0631,0.448676 -0.03033,0.05585 -0.05201,0.06804 -0.07641,0.140697 -0.02687,0.08003 -0.0843,0.07482 -0.103366,0.177555 -0.01268,0.06834 -0.04772,0.07239 -0.03821,0.07035 0.08697,-0.01863 0.07238,-0.0446 0.128024,-0.120672 0.02952,-0.04036 0.170044,-0.06751 0.215534,-0.07725 0.0669,-0.01432 0.0824,0.133096 0.047,0.207507 -0.0353,0.07414 -0.0708,0.09684 -0.10784,0.14743 -0.0388,0.0531 -0.269839,0.546319 -0.229368,0.639696 0.03213,0.07414 0.377118,-0.271305 0.381758,-0.268275 0.0249,0.01623 0.0237,0.05023 0.0291,0.08701 0.019,0.128 0.017,0.30293 -0.0406,0.381693 -0.022,0.0301 -0.0499,0.0024 -0.0741,0.04696 -0.0352,0.06479 0.016,0.07351 0.0673,0.01666 0.0651,-0.07204 0.085,-0.182134 0.1371,-0.278027 0.0773,-0.142363 -0.0363,0.09726 0.0696,-0.07708 0.12122,-0.19943 -0.10118,0.08397 0.0607,-0.137331 0.004,-0.0055 0.0105,-0.0022 0.0157,-0.0034 0.0142,-0.01341 0.0309,-0.02085 0.0427,-0.04022 0.0105,-0.01733 0.01,-0.05499 0.0225,-0.06698 0.0185,-0.01748 0.0274,0.07573 0.0336,0.117135 0.0141,0.09543 -0.005,0.187979 -0.007,0.281221 -6.6e-4,0.02311 0.0709,0.587192 0.0782,0.635981 0.008,0.05616 -0.002,0.0939 0.007,0.153991 0.003,0.02245 0.0306,0.03923 0.0247,0.05688 -0.004,0.01116 -0.0239,-0.01559 -0.0202,-0.02676 0.008,-0.02496 0.03,-0.02285 0.0427,-0.04022 0.0448,-0.06117 0.0951,-0.152978 0.12586,-0.244535 0.0403,-0.120082 0.011,-0.113677 0.0316,-0.224339 0.0221,-0.119185 0.0609,-0.224828 0.0967,-0.331544 0.0276,-0.08204 0.10825,-0.223363 0.11692,-0.304785 0.002,-0.01896 -0.0123,-0.0423 -0.009,-0.06025 0.006,-0.03252 0.0482,-0.114221 0.0607,-0.137331 0.0442,-0.08149 0.13631,-0.09577 0.18641,-0.164262 0.0911,-0.124595 0.19384,-0.192529 0.27854,-0.308326 0.0205,-0.02806 0.0975,-0.02089 0.12571,-0.02693 0.018,-0.0039 0.0623,-0.02743 0.0786,-0.01683 0.0603,0.03931 0.0565,0.151982 0.0829,0.230897 0.0703,0.210077 -0.0116,-0.04652 0.0448,0.08364 0.0371,0.08556 0.0409,0.306762 0.0424,0.394988 0.001,0.0792 0.0481,0.19735 0.0402,0.271121 -0.0184,0.172431 0.0458,0.363368 0.049,0.548975 9.9e-4,0.0647 -0.0102,0.09425 -0.009,0.157357 6.6e-4,0.04179 -0.002,0.466709 -0.0115,0.468701 -0.005,0.0011 -0.009,-0.03643 -0.004,-0.03012 0.0503,0.06672 -0.005,0.111088 0.083,0.01329 0.0199,-0.02201 0.038,-0.186419 0.0473,-0.227705 0.0303,-0.135447 0.0417,-0.298053 0.0833,-0.421918 0.0258,-0.07676 0.1089,-0.13076 0.15052,-0.187653 0.0181,-0.02477 0.0409,-0.06861 0.0741,-0.04696 0.0465,0.0303 0.0749,0.395583 0.0872,0.478625 0.0105,0.07061 0.006,0.156899 0.007,0.153992 0.0147,-0.04369 -0.002,-0.178626 9e-5,-0.217606 0.004,-0.06237 0.0264,-0.110095 0.0405,-0.164089 0.0221,-0.08429 0.0252,-0.06281 0.0607,-0.13733 0.0277,-0.05815 0.0398,-0.142797 0.0675,-0.200947 0.0776,-0.162908 0.14818,-0.293161 0.24495,-0.425457 0.0499,-0.06817 0.0601,-0.110582 0.12355,-0.150796 0.0278,-0.01764 0.0854,-0.03201 0.11447,0.0066 0.0104,0.01373 0.17006,0.924733 0.1677,1.020869 -0.002,0.06916 0.0263,0.185383 0.02,0.244364 -0.0136,0.127649 -0.007,0.171671 0.0133,0.30798 0.03,0.202415 0.0279,0.406254 0.058,0.609224 0.0119,0.08033 0.0238,0.160664 0.0358,0.240998 0.004,0.03012 0.0179,0.120498 0.0134,0.09037 -0.0706,-0.475675 0.17294,-0.902918 0.21407,-1.289145 0.001,-0.01446 0.0339,-0.166635 0.0405,-0.164089 0.0885,0.03433 0.18035,0.488474 0.21958,0.605686 0.0132,0.0394 0.0361,0.07436 0.0493,0.113765 0.0153,0.04586 0.0518,0.149869 0.065,0.110399 0.009,-0.02547 -0.032,-0.182691 -0.0313,-0.210872 8.3e-4,-0.03563 0.018,-0.06118 0.018,-0.09711 7e-5,-0.03985 -0.0143,-0.08008 -0.0179,-0.120499 -0.0163,-0.181843 0.002,-0.395639 0.0497,-0.539049 0.0303,-0.09013 0.23869,-0.633627 0.30117,-0.592913 0.0616,0.04014 0.0508,0.177466 0.0717,0.264389 0.0455,0.189688 0.22661,1.232976 0.23028,1.442613 9.9e-4,0.0567 10e-4,0.228146 0.009,0.277854 0.005,0.03621 0.018,-0.06118 0.018,-0.09711 1.1e-4,-0.01409 -0.0126,-0.249611 -0.009,-0.277855 0.008,-0.05969 0.0298,-0.106604 0.0405,-0.164088 0.0422,-0.227535 0.10123,-0.770726 0.22504,-0.887427 0.0595,-0.05611 0.0657,0.0829 0.0852,0.137158 0.0189,0.05252 0.0506,0.088 0.0695,0.140523 0.0401,0.111571 0.0301,0.266441 0.0738,0.388255 0.0258,0.07178 0.0528,0.09671 0.074,0.170649 0.009,0.02995 0.018,0.107573 0.0291,0.087 0.0392,-0.07227 0.0135,-0.08464 0.009,-0.157356 -0.005,-0.08856 0.0239,-0.485674 0.0654,-0.542416 0.0217,-0.02968 0.0624,-0.04909 0.0854,-0.08045 0.006,-0.0078 0.004,-0.0319 0.0112,-0.03349 0.0363,-0.0078 0.0521,0.151515 0.0583,0.174014 0.0395,0.145685 0.0847,0.266242 0.12544,0.408279 0.026,0.09072 0.0224,0.208213 0.0447,0.301245 0.0616,0.25671 -0.0134,-0.199537 0.0381,0.147256 0.0122,0.08234 -0.0103,-0.04353 0.0448,0.08364 0.011,0.02544 -0.002,0.09374 0.0134,0.09037 8.3e-4,-1.65e-4 0.0367,-0.278316 0.0384,-0.287953 0.0227,-0.136703 0.0266,-0.278929 0.0519,-0.415185 0.0114,-0.06118 0.0494,-0.103597 0.0562,-0.167455 0.003,-0.02845 -0.0141,-0.06073 -0.0134,-0.09037 0.002,-0.08199 0.0948,-0.315217 0.12369,-0.368401 0.022,-0.04046 0.0573,-0.05406 0.0854,-0.08045 0.0212,-0.02003 0.0704,-0.08513 0.10554,-0.05369 0.11012,0.09847 0.13947,0.326382 0.18599,0.488553 -10e-4,0.05655 0.0338,0.05057 0.0448,0.08364 0.0534,0.159634 0.0464,0.396566 0.049,0.548976 0.001,0.08743 0.0387,0.183688 0.0402,0.271121 0.003,0.14233 -0.0147,0.0102 -0.002,0.09374 0.0193,0.130253 0.0186,0.304776 0.0154,0.431844 -0.001,0.04937 0.008,0.100731 0.007,0.153991 -3.3e-4,0.0099 0.003,0.0391 0.004,0.03012 0.0367,-0.198042 -0.0211,-0.415162 -0.0108,-0.619324 0.005,-0.10064 0.0249,-0.192459 0.0383,-0.287954 0.0112,-0.07946 0.0547,-0.152749 0.063,-0.231071 0.003,-0.02999 -0.003,-0.06535 0.002,-0.09374 0.0125,-0.0674 0.0764,0.08891 0.0807,0.107034 0.0322,0.134267 0.0569,0.421442 0.0962,0.538874 0.0111,0.03307 0.0316,0.05307 0.0448,0.08364 0.0126,0.02917 0.0473,0.209839 0.0515,0.237633 0.003,0.02254 0.0682,0.303264 0.0761,0.294512 0.0485,-0.05367 0.10333,-0.322286 0.13494,-0.401892 0.0881,-0.221956 -0.0193,0.08506 0.0966,-0.113939 0.0207,-0.03549 0.0258,-0.09578 0.045,-0.133965 0.0284,-0.05635 0.0877,-0.04745 0.11678,-0.08718 0.0145,-0.01981 0.022,-0.05506 0.0382,-0.07035 0.0321,-0.03028 0.12299,-0.01852 0.16161,-0.0035 0.10001,0.0388 0.2503,0.882578 0.34733,0.920224 0.099,0.03841 0.13448,-0.26263 0.17531,-0.348377 0.0694,-0.145803 0.16354,-0.245719 0.25835,-0.335083 0.0171,-0.01609 0.0458,0.0026 0.0629,-0.01347 0.0243,-0.02294 0.0248,-0.05663 0.0584,-0.04359 0.0337,0.01308 0.0626,0.126528 0.074,0.170649 0.0482,0.186648 0.13511,0.351345 0.20618,0.515311 0.0368,0.08491 0.0586,0.214508 0.0918,0.291147 0.034,0.07835 0.0636,0.100439 0.0784,0.200772 0.009,0.0573 0.0202,0.253892 0.056,0.267754 0.0821,0.03187 0.14673,-0.08107 0.20659,-0.137504 0.0244,-0.02296 0.18263,-0.196419 0.19319,-0.227879 0.0155,-0.04603 0.009,-0.114693 0.0248,-0.160722 0.0618,-0.184063 0.14083,-0.3655 0.19116,-0.569347 0.0163,-0.06591 0.0109,-0.162892 0.0316,-0.224338 0.0237,-0.07069 0.0782,0.09991 0.0807,0.107033 0.0348,0.09702 0.0808,0.184099 0.10756,0.28778 0.019,0.07357 0.14054,0.673184 0.16566,0.6794 0.1125,0.02783 0.0469,-0.329925 0.0789,-0.452043 0.0268,-0.10234 0.0663,-0.152097 0.0698,-0.294686 0.001,-0.05702 -0.013,-0.221799 0.007,-0.281221 0.008,-0.02332 0.0711,-0.175849 0.0877,-0.174188 0.0888,0.0089 0.27496,0.357018 0.33189,0.48838 0.0279,0.06438 0.0662,0.09728 0.0897,0.167282 10e-4,0.004 0.007,0.08085 0.0247,0.05688 0.0394,-0.05388 0.0215,-0.296142 0.0406,-0.381693 0.0116,-0.05183 0.0746,-0.295729 0.10121,-0.301419 0.005,-0.0012 0.0671,0.07334 0.0763,0.07691 0.23874,0.09263 0.25824,0.460011 0.37659,0.789625 0.0117,0.03248 0.0338,0.05057 0.0448,0.08364 0.0204,0.06091 0.0109,0.149969 0.0313,0.210872 0.009,0.02594 0.03,0.02953 0.0404,0.05352 0.022,0.05082 0.11923,0.694239 0.14088,0.84012 0.01,0.06776 0.0333,0.361838 0.0738,0.388255 0.0548,0.03572 -0.003,-0.230963 -0.004,-0.247729 -0.009,-0.142383 0.14607,-0.843638 0.18684,-0.817077 0.0991,0.06457 0.32692,0.675936 0.343,0.672493 0.0483,-0.01034 0.0241,-0.2133 0.0271,-0.254462 0.007,-0.09117 0.0506,-0.258834 0.0608,-0.354936 0.009,-0.08822 0.0327,-0.705653 0.0386,-0.723163 0.0143,-0.04261 0.086,0.04138 0.0875,0.04342 0.13456,0.178389 0.27167,0.397178 0.39692,0.598779 0.0843,0.135729 -0.008,-0.03541 0.0965,0.103667 0.0233,0.03087 0.0529,0.131441 0.074,0.170648 6.6e-4,0.0011 0.0473,0.03844 0.0561,0.05015 0.0325,0.04311 0.0219,0.08984 0.0538,0.14389 0.0423,0.07189 0.0368,0.02616 0.065,0.110399 0.007,0.0205 0.0241,0.07898 0.0246,0.05689 8.2e-4,-0.03953 -0.0149,-0.0801 -0.0179,-0.120499 -0.009,-0.118209 0.0144,-0.22799 0.0137,-0.344837 -8.3e-4,-0.132312 -0.0714,-0.484518 -0.0624,-0.639349 0.008,-0.145422 0.11969,-0.287055 0.15065,-0.405259 0.0119,-0.04541 5e-5,-0.109013 0.009,-0.157356 0.006,-0.0348 0.0451,-0.134203 0.0562,-0.167455 0.008,-0.02496 0.0343,-0.01526 0.0427,-0.04022 0.0137,-0.04079 -0.003,-0.06888 0.018,-0.09711 0.0475,-0.06497 0.0914,0.07222 0.11664,0.130425 0.0376,0.08667 0.18765,0.597653 0.22174,0.72955 0.0222,0.08585 0.028,0.22309 0.0604,0.297877 0.0244,0.05636 0.0115,0.05124 0.0336,0.11713 0.0117,0.0348 0.0489,0.04547 0.0606,0.08028 0.0173,0.05157 0.0239,0.09257 0.0381,0.147256 0.0747,0.288971 0.0204,0.0578 0.0247,0.05688 0.005,-0.0011 0.006,0.04017 0.004,0.03012 -0.0126,-0.08487 -0.0558,-0.272874 -0.0536,-0.361495 0.003,-0.14532 -0.002,-0.434643 1.6e-4,-0.435212 0.0426,-0.0091 0.26548,0.646392 0.27595,0.220625 0.003,-0.132996 0.0263,-0.272605 0.0205,-0.408452 -0.005,-0.117457 -0.023,-2.48e-4 -0.007,-0.153991 0.0107,-0.100453 0.023,-0.202598 0.0182,-0.314712 -0.001,-0.02356 -0.0103,-0.235631 0.036,-0.194213 0.003,0.0029 0.24003,0.36246 0.25115,0.381348 0.0215,0.03652 -0.003,0.06872 0.0336,0.117133 0.0106,0.01411 0.0253,0.0093 0.0359,0.02339 0.0134,0.01775 0.0368,0.1151 0.0538,0.14389 0.0245,0.04163 0.0583,0.06159 0.0807,0.107033 0.005,0.01111 0.0439,0.145997 0.0695,0.140524 0.007,-0.0015 -0.0237,-0.09371 -0.0358,-0.240997 -0.0164,-0.199674 0.0368,-0.820561 0.20918,-0.666454 0.0347,0.03101 0.20087,0.316931 0.23544,0.384713 0.0423,0.08302 0.13093,0.368768 0.20632,0.297706 0.0401,-0.03779 0.0419,-0.121404 0.0719,-0.170821 0.10998,-0.180944 0.19614,-0.399759 0.22489,-0.669821 0.005,-0.04525 -0.0418,-0.581596 -0.0221,-0.585833 0.0454,-0.0097 0.19315,0.49897 0.21512,0.57556 0.008,0.02678 0.03,0.02953 0.0404,0.05352 0.0123,0.02844 -0.007,0.06361 0.0134,0.09037 0.007,0.0089 0.009,-0.02079 0.0113,-0.03349 0.003,-0.0152 -4.9e-4,-0.07854 0.002,-0.09374 0.0291,-0.156605 0.0405,-0.163621 0.0451,-0.35157 8.3e-4,-0.02964 -0.0164,-0.06193 -0.0134,-0.09037 0.004,-0.03817 0.0297,-0.0623 0.0337,-0.100474 0.004,-0.03545 -3.3e-4,-0.215299 9e-5,-0.217604 0.0195,-0.105389 0.0266,-0.02375 0.0293,-0.130598 0.24661,-0.44683 -0.28182,-0.874882 -1.44491,-0.995917 -0.0122,0.01349 -0.0125,0.04859 -0.0225,0.06698 -0.0219,0.04041 -0.097,-1e-4 -0.12571,0.02693 -0.0449,0.04233 -0.39324,0.216508 -0.45804,0.191368 -0.10102,-0.03919 -0.21224,-0.179113 -0.31185,-0.244017 -0.0363,-0.02367 -0.0815,0.0011 -0.11894,-0.03668 -0.0144,-0.01455 -0.0933,-0.156616 -0.11217,-0.100299 -0.008,0.02496 8.3e-4,0.06375 -0.002,0.09374 -0.01,0.09075 -0.0396,0.488917 -0.0812,0.545782 -0.008,0.01144 -0.0559,0.01197 -0.0629,0.01347 -0.0157,0.0034 -0.0311,0.02056 -0.0472,0.0101 -0.0858,-0.05593 -0.18782,-0.186435 -0.27594,-0.220624 -0.0611,-0.02369 -6.6e-4,0.05052 -0.0673,-0.01666 -0.0311,-0.03131 -0.0635,-0.08219 -0.0965,-0.103666 -0.031,-0.02018 -0.0581,0.003 -0.083,-0.01329 -0.0152,-0.0099 -0.0252,-0.04365 -0.0404,-0.05352 -0.0471,-0.03067 -0.27446,0.0588 -0.33001,0.0707 -0.0748,0.01602 -0.13847,-0.0122 -0.21323,-0.01648 -0.0899,-0.0051 -0.19267,0.09559 -0.28287,0.0606 -0.0508,-0.01971 -0.0974,0.019 -0.1459,1.65e-4 -0.0489,-0.01896 -0.0893,-0.05112 -0.13913,-0.06344 -0.0394,-0.0098 -0.0741,0.01975 -0.11447,-0.0066 -0.0352,-0.02291 -0.31622,-0.234278 -0.33204,-0.270775 -0.007,-0.01696 -0.003,-0.04191 -0.009,-0.06025 -0.0134,-0.04005 -0.0401,-0.0231 -0.0561,-0.05015 -0.0471,-0.07997 -0.0588,-0.200637 -0.11881,-0.254288 -0.0671,-0.06 -0.22005,0.187467 -0.27176,0.244709 -0.042,0.04655 -0.25427,0.119006 -0.30983,0.09745 -0.22498,-0.08729 -0.44223,-0.521727 -0.65729,-0.605165 -0.0204,-0.0079 -0.0404,-0.06712 -0.0605,-0.08027 -0.0894,-0.05826 -0.19725,-0.02921 -0.28503,-0.06327 -0.0413,-0.01604 -0.0973,-0.04723 -0.13913,-0.06344 -0.0163,-0.0063 -0.0311,0.02056 -0.0472,0.0101 -0.0151,-0.0099 -0.0257,-0.0404 -0.0404,-0.05352 -0.0631,-0.05641 -0.13724,-0.03961 -0.20198,-0.04998 -0.0371,-0.0059 -0.0456,-0.0569 -0.0763,-0.07691 -0.0378,-0.02467 -0.091,0.01199 -0.13019,-0.0032 -0.22889,-0.0888 -0.46163,-0.315045 -0.68439,-0.350703 -0.0492,-0.0079 -0.0881,-0.109892 -0.13236,-0.127057 -0.0468,-0.01818 -0.15666,0.01288 -0.1841,0.07052 -0.014,0.02937 -0.0137,0.08552 -0.0337,0.100473 -0.0408,0.03045 -0.3477,0.101683 -0.39287,0.08416 -0.0187,-0.0072 -0.0675,-0.09285 -0.0807,-0.107033 -0.0491,-0.05281 -0.13875,-0.122017 -0.17719,-0.210699 -0.0383,-0.08844 -0.0483,-0.142536 -0.12111,-0.160549 -0.10033,-0.02482 -0.19824,0.08879 -0.29858,0.06396 -0.049,-0.01212 -0.0553,-0.05929 -0.092,-0.07354 -0.0993,-0.03854 -0.2885,0.08097 -0.39734,0.05404 -0.0523,-0.01293 -0.0937,-0.02426 -0.15037,-0.02995 -0.0418,-0.0042 -0.0837,0.03732 -0.12572,0.02693 -0.027,-0.0067 -0.13179,-0.07227 -0.15931,-0.0902 -0.0517,-0.03371 -0.13993,0.02341 -0.19305,0.01027 -0.0115,-0.0028 -0.10267,-0.08715 -0.12788,-0.09693 -0.14968,-0.05807 -0.32599,-0.167311 -0.47347,-0.240477 -0.0656,-0.03256 -0.12665,-0.121957 -0.18844,-0.177208 -1e-4,-6.4e-5 -0.12334,-0.03151 -0.13466,-0.03332 -0.0435,-0.007 -0.0867,0.0076 -0.13018,-0.0032 -0.0478,-0.01183 -0.0776,-0.05547 -0.12342,-0.06681 -0.037,-0.0091 -0.073,0.03271 -0.11,0.02356 -0.0508,-0.01257 -0.11346,-0.0062 -0.16609,-0.02658 -0.0154,-0.006 -0.0252,-0.04365 -0.0404,-0.05352 -0.0394,-0.0257 -0.10505,0.01602 -0.1459,1.81e-4 -0.0567,-0.02199 -0.10782,-0.09861 -0.16378,-0.120324 -0.0278,-0.01078 -0.0778,-0.01729 -0.10323,-0.04005 -0.0465,-0.04154 -0.0972,-0.103946 -0.14807,-0.123692 -0.0258,-0.01001 -0.0112,0.03349 -0.0471,0.0101 -0.0301,-0.01958 -0.0649,-0.08312 -0.0965,-0.103665 -0.0172,-0.01122 -0.0463,0.01988 -0.0629,0.01347 -0.0738,-0.02865 -0.0798,0.0071 -0.15484,-0.06008 -0.0325,-0.02904 -0.3414,0.07314 -0.39287,0.08416 -0.15111,0.03237 -0.29061,0.03117 -0.44448,0.06414 -0.19056,0.04082 -0.41127,0.12827 -0.60163,0.0978 -0.0755,-0.01208 -0.14321,-0.08395 -0.21093,-0.110225 -0.0501,-0.01944 -0.10942,0.05021 -0.16162,0.0035 -0.022,-0.01967 -0.0375,-0.07132 -0.0606,-0.08027 -0.0408,-0.01585 -0.21905,0.0069 -0.24466,-0.0098 -0.0658,-0.0429 -0.14271,-0.06433 -0.20646,-0.0801 -0.0407,-0.01007 -0.085,0.04272 -0.12572,0.02693 -0.0475,-0.01843 -0.10188,0.022 -0.1459,1.82e-4 -0.0153,-0.0076 -0.0257,-0.0404 -0.0404,-0.05352 -0.0106,-0.0095 -0.24775,0.01744 -0.29181,3.47e-4 -0.0549,-0.02128 -0.11671,-0.06421 -0.17502,-0.08683 -0.03827,-0.01485 -0.169419,0.0053 -0.197514,-0.01985 -0.06648,-0.05944 -0.118107,-0.09451 -0.195213,-0.113591 -0.01088,-0.0027 -0.02073,0.01371 -0.03143,0.0067 -0.01514,-0.0099 -0.0257,-0.0404 -0.04037,-0.05352 -0.02262,-0.02023 -0.192736,-0.02088 -0.21323,-0.01649 z"
       id="path5652"
       inkscape:connector-curvature="0"
       inkscape:transform-center-x="3.086352"
       inkscape:transform-center-y="15.19263"
       sodipodi:nodetypes="ccccccccccccccccscsccccccccccccccccccccccccccccccccccccccccccccccccccccccccccccccccccccccccccccccccccccccccccccccccccccccccccccccccccccccccccccccccccccccccccccccccccccccccccccccccccccccccccccccccccccccccccccccccccccccccccccccccccccccccccccccccccccccccccccccccccccccccccccccsccccccccccccccccccccccsccccccccccccccccccccccccccccccccccc" />
    <path
       style="display:inline;fill:#5a5161;fill-opacity:1;fill-rule:evenodd;stroke:none;stroke-width:0.26458334;stroke-miterlimit:4;stroke-dasharray:none;stroke-opacity:1"
       d="m 97.293113,41.795052 c -0.03196,0.01598 -0.06391,0.03196 -0.09587,0.04793 -0.01065,0.01065 -0.01888,0.02448 -0.03196,0.03196 -0.07476,0.04272 -0.168351,0.07619 -0.239667,0.111845 -0.08379,0.0419 -0.176842,0.192602 -0.255647,0.255645 -0.06052,0.04841 -0.131312,0.07948 -0.191733,0.127823 -0.02864,0.02291 -0.04939,0.05955 -0.07989,0.07989 -0.109644,0.0731 -0.07963,0.111589 -0.143801,0.175756 -0.0084,0.0084 -0.02353,0.0076 -0.03196,0.01598 -0.01717,0.01718 -0.04793,0.07312 -0.04793,0.09587 0,0.0053 -0.0038,0.01974 0,0.01598 0.0084,-0.0084 0.0076,-0.02354 0.01597,-0.03196 0.01867,-0.01867 0.221375,-0.110303 0.271623,-0.143801 0.097,-0.06467 -0.05003,0.04599 0.07989,-0.03195 0.01291,-0.0078 0.01848,-0.02522 0.03196,-0.03196 0.0048,-0.0024 0,0.01065 0,0.01598 0,0.108977 -0.143782,0.202362 -0.207713,0.287602 -0.03096,0.04128 -0.01658,0.08878 -0.03195,0.111845 -0.01427,0.02141 -0.03995,0.03996 -0.04793,0.06391 -0.01108,0.03325 0.0069,0.07724 0,0.111845 -0.02691,0.134528 -3.3e-4,4.96e-4 -0.03196,0.06391 -0.0049,0.0098 -0.0068,0.175757 -0.07989,0.175757 -0.03536,0 0.03957,-0.07534 0.06391,-0.111845 0.01484,-0.02226 0.05471,-0.111845 0.07989,-0.111845 0.02476,0 0.01597,0.05569 0.01597,0.06391 0,0.08474 -0.08262,0.343731 -0.111845,0.431402 -0.0178,0.05339 -0.01788,0.323363 -0.03195,0.351513 -0.01855,0.0371 -0.06391,0.140707 -0.06391,0.175756 0,0.05495 -0.01984,0.06338 -0.03196,0.111845 -0.0059,0.02367 0.0089,0.0577 0,0.07989 -0.0084,0.02098 -0.02534,0.04793 -0.04793,0.04793 -0.02505,0 0.05336,-0.130617 0.127822,-0.22369 0.03468,-0.04335 0.01963,-0.03561 0.06391,-0.07989 0.0053,-0.0053 0.0095,-0.08956 0.04793,-0.06391 0.07945,0.05297 0.03827,0.210685 0.06391,0.287602 0.0048,0.01429 0.0236,0.01942 0.03196,0.03196 0.0059,0.0089 -0.0048,0.02243 0,0.03195 0.0097,0.01936 0.09173,0.116874 0.111845,0.111845 0.01863,-0.0047 0.03435,-0.01838 0.04793,-0.03195 0.0142,-0.01421 0.01809,-0.08412 0.03195,-0.111845 0.02408,-0.04816 0.05485,-0.105395 0.06391,-0.159779 0.0191,-0.114596 -0.01857,-0.171873 0.04793,-0.271623 0.03437,-0.05155 8.27e-4,-0.06391 0.07989,-0.06391 0.05276,0 0.07125,0.0069 0.09587,0.04793 0.0099,0.01647 0.0213,0.03196 0.03195,0.04793 0.0053,0.0213 0.0051,0.04485 0.01597,0.06391 0.02242,0.03924 0.0708,0.05826 0.09587,0.09587 0.0222,0.0333 0.02907,0.09639 0.04793,0.127822 0.03884,0.06473 0.08564,0.112487 0.127822,0.175757 0.01352,0.02029 0.0522,0.09587 0.07989,0.09587 0.03444,0 0.01597,-0.124374 0.01597,-0.143801 0,-0.09713 0.02481,-0.328579 0,-0.415424 -0.03949,-0.138207 -0.03195,0.05291 -0.03195,-0.06391 0,-0.03643 -0.01599,-0.07174 -0.01599,-0.111845 0,-0.02196 -4.96e-4,-0.07944 -0.01597,-0.06391 -0.0541,0.0541 0.173748,0.136092 0.191734,0.1438 0.06826,0.02925 0.09489,0.09489 0.143801,0.143801 0.05669,0.05669 0.122742,0.09333 0.191734,0.127823 0.0067,0.0034 0.0084,0.01598 0.01597,0.01598 0.03036,0 -0.109222,-0.2504 -0.111845,-0.255646 -0.03652,-0.07304 -0.07002,-0.162111 -0.09587,-0.239667 -0.0086,-0.02576 -0.002,-0.0566 -0.01597,-0.07989 -0.05906,-0.09844 -0.143108,-0.242442 -0.111845,-0.367491 0.0088,-0.03507 0.0342,-0.03644 0.04793,-0.06391 0.0048,-0.0095 -0.0048,-0.02243 0,-0.03196 0.01035,-0.02069 0.04595,-0.01998 0.06391,-0.03196 0.02802,-0.01868 0.03437,-0.0061 0.06391,-0.01598 0.09825,-0.03275 0.06851,-0.05932 0.159778,0.03196 0.01046,0.01046 0.132692,0.09424 0.07989,0.111845 -0.03288,0.01096 -0.19676,-0.142897 -0.207712,-0.175756 -0.01448,-0.04347 -0.0188,-0.202066 0,-0.239668 0.04218,-0.08435 0.195883,-0.166487 0.271623,-0.191734 0.02267,-0.0076 0.0587,0.0106 0.07989,0 0.0665,-0.03325 -0.01708,0.0011 0.01597,-0.03196 0.01463,-0.01464 0.123321,-0.0183 0.143802,-0.03196 0.0188,-0.01253 0.0265,-0.04079 0.04793,-0.04793 0.01516,-0.0051 0.03364,0.0071 0.04793,0 0.04994,-0.02497 0.151089,-0.126422 0.175755,-0.175756 0.01605,-0.03211 0,-0.107529 0,-0.143801 0,-0.19263 -0.107024,-0.248416 -0.207712,-0.399446 -0.01336,-0.02004 -0.02358,-0.05174 -0.04793,-0.06391 -0.109487,-0.05474 -0.536685,-0.04957 -0.671069,-0.01598 -0.0465,0.01162 -0.04578,0.03656 -0.07989,0.04793 -0.02021,0.0067 -0.0437,-0.0067 -0.06391,0 -0.02946,0.0098 -0.03404,0.05211 -0.04793,0.07989 z"
       id="path5641"
       inkscape:connector-curvature="0" />
    <path
       style="display:inline;fill:#835642;fill-opacity:1;fill-rule:evenodd;stroke:none;stroke-width:0.26458334;stroke-miterlimit:4;stroke-dasharray:none;stroke-opacity:1"
       d="m 98.878791,43.181754 v -0.390781 l 0.01532,-0.137922 0.05364,-0.367794 0.07662,-0.383119 0.0077,-0.383118 -0.09961,-0.459742 -0.168572,-0.337145 -0.137924,-0.222208 -0.229871,-0.206884 -0.214546,-0.107274 H 98.03592 l -0.122596,0.01533 -0.08429,0.07662 -0.02299,0.08429 0.04597,0.114935 v 0.268183 l -0.04597,0.130261 c 0,0 -0.0077,0.176234 -0.0077,0.214546 0,0.03831 -0.01532,0.229871 -0.01532,0.229871 l 0.02299,0.137923 -0.02299,0.153247 0.04597,0.245196 0.03831,0.122598 0.0613,0.153247 c 0,0 0.05364,0.114936 0.05364,0.153247 0,0.03831 0.02299,0.168573 0.02299,0.168573 l -0.03831,0.137922 -0.02299,0.122598 0.01532,0.130261 0.176235,0.191559 c 0,0 0.03065,0.08429 0.07662,0.09961 0.04597,0.01532 0.183897,0.05364 0.183897,0.05364 l 0.306494,0.02299 0.0613,-0.01532 z"
       id="path4519"
       inkscape:connector-curvature="0" />
    <path
       style="display:inline;fill:#000000;fill-opacity:1;fill-rule:evenodd;stroke:#000000;stroke-width:0.264584;stroke-miterlimit:4;stroke-dasharray:none;stroke-opacity:1"
       d="m 96.906313,45.577208 c 0.08369,0 0.167377,0 0.251065,0 0.07665,0.06109 0.145991,0.130483 0.218318,0.196486 0.02183,0.04002 0.04366,0.08005 0.06549,0.120075 -0.07414,0.07283 -0.144628,0.149556 -0.224868,0.215862 -0.07008,0.06309 -0.142686,0.123149 -0.216939,0.181247 -0.01762,0.01272 -0.03357,0.02957 -0.05221,0.0398 -0.11277,0.01037 -0.225652,0.02293 -0.338352,0.03193 -0.09069,-0.01887 -0.18249,-0.03504 -0.272479,-0.05559 -0.02105,-0.01403 -0.0421,-0.02807 -0.06315,-0.0421 0.02408,-0.108129 0.03771,-0.218086 0.05458,-0.327477 0.01966,-0.04498 0.03634,-0.09162 0.05785,-0.135574 0.03529,-0.04941 0.07059,-0.09883 0.105885,-0.14824 0.07472,-0.02151 0.148837,-0.04648 0.223939,-0.06581 0.06362,-0.0035 0.127244,-0.0071 0.190866,-0.0106 z"
       id="path4525"
       inkscape:connector-curvature="0" />
    <path
       style="display:inline;fill:#000000;fill-opacity:1;fill-rule:evenodd;stroke:#000000;stroke-width:0.264584;stroke-miterlimit:4;stroke-dasharray:none;stroke-opacity:1"
       d="m 93.511465,50.969666 c 0.08443,0.09029 0.170045,0.179497 0.251067,0.272897 -8.27e-4,0.09795 4.96e-4,0.195848 0.0054,0.293679 0.0018,0.04765 0.0037,0.09531 0.0055,0.142957 -0.02547,0.04367 -0.05094,0.08733 -0.07641,0.130992 -0.06913,0.03639 -0.138268,0.07277 -0.207402,0.109159 -0.06251,-0.01166 -0.12589,-0.02097 -0.187868,-0.03409 -0.08656,-0.05049 -0.173123,-0.100989 -0.259684,-0.151482 -0.02163,-0.05645 -0.04669,-0.112004 -0.0662,-0.169011 -0.0065,-0.0546 -0.0161,-0.109122 -0.02069,-0.163768 0.0055,-0.0711 0.01087,-0.142219 0.02382,-0.212437 0.0052,-0.0268 0.0039,-0.05586 0.02168,-0.07825 0.03927,-0.06871 0.07853,-0.137427 0.117796,-0.206142 0.04088,-0.01022 0.08176,-0.02417 0.12264,-0.03205 0.05591,0.01642 0.11391,0.0268 0.166401,0.053 0.03465,0.01485 0.06929,0.0297 0.103936,0.04454 z"
       id="path4527"
       inkscape:connector-curvature="0" />
    <path
       style="display:inline;fill:none;fill-opacity:1;fill-rule:evenodd;stroke:#000000;stroke-width:0.264584;stroke-miterlimit:4;stroke-dasharray:none;stroke-opacity:1"
       d="m 94.155504,52.858117 0.152823,-0.109158 0.141907,-0.120076 0.141906,-0.174655 0.141907,-0.18557 0.141907,-0.163738 0.07641,-0.141908 0.09824,-0.13099 0.0655,-0.08733 0.01091,-0.01091"
       id="path4529"
       inkscape:connector-curvature="0" />
  </g>
  <g
     style="display:inline"
     inkscape:label="Smile"
     id="layer3"
     inkscape:groupmode="layer">
    <g
       style="display:inline;stroke-width:1.9056;stroke-miterlimit:4;stroke-dasharray:none"
       transform="matrix(-0.09027172,0.10758244,0.1051554,0.08823519,-3.4975581,-7.2152511)"
       id="g856">
      <path
         id="path835"
         d="m 38.742559,117.92857 c 0,0 10.583333,5.29167 27.592263,4.91369 17.008927,-0.37798 20.032736,-10.58333 20.032736,-10.58333 0,0 -0.377976,30.23809 -18.898809,28.72619 -18.520833,-1.51191 -28.72619,-23.05655 -28.72619,-23.05655 z"
         style="fill:#ffffff;fill-opacity:1;stroke:#000000;stroke-width:1.9056;stroke-linecap:butt;stroke-linejoin:miter;stroke-miterlimit:4;stroke-dasharray:none;stroke-opacity:1" />
      <path
         id="path837"
         d="m 67.468749,122.84226 1.511906,18.14286"
         style="fill:none;stroke:#000000;stroke-width:1.9056;stroke-linecap:butt;stroke-linejoin:miter;stroke-miterlimit:4;stroke-dasharray:none;stroke-opacity:1" />
      <path
         sodipodi:nodetypes="cc"
         id="path839"
         d="m 74.405957,121.92974 1.756244,16.78752"
         style="fill:none;stroke:#000000;stroke-width:1.9056;stroke-linecap:butt;stroke-linejoin:miter;stroke-miterlimit:4;stroke-dasharray:none;stroke-opacity:1" />
      <path
         sodipodi:nodetypes="cc"
         id="path841"
         d="m 79.808329,119.68482 2.157149,12.00746"
         style="fill:none;stroke:#000000;stroke-width:1.9056;stroke-linecap:butt;stroke-linejoin:miter;stroke-miterlimit:4;stroke-dasharray:none;stroke-opacity:1" />
      <path
         sodipodi:nodetypes="cc"
         id="path843"
         d="m 60.798812,122.86518 1.000295,16.98601"
         style="fill:none;stroke:#000000;stroke-width:1.9056;stroke-linecap:butt;stroke-linejoin:miter;stroke-miterlimit:4;stroke-dasharray:none;stroke-opacity:1" />
      <path
         sodipodi:nodetypes="cc"
         id="path845"
         d="m 53.105655,121.97804 0.488682,13.71541"
         style="fill:none;stroke:#000000;stroke-width:1.9056;stroke-linecap:butt;stroke-linejoin:miter;stroke-miterlimit:4;stroke-dasharray:none;stroke-opacity:1" />
      <path
         sodipodi:nodetypes="cc"
         id="path847"
         d="m 47.813989,120.95238 0.133635,9.8503"
         style="fill:none;stroke:#000000;stroke-width:1.9056;stroke-linecap:butt;stroke-linejoin:miter;stroke-miterlimit:4;stroke-dasharray:none;stroke-opacity:1" />
    </g>
  </g>
</svg>
