<?xml version="1.0" encoding="UTF-8" standalone="no"?>
<svg
   xmlns:dc="http://purl.org/dc/elements/1.1/"
   xmlns:cc="http://creativecommons.org/ns#"
   xmlns:rdf="http://www.w3.org/1999/02/22-rdf-syntax-ns#"
   xmlns:svg="http://www.w3.org/2000/svg"
   xmlns="http://www.w3.org/2000/svg"
   xmlns:sodipodi="http://sodipodi.sourceforge.net/DTD/sodipodi-0.dtd"
   xmlns:inkscape="http://www.inkscape.org/namespaces/inkscape"
   width="183.84782"
   height="130"
   viewBox="0 0 48.643069 34.395835"
   version="1.1"
   id="svg9866"
   inkscape:version="1.0 (4035a4fb49, 2020-05-01)"
   sodipodi:docname="horse02_smile.svg"
   inkscape:export-filename="C:\Users\ashley\Pictures\Games\CoolSodaCan\export\graphics.unpacked\horse02_smile.png"
   inkscape:export-xdpi="96"
   inkscape:export-ydpi="96">
  <defs
     id="defs9860" />
  <sodipodi:namedview
     id="base"
     pagecolor="#ffffff"
     bordercolor="#666666"
     borderopacity="1.0"
     inkscape:pageopacity="0.0"
     inkscape:pageshadow="2"
     inkscape:zoom="4"
     inkscape:cx="76.205455"
     inkscape:cy="69.352941"
     inkscape:document-units="px"
     inkscape:current-layer="layer8"
     showgrid="false"
     units="px"
     inkscape:window-width="1920"
     inkscape:window-height="1017"
     inkscape:window-x="1072"
     inkscape:window-y="302"
     inkscape:window-maximized="1"
     inkscape:snap-grids="false"
     inkscape:snap-to-guides="false"
     inkscape:snap-page="true"
     fit-margin-top="0"
     fit-margin-left="0"
     fit-margin-right="0"
     fit-margin-bottom="0"
     inkscape:document-rotation="0" />
  <metadata
     id="metadata9863">
    <rdf:RDF>
      <cc:Work
         rdf:about="">
        <dc:format>image/svg+xml</dc:format>
        <dc:type
           rdf:resource="http://purl.org/dc/dcmitype/StillImage" />
        <dc:title></dc:title>
      </cc:Work>
    </rdf:RDF>
  </metadata>
  <g
     inkscape:groupmode="layer"
     id="layer8"
     inkscape:label="horse"
     style="display:inline"
     transform="translate(-99.442994,-22.925368)">
    <g
       id="g2344"
       transform="matrix(0.14023731,0,0,0.14023731,85.497376,19.710376)"
       style="stroke:#000000;stroke-opacity:1;stroke-width:1.88668291;stroke-miterlimit:4;stroke-dasharray:none">
      <path
         inkscape:connector-curvature="0"
         id="path11153"
         d="m 300.50442,251.57207 -0.56028,5.22941 -0.93385,5.41617 -0.37351,1.30736 0.56028,0.18676 0.18677,0.37353 3.92205,-2.42794 5.41618,-2.98824 3.73531,-2.24117 1.68087,-1.49412 v -2.80147 -2.24118 l -5.97646,-0.37353 -2.98823,0.74706 z"
         style="display:inline;fill:#867152;fill-opacity:1;fill-rule:evenodd;stroke:#000000;stroke-width:1.88668291;stroke-linecap:round;stroke-miterlimit:4;stroke-dasharray:none;stroke-opacity:1" />
      <path
         inkscape:connector-curvature="0"
         id="path11155"
         d="m 380.06619,256.61471 2.80146,0.18677 2.61472,0.74705 2.24118,0.74706 2.80146,1.12059 3.73528,1.86765 1.30736,1.49412 0.37354,2.6147 -4.48236,-0.37351 -2.05441,0.56028 -3.36177,-0.18677 -6.53677,0.56031 -6.35,-0.37354 c 0,0 -2.80146,-1.12059 -1.86764,-1.68089 0.93382,-0.56029 1.12059,-1.68088 2.05441,-2.05441 0.93382,-0.37353 4.10882,-2.98823 4.10882,-2.98823 z"
         style="display:inline;fill:#867152;fill-opacity:1;fill-rule:evenodd;stroke:#000000;stroke-width:1.88668291;stroke-linecap:round;stroke-miterlimit:4;stroke-dasharray:none;stroke-opacity:1" />
      <path
         inkscape:connector-curvature="0"
         id="path11157"
         d="m 226.73236,259.60295 -2.61471,3.36176 -1.68088,2.98825 -1.30735,1.4941 4.48235,0.74708 5.60294,-0.37354 c 0,0 2.61471,-0.56031 3.54853,-0.37354 0.93382,0.18677 5.04265,-0.37351 5.04265,-0.37351 l 1.86765,-0.56031 -0.93383,-0.93382 -1.86765,-2.42794 -6.35,-2.98824 -2.05441,-0.74706 h -4.85588 z"
         style="display:inline;fill:#867152;fill-opacity:1;fill-rule:evenodd;stroke:#000000;stroke-width:1.88668291;stroke-linecap:round;stroke-miterlimit:4;stroke-dasharray:none;stroke-opacity:1" />
      <path
         inkscape:connector-curvature="0"
         id="path11159"
         d="m 156.50883,241.30001 -3.92206,2.42794 -0.93383,2.05441 -2.42794,2.24117 -1.86764,3.7353 v 1.49412 l 1.49412,1.86764 1.68088,1.68089 1.49412,2.98823 1.68088,1.30736 1.49412,-1.49412 0.93382,-4.29559 0.93382,-2.98824 0.5603,-5.04264 1.49411,-2.80147 -0.56029,-2.61471 z"
         style="display:inline;fill:#867152;fill-opacity:1;fill-rule:evenodd;stroke:#000000;stroke-width:1.88668291;stroke-linecap:round;stroke-miterlimit:4;stroke-dasharray:none;stroke-opacity:1" />
      <path
         inkscape:connector-curvature="0"
         id="path11162"
         d="m 227.19927,259.78971 2.70809,-0.0934 1.5875,0.46691 1.86765,0.65368 2.24117,0.74706 1.77427,1.0272 1.86765,1.5875 1.30735,0.0934 1.0272,-0.84045 0.0934,-1.96103 -2.70809,-2.52132 0.74706,-2.6147 1.96103,-3.36177 1.5875,-1.96103 c 0,0 1.0272,-1.77426 1.40073,-2.14779 0.37353,-0.37353 0.65368,-2.80147 0.65368,-2.80147 l 0.0934,-3.45515 -1.68088,-4.10883 -1.77427,-4.2022 -1.12058,-3.26838 -2.05442,-3.92206 -1.5875,-4.38897 -1.30735,-5.97647 -0.84044,-3.175 0.74706,-3.36177 -0.65368,-1.30735 -1.02721,-4.38897 -1.49411,-4.85589 -0.84044,-3.64191 -0.74706,-4.57573 -1.30735,-3.175 c 0,0 -0.93383,-3.54853 -0.93383,-3.92206 0,-0.37353 -1.12059,-3.92206 -1.12059,-3.92206 l -0.93382,-3.45515 -0.74706,-3.64191 -0.65368,-5.88309 -5.69632,-5.32279 -8.03088,1.68088 -7.9375,3.45515 -2.98824,3.54853 2.05441,2.89485 1.68089,1.49412 1.5875,2.52132 1.86764,2.98824 1.5875,3.26838 1.40074,2.52132 1.49412,3.64191 1.68088,3.54853 1.49412,3.08162 1.96103,4.48235 1.40073,3.64192 1.02721,3.45514 2.24117,4.66912 1.30736,3.7353 0.84044,1.77426 1.21397,2.52132 1.77426,2.89486 1.49412,2.6147 0.84044,2.80147 1.5875,4.01545 1.21397,3.64191 0.84044,1.96103 0.37353,1.77426 0.5603,2.98824 v 2.89485 l -0.37353,2.52132 -0.93382,2.52133 -0.74706,1.86764 -1.5875,2.05442 -1.40074,2.14779 -1.12059,0.93382 z"
         style="display:inline;fill:#af987b;fill-opacity:1;fill-rule:evenodd;stroke:#000000;stroke-width:1.88668291;stroke-linecap:round;stroke-miterlimit:4;stroke-dasharray:none;stroke-opacity:1" />
      <path
         inkscape:connector-curvature="0"
         id="path11164"
         d="m 301.23477,248.83851 -1.0565,1.71682 0.13208,0.8584 c 0,0 0.85838,0.1981 1.32061,0.13206 0.46223,-0.066 2.44316,-0.66031 2.44316,-0.66031 l 4.4241,-0.79237 2.9714,-0.46222 2.31111,0.26412 0.52824,-0.26412 -0.52824,-1.84888 -1.71682,-1.45269 -0.26414,-1.51872 1.78287,-1.65078 c 0,0 0.99047,-1.32062 1.38665,-1.58475 0.39619,-0.26413 1.71681,-3.03744 1.71681,-3.03744 l 0.85841,-1.65078 1.4527,-2.44316 1.84885,-3.03744 2.24507,-3.63172 4.09395,-5.34854 2.70727,-3.96187 2.7073,-3.82982 2.17903,-2.83934 2.64125,-2.83935 0.99047,-1.78285 1.78284,-2.77331 1.38666,-1.84888 c 0,0 1.65078,-2.17903 1.91492,-2.24506 0.26411,-0.066 2.50917,-3.03744 2.50917,-3.03744 0,0 0.72634,-0.72634 0.72634,-1.12253 0,-0.39619 0,-1.98094 0,-1.98094 l -0.92443,-2.64125 -2.24507,-3.16951 -2.70727,-5.01837 -2.37712,-4.15998 -1.18859,-3.43362 c 0,0 -1.05648,-2.70729 -1.05648,-2.97141 0,-0.26413 -0.59428,-3.76378 -0.59428,-3.76378 l -0.39619,-1.84888 -0.19809,-2.64125 0.26411,-1.32063 0.46222,-2.50919 1.05651,-8.18788 -10.63104,-9.57454 c 0,0 -12.08373,-3.82981 -12.34786,-4.29203 -0.26411,-0.46222 -16.50783,3.49966 -16.50783,3.49966 l -2.90537,6.86725 2.57522,5.94282 4.95234,1.71681 1.98096,1.65079 0.52824,0.92443 0.99047,2.37713 1.32061,2.37713 2.17906,4.09394 1.65076,3.43362 1.71683,3.16951 0.33015,1.12253 1.18856,3.69775 1.51873,3.1695 1.32062,2.17904 1.98093,2.17903 1.58475,1.91491 1.4527,2.83934 1.0565,1.98094 0.46223,1.51872 0.72633,2.44316 0.46223,2.57522 0.33015,2.50919 -0.066,2.44316 -1.05648,2.97141 -1.4527,2.37712 -1.65079,2.97141 -2.64125,3.10347 -1.2546,1.91491 -2.31109,2.97141 -2.9714,3.63172 -1.91492,2.70728 -1.78284,2.113 -1.9149,2.11301 -0.92445,1.84887 -0.52824,2.113 0.066,1.65078 -0.46223,2.50919 -0.26413,2.11301 -0.59428,2.31109 -0.72634,2.04697 -0.066,0.39619 z"
         style="display:inline;fill:#af987b;fill-opacity:1;fill-rule:evenodd;stroke:#000000;stroke-width:1.88668291;stroke-linecap:round;stroke-miterlimit:4;stroke-dasharray:none;stroke-opacity:1" />
      <path
         inkscape:connector-curvature="0"
         id="path11169"
         d="m 117.00746,23.209571 0.79237,1.848877 0.66032,0.858406 1.65078,1.650783 1.32063,1.056499 1.32062,0.990471 2.50919,1.782844 1.65078,1.056503 2.64125,2.707283 2.44316,4.886314 -3.76378,1.980941 h -3.89585 l -2.37713,-3.565692 -0.66031,-1.914906 -0.39619,-0.924438 -1.71681,-2.509189 -0.85841,-2.44316 -0.72634,-2.773313 -0.1981,-1.386657 -0.52824,-1.848877 -0.1981,-0.660313 z"
         style="display:inline;fill:#7f898b;fill-opacity:1;fill-rule:evenodd;stroke:#000000;stroke-width:1.88668291;stroke-linecap:round;stroke-miterlimit:4;stroke-dasharray:none;stroke-opacity:1" />
      <path
         inkscape:connector-curvature="0"
         id="path11172"
         d="m 117.46968,24.926384 0.79237,1.386657 0.72635,1.320626 0.85841,1.914908 0.59428,1.782845 0.72634,1.188564 0.19809,1.65078 0.52826,1.914909 -0.72635,-0.396187 -1.12253,-1.386658 -0.85841,-2.113002 -0.85841,-1.518719 -0.33015,-1.782844 -0.26413,-1.254596 -0.26412,-1.51872 V 25.25654 Z"
         style="display:inline;fill:#0c0301;fill-opacity:1;fill-rule:evenodd;stroke:#000000;stroke-width:1.88668291;stroke-linecap:round;stroke-miterlimit:4;stroke-dasharray:none;stroke-opacity:1" />
      <path
         inkscape:connector-curvature="0"
         id="path4508"
         d="m 147.31582,252.4042 1.12254,-1.98094 1.0565,-1.84887 0.99047,-2.113 0.8584,-0.85841 1.32063,-0.99047 2.113,-1.18856 1.65078,-1.45269 0.52825,-0.59428 -0.79237,-1.45269 -0.66032,-1.12254 -1.51871,-0.33015 -3.03745,0.46222 -0.19809,0.13206 -1.65078,-2.3111 0.39619,-0.79237 0.72634,-0.52825 0.33016,-1.58475 -0.59428,-1.18857 -1.58475,-1.12253 -0.13207,-2.04697 -0.79237,-2.31109 -0.1981,-2.97141 0.066,-2.64125 c 0,0 0.1981,-1.98094 0.1981,-2.24507 0,-0.26412 -0.13206,-2.50919 -0.13206,-2.50919 l 0.13206,-2.31109 0.52825,-2.77332 0.66031,-2.77331 0.66031,-1.91491 0.79238,-1.65078 1.25459,-1.45269 1.2546,-1.45269 1.32063,-0.99047 1.71681,-0.92444 1.84887,-0.99047 2.57523,-1.32062 2.37712,-1.38666 2.44316,-0.46222 3.23553,-1.45269 1.78285,-0.66031 3.56569,-1.58475 3.03744,-1.71681 4.62219,-2.24507 2.37713,-1.38666 2.50919,-1.38665 2.44315,-1.58475 2.50919,-1.51872 3.76379,-1.32063 1.51872,-0.39619 2.90537,-0.66031 2.50919,-1.0565 1.0565,-2.37713 0.66032,-1.84887 0.92444,-2.77332 0.66031,-0.92444 1.25459,-0.26412 2.57522,-0.13207 2.57522,-0.33015 h 3.03744 l 3.89585,0.52825 c 0,0 3.1695,0 3.49966,0 0.33015,0 4.29203,-0.13206 4.29203,-0.13206 l 1.78285,0.13206 h 4.29203 l 4.55616,-0.13206 5.54663,0.13206 4.88632,-0.33016 h 2.31109 l 4.02791,-0.33015 3.3676,-0.46222 6.20694,-0.92444 3.96187,-0.59428 5.41457,-1.2546 5.94283,-1.58475 0.79237,-0.26412 4.09393,-1.2546 3.03744,-0.8584 7.5936,-3.30157 1.98093,-0.99047 3.56571,-1.38666 4.15997,-1.38665 3.10348,-0.66032 5.01835,-0.46222 3.69777,-0.066 h 4.35805 l 3.10349,1.51872 4.62219,0.99047 1.32061,0.92444 1.65079,0.52825 1.58475,0.85841 1.51873,1.12253 1.65077,1.71681 4.15999,3.76379 1.91489,1.84887 2.90539,2.70729 2.17903,2.37712 1.98094,1.71682 1.0565,1.32062 2.57522,2.77332 2.04698,2.57522 1.98093,2.113 1.38666,1.98094 2.44316,3.43363 1.7168,1.84887 1.65079,1.45269 1.65079,0.85841 1.91489,1.25459 1.58475,1.51872 2.04698,2.04697 0.72633,1.45269 1.05651,1.71681 0.46223,1.45269 0.72633,1.2546 1.2546,1.38665 1.7168,1.2546 0.85842,1.45269 0.92445,1.91491 0.72634,1.84887 0.26413,1.71681 0.39619,1.2546 0.39618,1.71681 0.4622,1.45269 1.05651,4.15998 0.59428,2.64125 0.46223,3.03744 0.26413,1.71681 0.33015,2.24506 0.39619,2.70729 0.26413,2.31109 0.19809,1.45269 -0.13208,1.38666 0.1981,1.58475 0.19809,1.32062 0.13208,1.18857 0.1981,1.65078 -0.26414,2.57522 -0.26413,0.99047 -0.6603,1.91491 -0.66032,1.78284 -1.71682,2.3111 -0.46221,0.92444 -0.13208,0.92444 0.92446,0.33015 2.50917,0.85841 c 0,0 2.11302,0.46222 2.37713,0.66031 0.26413,0.1981 2.90539,1.32063 2.90539,1.32063 l 1.12252,-0.066 0.66032,0.59428 1.45269,0.72634 1.4527,0.99047 c 0,0 0.59428,0.39619 0.85839,0.26413 0.26413,-0.13207 -0.1981,-2.24507 -0.1981,-2.24507 l -1.32061,-1.9149 -1.71683,-2.37713 0.066,-2.17903 0.19809,-1.0565 0.26414,-0.79238 1.0565,-1.78284 1.78285,-2.11301 c 0,0 0.72633,-0.92444 1.18856,-1.38665 0.4622,-0.46222 0.52824,-1.51872 0.52824,-1.51872 v -1.65079 l -0.1981,-2.04697 c 0,0 -0.13205,-2.17903 -0.66032,-3.1695 -0.52824,-0.99047 -0.92442,-1.71681 -0.92442,-1.71681 l -0.66032,-2.57522 -1.12253,-3.69776 -0.66032,-4.49012 -0.33014,-3.89585 -0.46223,-2.3111 -0.72633,-3.43362 -0.85842,-4.09394 -0.19809,-2.64125 -0.33015,-2.77332 -0.33017,-1.45269 -0.4622,-2.64125 -0.33018,-3.30157 -0.13205,-1.84887 -0.13205,-2.3111 0.2641,-2.04697 0.33018,-1.58475 -0.39619,-1.84887 -0.99049,-1.78285 -1.32062,-0.85841 -2.37712,-2.44315 -1.38666,-1.2546 -2.11301,-1.98094 -1.84886,-2.31109 -2.83935,-3.63173 -1.78284,-1.84887 -1.18859,-2.04697 -1.18856,-1.65078 -1.32061,-2.77332 -0.66032,-1.58475 -0.4622,-1.84888 -0.13208,-2.57522 0.39618,-2.17903 0.79238,-2.31109 0.66032,-2.57523 0.79237,-1.12253 0.79238,-2.24506 0.26413,-2.24507 0.59428,-2.83934 0.59428,-2.90538 0.79237,-4.15997 0.066,-2.24506 0.066,-3.03744 0.19809,-3.76379 0.066,-3.30156 0.13206,-2.83935 -0.13206,-3.10347 0.1981,-3.76378 c 0,0 -0.66033,-3.30157 -0.66033,-3.56569 0,-0.26413 -1.25457,-4.02791 -1.25457,-4.02791 l -1.32064,-3.69775 -1.2546,-2.11301 -1.45267,-2.64125 -1.51874,-1.650781 -1.0565,-1.980938 -0.52824,-1.980941 -1.58475,-1.848876 -1.05651,-1.716813 -1.7168,-1.320625 -2.83935,-0.924438 -4.55615,-1.518722 -4.75428,-1.848874 -4.62219,-1.584751 -4.09392,-1.188564 h -2.9714 l -3.10349,-0.528251 -2.24507,-0.462219 -4.09392,-0.264126 -3.9619,-0.198093 -4.29202,-0.06603 -3.49967,0.132065 -5.28251,0.99047 -3.96187,0.990468 -3.89583,1.122532 -4.29205,1.188564 -5.4806,0.726344 -5.01838,0.858407 -5.94281,0.99047 -4.29204,0.660313 -6.1409,0.924438 -4.62219,0.264126 -3.89585,0.330155 -4.55616,-0.06603 h -3.43363 l -5.4806,-0.59428 -3.82981,-0.462219 -4.82029,-1.45269 -2.90537,-1.518719 -2.44316,-1.452687 -3.43363,-2.113002 -4.29203,-2.113002 -4.62219,-2.50919 -3.16951,-0.99047 -2.31109,-1.518719 -3.82982,-2.509189 -2.24506,-2.113002 -3.03744,-2.311094 -1.58475,-1.782847 -3.63172,-4.15997 -2.37713,-2.707282 -4.09394,-3.697754 -4.68822,-3.961879 -3.82982,-3.433627 -3.89584,-2.377125 -3.76379,-2.971409 -4.62219,-2.377128 -4.226,-1.848876 -3.03744,-1.518719 -2.64125,-1.386658 -3.30157,-0.924438 -4.02791,-1.254593 -4.42409,-0.660316 -2.64125,-0.858406 h -1.12254 l -3.69775,-0.330155 -2.77331,-0.792377 -4.6222,-0.06603 -3.69775,0.06603 -2.04697,-0.264126 h -1.51872 l -4.68822,1.386658 -2.113,0.99047 -1.84888,1.782845 -1.91491,1.914909 -1.58475,2.443157 -1.25459,3.631721 -1.0565,1.848877 -0.52825,1.914906 -0.79238,2.245066 -0.72634,1.650781 -0.85841,1.650783 -1.45269,1.188564 -1.38665,1.518718 -0.26413,0.792377 -0.46222,0.858407 -0.066,1.452689 v 0.858406 l 0.39619,1.716813 v 0.924438 l -0.33016,1.518722 -0.13206,1.320625 -0.46222,1.914906 -0.99047,1.980941 -0.72634,2.179032 -0.72635,1.782844 -0.46222,1.122532 -0.59428,1.848877 -0.19809,0.99047 -0.46222,1.650783 -0.85841,1.254594 -0.85841,1.518718 -0.26412,1.188564 -0.79238,2.179035 -0.99047,2.509189 -0.8584,2.04697 -0.85841,1.650781 -0.85841,1.782847 -0.8584,1.980938 -0.594286,1.914906 -0.06603,0.594283 0.330158,0.726345 -0.132061,0.792374 -0.132065,2.245067 0.594284,1.98094 0.39618,0.92444 1.0565,1.84887 1.18857,1.05651 1.12253,1.45268 0.99047,0.79238 1.58475,1.12253 h 1.32063 l 1.0565,0.13206 1.18856,0.13207 1.25459,0.26412 1.2546,0.1981 c 0,0 1.38666,0.26412 1.71681,0.39618 0.33016,0.13207 1.58475,-0.59428 1.58475,-0.59428 l 0.46222,-0.52825 0.92444,-1.32062 1.0565,-0.26413 1.65078,-0.59428 1.05651,-1.0565 0.33015,-1.45269 -0.19809,-1.38666 0.52825,-1.91491 0.52825,-1.71681 0.99047,-0.85841 2.57522,-2.046971 1.84888,-1.716812 1.84887,-1.716815 1.84888,-1.650781 2.37712,-1.980941 2.44316,-2.377125 1.78285,-0.99047 1.38666,-0.858406 1.98093,-1.122532 1.51872,-1.254596 0.72635,-0.528249 0.79238,-0.660312 h 0.19809 l 0.52825,0.06603 0.99047,0.528251 0.59428,0.660313 0.72634,0.924438 0.66032,1.122532 0.92443,1.716815 0.85841,2.641251 0.46222,1.782845 0.46222,2.509189 0.85841,2.707283 0.8584,1.914908 0.79238,2.046975 0.85841,2.70728 1.12253,1.98094 1.18856,2.50919 1.18856,2.44316 1.71682,3.96188 1.32062,2.44315 0.99048,1.84888 1.25459,1.98094 0.99047,2.04697 0.19809,1.65078 -0.066,3.1695 0.19809,1.98094 -0.13206,1.45269 0.066,1.2546 -0.46221,5.21647 0.066,1.98094 -0.066,2.57522 0.39618,2.24506 0.13206,2.44316 0.46222,2.50919 0.66032,3.30156 0.8584,2.97141 0.79238,1.98094 1.12253,1.84888 1.0565,1.71681 1.51872,1.91491 1.51872,1.58475 1.58475,1.51872 -2.113,2.50919 -1.78284,2.04697 -2.50919,2.64125 -3.69775,3.30157 -1.71682,1.45268 -2.24506,2.04697 -2.24507,1.71682 -2.57522,1.78284 -2.24506,1.51872 -2.04697,1.45269 -1.58475,1.0565 -1.78285,1.18857 -1.51872,1.18856 -1.98094,1.32063 -1.32062,1.51872 -0.72635,1.71681 -0.46222,0.92444 -0.33015,1.32062 -1.2546,1.65078 -0.33015,0.52826 -0.66032,0.8584 -0.46222,0.72635 v 1.58475 l 0.13207,1.51872 0.13206,1.25459 0.13206,1.51872 0.26413,1.18857 0.26412,1.25459 v 1.98094 l -0.066,2.44316 -0.26412,1.58475 -0.1981,3.10347 -0.13206,1.58475 -0.1981,2.64125 -0.13206,1.58475 -0.26412,1.71682 -0.26413,2.31109 -0.52825,2.57522 -0.26412,1.0565 -0.1981,1.18857 -0.13206,1.38665 0.33016,1.12254 0.66031,1.38665 1.12253,1.32063 1.0565,1.2546 1.2546,1.45268 1.25459,1.51872 0.79238,1.58475 1.18856,2.57522 0.92444,1.38666 0.85841,1.65078 0.39618,1.2546 0.1981,1.38666 0.39618,0.39618 z"
         style="display:inline;fill:#c0c0c0;fill-opacity:1;fill-rule:evenodd;stroke:#000000;stroke-width:1.88668291;stroke-linecap:round;stroke-miterlimit:4;stroke-dasharray:none;stroke-opacity:1" />
      <path
         inkscape:connector-curvature="0"
         id="path4541"
         d="m 124.00677,58.635362 0.75936,-0.06603 0.66032,0.03302 1.45269,0.198094 0.46222,0.29714 1.0565,0.924438 0.19809,0.561266 0.4292,1.089517 0.13207,1.0565 0.066,1.0565 -0.16508,1.353643 -0.59428,0.759359 -0.39619,0.561266 -1.02348,0.495237 -0.89143,0.29714 -0.99047,0.03301 -1.61776,-0.297141 -1.22158,-0.528251 -1.12254,-0.957453 -0.49523,-1.419672 v -1.584751 l -0.033,-1.320628 0.29715,-0.924439 0.59428,-0.990467 0.8584,-0.198094 0.72635,-0.132064 z"
         style="display:inline;fill:#000000;fill-opacity:1;fill-rule:evenodd;stroke:#000000;stroke-width:1.88668291;stroke-linecap:round;stroke-miterlimit:4;stroke-dasharray:none;stroke-opacity:1" />
      <path
         inkscape:connector-curvature="0"
         id="path4543"
         d="m 103.8012,97.626842 1.35364,0.330158 1.15555,0.330155 0.79237,0.726344 0.42921,1.650781 0.19809,0.95746 0.033,0.92443 v 1.32063 l -0.46222,1.0565 -0.69333,0.79238 -1.0565,0.33015 -0.29714,0.33016 -0.36317,0.23111 c 0,0 -0.59429,-0.39619 -0.75936,-0.56127 -0.16508,-0.16508 -0.99047,-1.35364 -0.99047,-1.35364 l -0.1981,-1.4857 -0.19809,-0.92444 0.066,-1.48571 c 0,0 -0.033,-0.69332 0,-0.891417 0.033,-0.198094 0.29714,-1.023485 0.29714,-1.023485 l 0.26412,-0.561266 0.13207,-0.165079 z"
         style="display:inline;fill:#000000;fill-opacity:1;fill-rule:evenodd;stroke:#000000;stroke-width:1.88668291;stroke-linecap:round;stroke-miterlimit:4;stroke-dasharray:none;stroke-opacity:1" />
      <path
         inkscape:connector-curvature="0"
         id="path4545"
         d="m 111.98908,110.76707 1.08952,-0.79238 0.75936,-0.92443 0.59428,-0.79238 0.52825,-1.38665 0.46222,-1.2546 0.59428,-1.18856 0.4292,-1.15555 0.59428,-1.28761 0.29715,-1.18857 0.39618,-0.36317 0.69333,-0.29714 0.56127,0.066 0.033,-0.033"
         style="display:inline;fill:none;fill-opacity:1;fill-rule:evenodd;stroke:#000000;stroke-width:1.88668291;stroke-linecap:round;stroke-miterlimit:4;stroke-dasharray:none;stroke-opacity:1" />
      <path
         inkscape:connector-curvature="0"
         id="path4526"
         d="m 430.06183,201.5601 0.26412,-1.32063 2.17904,2.11301 -0.46222,-1.65078 -0.4622,-2.83935 2.37712,2.70728 0.59428,1.98094 1.18856,-0.46222 0.72633,-1.25459 2.11302,1.0565 -0.26413,-1.32063 -1.25461,-2.83934 -1.38665,-2.17903 2.31111,0.79237 2.9714,2.3111 0.79238,-0.52825 -0.85842,-1.58475 -0.13205,-1.32063 5.15043,1.51872 0.39619,0.13206 c 0,0 0,-1.32062 -0.13206,-1.58475 -0.13205,-0.26412 -3.10348,-3.49966 -3.10348,-3.76378 0,-0.26413 -1.84885,-2.17904 -1.84885,-2.17904 l -2.90539,-2.77331 -1.58475,-1.58475 2.77331,0.79237 v -0.92443 l -1.78284,-0.59429 -1.9149,-1.18856 -1.38668,-3.03744 c 0,0 -1.18856,-2.64125 -1.38666,-2.90538 -0.19809,-0.26412 -1.58474,-1.51872 -1.58474,-1.51872 l 2.11301,0.1981 1.18856,-0.59428 -3.43363,-0.72635 -1.45269,-0.92444 1.45269,-0.33015 2.31108,-0.33016 -0.13205,-0.79237 -2.31108,0.52825 -2.57524,-1.78285 -1.84886,-2.90538 -1.98094,-3.89584 -2.11301,-3.16951 -1.38666,-3.49965 -0.52824,-2.83935 -0.59428,-2.44316 -0.85841,-2.04697 -2.5092,-6.99931 -0.92443,-2.64126 -1.51874,-2.97141 -1.45266,-3.96187 -2.17903,-3.03744 c 0,0 -3.30158,-3.23554 -3.69777,-3.56569 -0.39618,-0.33016 -2.04697,-1.84888 -2.04697,-1.84888 l -2.37713,-1.0565 -3.03744,-2.37713 -1.78284,-1.84887 c 0,0 2.57522,1.38665 3.1695,1.71681 0.59428,0.33016 0.85841,-0.33016 0.85841,-0.33016 l -2.77331,-2.44315 -1.71683,-2.37713 -3.76377,-2.77332 -3.10346,-3.10347 -2.44316,-2.83934 -3.76378,-3.1695 -4.02791,-2.90538 -3.03745,-2.179033 -2.90539,-2.311096 -2.24506,-1.584751 -2.64123,-1.584751 -1.71683,-1.122532 -1.58475,-0.660312 -1.84888,-0.792377 -3.1695,-1.0565 1.12253,1.65078 1.65078,2.707283 0.92444,1.716814 1.32062,2.641252 1.65079,3.697753 1.98093,2.64125 1.51872,3.1695 0.39619,3.03744 0.85841,2.64125 0.85841,4.4241 0.33015,5.21647 0.1981,5.21648 -0.85841,4.226 -0.1981,3.96188 1.84888,3.96187 1.2546,0.39619 -0.13207,-3.63172 0.26413,-3.03744 2.113,9.04629 1.58475,3.49966 1.18856,2.50919 2.04697,4.68822 2.24507,3.23553 1.38666,2.77332 4.226,0.8584 0.99047,0.066 -1.45269,-1.84888 -1.84888,-1.45269 -1.84887,-1.32063 1.18856,-0.13206 1.84888,1.12253 3.23553,3.3676 3.3676,3.49966 2.37712,1.78284 2.97141,5.6787 2.17903,2.70728 2.57522,3.43363 1.65079,3.76378 0.26412,-0.46222 0.066,-0.92444 -0.8584,-3.03744 1.9149,1.12253 0.72635,4.75426 0.85841,2.57522 0.39618,2.70728 0.66032,2.3111 0.13206,-1.58475 0.46222,-2.04697 1.32062,2.44315 0.33016,3.49966 0.66031,1.71682 1.18857,3.03744 0.59428,0.99046 -0.39619,-2.83934 -1.18856,-3.30157 0.66031,1.05651 1.71681,3.23553 0.99047,3.76378 0.39619,4.22601 1.45269,3.1695 0.13206,-0.59428 0.72635,-0.99047 0.8584,2.9714 1.78285,1.51872 0.72634,-0.99046 1.18857,-0.26413 1.9149,1.12253 -0.72634,-1.38666 -0.85841,-2.17903 -0.59428,-1.84887 1.12253,-1.91491 1.78285,1.25459 0.13206,-1.78284 1.91491,0.79237 -0.066,-0.66031 z"
         style="display:inline;fill:#5f5e5d;fill-opacity:1;fill-rule:evenodd;stroke:#000000;stroke-width:1.88668291;stroke-linecap:round;stroke-miterlimit:4;stroke-dasharray:none;stroke-opacity:1" />
      <path
         inkscape:connector-curvature="0"
         id="path4530"
         d="m 125.4125,33.430883 -2.24117,1.494118 -1.77427,1.120587 -1.21397,2.054413 -1.12059,1.961028 -0.28014,2.241177 -0.93383,2.334559 -0.56029,2.894854 -1.30736,3.268382 -0.28014,1.307354 -0.0934,0.933823 2.33456,-0.560295 2.52132,-1.961028 1.5875,-2.334559 0.28015,-0.466913 0.93382,2.708087 1.5875,2.988236 1.30735,3.268383 2.1478,3.361766 2.70808,3.641911 0.74706,0.186764 -1.96102,-3.361764 -0.65368,-2.988236 1.12059,1.494118 0.84044,1.400736 -0.5603,-2.614706 -1.40073,-3.548531 0.84044,0.373531 0.93382,0.840441 -1.12058,-3.268382 -0.84045,-3.081618 -3.08161,-3.361764 -1.68089,-2.894854 -0.28014,-1.680882 0.56029,-0.653677 1.21397,-1.961031 1.02721,-0.653674 1.40073,-1.680882 1.86765,-1.307354 0.65368,-2.521323 -0.84044,-1.307354 -1.40074,0.840441 -1.49412,0.747059 z"
         style="display:inline;fill:#5f5e5d;fill-opacity:1;fill-rule:evenodd;stroke:#000000;stroke-width:1.88668291;stroke-linecap:round;stroke-miterlimit:4;stroke-dasharray:none;stroke-opacity:1" />
      <path
         inkscape:connector-curvature="0"
         id="path4532"
         d="m 132.88309,31.283088 5.3228,-0.280146 3.54853,-0.186764 4.94926,0.747059 5.50956,0.840441 3.26838,0.46691 2.89486,0.560295 3.36176,0.560295 h 1.68088 l 4.48236,1.680882 3.73529,0.747059 2.89485,1.774264 3.26838,1.680882 3.08162,2.054413 1.86765,1.027205 1.96103,1.213972 2.42794,1.494115 1.86765,1.494118 1.77426,1.961031 2.61471,2.241177 3.175,2.147792 2.80147,3.175001 2.98823,2.054412 2.24118,3.081619 1.40074,1.774264 2.05441,2.334559 3.26838,3.455146 2.70809,1.307354 2.14779,1.680882 2.98824,1.680882 2.05441,1.213972 2.33456,1.680882 1.86765,1.307354 1.96103,1.307351 -0.37353,1.213972 -0.5603,3.548528 0.28015,6.910295 -0.0934,5.883088 -1.49412,5.042651 -2.98824,-8.124269 -0.28014,2.708089 -1.5875,2.614706 -1.77427,1.494114 0.84044,-4.762497 -1.77426,-4.855882 -1.5875,4.855882 -2.80147,1.774265 -0.37353,-5.229411 0.56029,-7.750736 -0.56029,-2.334559 -1.12059,3.081618 -1.68088,4.202205 -3.45515,2.70809 -3.45515,-0.09338 2.42794,-2.521323 -0.18676,-3.361764 1.49412,-4.015441 -0.65368,-2.614705 -2.6147,3.64191 -0.74706,4.482354 -2.61471,-6.069854 -0.65368,3.081618 -2.98823,-6.723528 c 0,0 -1.5875,3.455146 -1.68088,3.828674 -0.0934,0.373531 -5.41618,2.614708 -5.41618,2.614708 l -1.12059,-2.054413 -0.37353,-5.042646 -1.12059,-7.657354 -1.77426,2.147795 -0.93383,-4.855882 -4.01544,2.334559 -0.56029,-3.175 -0.28015,-3.268383 2.80147,-2.427943 1.12059,-2.80147 -3.26838,7.470588 -1.77426,3.361767 -1.30736,2.988233 -0.0934,-2.708087 -0.84044,-5.322795 0.65368,-3.548529 -0.46692,-2.708089 -1.30735,2.054413 -1.77427,3.548528 -0.93382,1.027208 -2.98823,-6.443383 -1.49412,0.840441 -1.68088,-2.801472 -0.74706,-5.042646 -2.24118,-3.455149 -1.02721,2.988236 -2.14779,2.894854 -0.93382,-3.361764 -1.49412,-2.801472 -1.30735,4.855882 -2.33456,-3.922059 -0.93383,2.054413 -1.12059,1.774264 -1.40073,-5.416177 -1.96103,-2.334559 -0.18676,2.614708 -2.52133,-3.641913 -0.37353,3.081618 -0.56029,0.933823 -1.68088,-1.680882 -1.49412,-0.653677 -2.42794,-2.708087 -1.86765,-2.427941 -2.33456,-2.334559 z"
         style="display:inline;fill:#5f5e5d;fill-opacity:1;fill-rule:evenodd;stroke:#000000;stroke-width:1.88668291;stroke-linecap:round;stroke-miterlimit:4;stroke-dasharray:none;stroke-opacity:1" />
      <path
         inkscape:connector-curvature="0"
         id="path4535"
         d="m 128.12059,23.485662 -0.14007,0.700368 0.37353,1.21397 0.0934,0.933824 -0.0934,1.680882 -0.14007,1.680882 -0.0467,2.054413 0.51361,1.867646 0.74705,1.5875 1.02721,1.5875 0.46691,1.12059 0.74706,1.027205 0.98052,1.494118 1.63419,1.167278 0.5136,0.140073 c 0,0 0.28015,-1.213969 0.37353,-1.494115 0.0934,-0.280149 0.56029,-2.521326 0.56029,-2.848163 0,-0.326837 -0.14007,-2.521323 -0.14007,-2.521323 l -0.65368,-2.474632 -0.88713,-2.70809 c 0,0 -0.60698,-1.213969 -0.60698,-1.447427 0,-0.233455 -1.16728,-2.147793 -1.16728,-2.147793 l -1.82096,-2.054412 -1.91434,-1.120588 -0.32683,0.186765 z"
         style="display:inline;fill:#c0c0c0;fill-opacity:1;fill-rule:evenodd;stroke:#000000;stroke-width:1.88668291;stroke-linecap:round;stroke-miterlimit:4;stroke-dasharray:none;stroke-opacity:1" />
      <path
         inkscape:connector-curvature="0"
         id="path4538"
         d="m 128.02721,23.859191 0.37353,1.400736 0.18676,1.494119 0.0467,1.167278 -0.42021,1.774264 0.28014,2.007722 0.18677,1.307351 0.46691,1.307354 1.16728,1.867646 0.60698,0.700368 0.74706,1.213972 0.5603,0.887132 0.84044,1.540809 1.21397,1.120587 0.46691,-0.840441 0.14007,-1.867646 0.32684,-1.820955 -0.14007,-1.820958 -0.5136,-1.914337 -0.70037,-2.848163 -0.74706,-1.961028 -1.02721,-1.680882 -1.0739,-1.213972 -1.07389,-0.887132 -1.40074,-0.980515 -0.46691,-0.09338 z"
         style="display:inline;fill:#0c0301;fill-opacity:1;fill-rule:evenodd;stroke:#000000;stroke-width:1.88668291;stroke-linecap:round;stroke-miterlimit:4;stroke-dasharray:none;stroke-opacity:1" />
    </g>
    <g
       id="g856"
       transform="matrix(-0.04733881,0.13221953,0.12923666,0.04627083,89.023562,19.387793)"
       style="display:inline;stroke-width:7.20226">
      <path
         style="fill:#ffffff;fill-opacity:1;stroke:#000000;stroke-width:1.9086;stroke-linecap:butt;stroke-linejoin:miter;stroke-miterlimit:4;stroke-dasharray:none;stroke-opacity:1"
         d="m 38.742559,117.92857 c 0,0 10.583333,5.29167 27.592263,4.91369 17.008927,-0.37798 20.032736,-10.58333 20.032736,-10.58333 0,0 -0.377976,30.23809 -18.898809,28.72619 -18.520833,-1.51191 -28.72619,-23.05655 -28.72619,-23.05655 z"
         id="path835" />
      <path
         style="fill:none;stroke:#000000;stroke-width:1.9056px;stroke-linecap:butt;stroke-linejoin:miter;stroke-opacity:1"
         d="m 67.468749,122.84226 1.511906,18.14286"
         id="path837" />
      <path
         style="fill:none;stroke:#000000;stroke-width:1.9056px;stroke-linecap:butt;stroke-linejoin:miter;stroke-opacity:1"
         d="m 74.405957,121.92974 1.756244,16.78752"
         id="path839"
         sodipodi:nodetypes="cc" />
      <path
         style="fill:none;stroke:#000000;stroke-width:1.9056px;stroke-linecap:butt;stroke-linejoin:miter;stroke-opacity:1"
         d="m 79.808329,119.68482 2.157149,12.00746"
         id="path841"
         sodipodi:nodetypes="cc" />
      <path
         style="fill:none;stroke:#000000;stroke-width:1.9056px;stroke-linecap:butt;stroke-linejoin:miter;stroke-opacity:1"
         d="m 60.798812,122.86518 1.000295,16.98601"
         id="path843"
         sodipodi:nodetypes="cc" />
      <path
         style="fill:none;stroke:#000000;stroke-width:1.9056px;stroke-linecap:butt;stroke-linejoin:miter;stroke-opacity:1"
         d="m 53.105655,121.97804 0.488682,13.71541"
         id="path845"
         sodipodi:nodetypes="cc" />
      <path
         style="fill:none;stroke:#000000;stroke-width:1.9056px;stroke-linecap:butt;stroke-linejoin:miter;stroke-opacity:1"
         d="m 47.813989,120.95238 0.133635,9.8503"
         id="path847"
         sodipodi:nodetypes="cc" />
    </g>
  </g>
</svg>
